<?xml version="1.0" encoding="UTF-8"?>
<svg id="Layer_2" data-name="Layer 2" xmlns="http://www.w3.org/2000/svg" xmlns:xlink="http://www.w3.org/1999/xlink" viewBox="0 0 1919.99 774.56">
  <defs>
    <style>
      .cls-1 {
        fill: url(#linear-gradient);
      }

      .cls-1, .cls-2, .cls-3, .cls-4, .cls-5, .cls-6, .cls-7, .cls-8, .cls-9 {
        stroke-width: 0px;
      }

      .cls-2 {
        fill: url(#linear-gradient-4);
      }

      .cls-3 {
        fill: url(#linear-gradient-2);
      }

      .cls-4 {
        fill: url(#linear-gradient-3);
      }

      .cls-5 {
        fill: url(#linear-gradient-5);
      }

      .cls-6 {
        fill: #1a4949;
      }

      .cls-7 {
        fill: #176872;
      }

      .cls-8 {
        fill: #224151;
      }

      .cls-9 {
        fill: #68a09c;
      }
    </style>
    <linearGradient id="linear-gradient" x1="1764.48" y1="1743.38" x2="1764.57" y2="1744.12" gradientTransform="translate(-1157692.8 527088.68) scale(656.99 -302.15)" gradientUnits="userSpaceOnUse">
      <stop offset="0" stop-color="#d1e3d6"/>
      <stop offset=".17" stop-color="#b5d1c8"/>
      <stop offset=".37" stop-color="#99c0bb"/>
      <stop offset=".58" stop-color="#85b3b1"/>
      <stop offset=".79" stop-color="#79acab"/>
      <stop offset="1" stop-color="#75aaaa"/>
    </linearGradient>
    <linearGradient id="linear-gradient-2" x1="1766" y1="1742.47" x2="1766.04" y2="1743.24" gradientTransform="translate(-2228522 705585.17) scale(1262.62 -404.64)" gradientUnits="userSpaceOnUse">
      <stop offset="0" stop-color="#d7e7db"/>
      <stop offset=".48" stop-color="#accec9"/>
      <stop offset=".81" stop-color="#95c1bf"/>
    </linearGradient>
    <linearGradient id="linear-gradient-3" x1="1766.31" y1="1742.12" x2="1766.36" y2="1742.82" gradientTransform="translate(-2845472.78 702536.17) scale(1611.36 -402.87)" gradientUnits="userSpaceOnUse">
      <stop offset=".52" stop-color="#d1e3d6"/>
      <stop offset="1" stop-color="#bed9c6"/>
    </linearGradient>
    <linearGradient id="linear-gradient-4" x1="1765.22" y1="1743.27" x2="1766.22" y2="1743.27" gradientTransform="translate(-1877737.54 656990.52) scale(1064.02 -376.7)" gradientUnits="userSpaceOnUse">
      <stop offset="0" stop-color="#d1e3d6"/>
      <stop offset=".08" stop-color="#cee1d3"/>
      <stop offset=".54" stop-color="#c2dbc9"/>
      <stop offset="1" stop-color="#bed9c6"/>
    </linearGradient>
    <linearGradient id="linear-gradient-5" x1="1762.24" y1="1745.92" x2="1763.24" y2="1745.92" gradientTransform="translate(-736150.77 336972.88) scale(418.58 -192.95)" gradientUnits="userSpaceOnUse">
      <stop offset=".27" stop-color="#d1e3d6"/>
      <stop offset=".4" stop-color="#c6dcd1"/>
      <stop offset=".64" stop-color="#abcbc4"/>
      <stop offset=".94" stop-color="#7fb0ae"/>
      <stop offset="1" stop-color="#75aaaa"/>
    </linearGradient>
  </defs>
  <g id="Layer_1-2" data-name="Layer 1">
    <g id="Layer_1-3" data-name="Layer 1">
      <g id="Group_32" data-name="Group 32">
        <path id="Path_2" data-name="Path 2" class="cls-6" d="m1834.33,690.37l-10.3,1.7,1.34-5.38-6.1-3.99-.44-3.36,5.16-1.06s-.4-4.61-.35-5.86,3.06-5.74,3.06-5.74l1.31-4.55,4.7-4,2.8-2.61s-.1-1.05-.08-1.46-.09-1.36.62-1.44c.48-.06.96-.15,1.43-.26l-.78-1.8s.31-.82.89-1.01c1.03-.58,1.93-1.36,2.65-2.3.19-.48.44-.93.76-1.33l1.66-2.55,2.32-1.27,1.72-4.11.9,2.54.04,2.61,1.5,1.73,3.34,1.8c-.26.46-.47.94-.62,1.44-.15.47-.36.92-.62,1.33,0,0,2.1.81,2.23,1.23s.31,2.94.31,2.94c0,0-1.31.99-1.33,1.31s.93,1.7,1.05,2.23,1.66,1.21,1.34,2.04,1.87,3.2,1.87,3.2l-2.33,1.48c.46.52.97.99,1.51,1.42.44.29.86.63,1.25.99l1.54.69-.34,1.66-.23,2.4-1.03,1.11c.68.32,1.29.77,1.8,1.32.43,1.03.64,2.14.59,3.26-.16.31-1.17.79-1.17.79l1.36,1.52.22,1.79s.11.73-.18,1.04-1.58.46-1.6.98,3.2,1.9,3.2,1.9l-.35,1.77c.11.52.19,1.05.23,1.57-.01.42-5.16,1.17-5.16,1.17l.23,1.57s-1.29.37-1.73.46-6.54-.04-6.55.28c-.16.53-.37,1.05-.62,1.55l-6.38-.56-6.6-2.13-.02-.02Z"/>
        <path id="Path_3" data-name="Path 3" class="cls-7" d="m1740.44,516.41l-3.92,1.53.1-2.66-2.71-1.47-.44-1.57,1.95-.86s-.51-2.17-.59-2.77c.14-1.01.39-2,.75-2.95l.16-2.26,1.53-2.24.9-1.44s-.12-.49-.15-.7-.14-.65.13-.73c.19-.06.37-.14.54-.22l-.45-.8s.06-.41.27-.54c.37-.37.66-.8.86-1.28.04-.24.1-.47.2-.68l.46-1.33.81-.77.35-2.09.55,1.15.22,1.24.73.72,1.46.62c-.07.24-.11.48-.13.73-.02.23-.07.46-.14.68,0,0,.89.24.97.43s.35,1.38.35,1.38c0,0-.44.57-.42.72s.5.75.59.99.75.46.69.88.99,1.4.99,1.4l-.8.87c.22.21.45.4.71.57.2.11.39.24.56.39l.66.22v.82l.09,1.16-.32.6c.3.11.58.28.81.51.25.47.42.98.49,1.52-.03.16-.4.46-.4.46l.66.62.23.84c.05.17.06.34.01.51-.09.16-.58.33-.55.58s1.41.68,1.41.68v.86c.09.24.16.49.21.73.02.2-1.94.91-1.94.91l.21.73s-.48.27-.64.34c-.86.14-1.71.34-2.55.59-.02.26-.06.52-.12.78l-2.55.18-2.76-.55h0Z"/>
        <path id="Path_4" data-name="Path 4" class="cls-6" d="m1584.44,677.59l-4.97,1.9.75-5.4-2.85-3.87-.15-3.35,2.5-1.16s-.1-4.6-.05-5.85c.39-1.97.91-3.9,1.58-5.79l.72-4.57,2.33-4.09,1.4-2.67s-.03-1.05-.01-1.46-.01-1.36.32-1.45c.24-.07.47-.16.69-.29l-.34-1.79s.17-.83.45-1.03c.56-.71,1.01-1.5,1.31-2.35.09-.46.22-.91.39-1.34l.84-2.58,1.14-1.31.9-4.14.38,2.53-.03,2.61.69,1.7,1.57,1.73c-.14.48-.25.96-.32,1.45-.08.46-.18.91-.32,1.34,0,0,1,.77,1.04,1.19s.1,2.93.1,2.93c-.28.41-.5.86-.67,1.33-.01.31.42,1.69.46,2.21s.77,1.18.6,2.01.83,3.16.83,3.16l-1.15,1.53c.2.48.43.94.7,1.39.22.3.41.63.57.96l.73.66-.2,1.67-.16,2.4-.52,1.13c.37.36.65.8.83,1.29.19,1.07.27,2.16.22,3.25-.14.3-.34.58-.57.81l.62,1.48.07,1.78c.03.35,0,.7-.1,1.04-.15.3-.77.49-.78,1.02s1.5,1.83,1.5,1.83l-.2,1.77s.09,1.16.07,1.57-2.5,1.27-2.5,1.27l.07,1.57s-.63.4-.83.49-3.14.09-3.15.41c-.08.52-.19,1.04-.33,1.56l-3.05-.43-3.12-2h0Z"/>
        <path id="Path_5" data-name="Path 5" class="cls-1" d="m1919.87,302.15l-147.26-2.61-152.77-21.83-258.75-115.35-98.2-54.56,42.09-8.96s34.69-8.57,45.59-15.98,22.61-11.69,24.56-13.63c1.94-1.95,26.49-13.25,26.49-13.25l26.89-13.24s21.44-16.37,23-16.37,12.47.78,14.42.39,14.03-4.28,14.03-4.28c0,0,10.9,5.07,16.75.39.12-.1.25-.19.37-.29,5.76-4.54,12.58-8.34,16.39-11.01,3.9-2.73,19.09-8.18,19.09-8.18,0,0,10.14,6.23,21.43,1.16s14.8-5.07,24.55-3.9c9.75,1.17,30.78,9.35,34.68,10.9s9.35-2.33,15.98,6.63c6.63,8.96,42.47,27.28,52.22,33.9s42.47,31.17,54.17,37.4,45.2,27.68,54.56,31.57,26.11,20.27,43.65,27.28,44.04,25.73,55.34,30.4,30.74,8.94,30.74,8.94"/>
        <path id="Path_6" data-name="Path 6" class="cls-3" d="m1919.99,298.16v161.59s-78.46,4.16-80.01,3.13-123.67-3.65-123.67-3.65l-213.55-3.63-138.74,9.48-308.64-14.02-398-246.43s23.64-1.83,30.92-4.41,13.77-3.64,19.49-5.71,16.36-4.16,20.53-6.49,14.81-4.68,19.74-6.5,7.54-1.29,14.81-6.75c4.4-3.29,9.07-8.02,13.34-11.8,2.3-2.21,4.89-4.1,7.7-5.61,5.71-2.6,17.93-11.95,20.53-11.95s9.09,2.34,11.69,2.6,11.17.52,13.25-.77,9.88-7.28,14.03-8.57,17.15-1.57,19.75-1.29,37.4,7.27,45.46,12.21,13.77,5.97,21.04,9.09c7.69,3.25,15.7,5.69,23.9,7.27.3.05.61.1.93.15,7.58,1.18,21.9,1.41,27.13,1.41s12.21,4.15,18.19-4.42,14.81-14.03,22.35-17.67,37.67-17.41,44.94-20.53,17.41-9.87,20.53-13.76,11.95-12.21,13.25-12.21c3.11-.1,6.2-.46,9.24-1.09h.01c3.48-.71,7.21-1.91,9.72-3.85,5.71-4.41,10.65-10.13,13.5-10.66s11.69-1.82,15.59-3.12,18.71-1.55,28.32-1.55,2.34-2.6,12.73-8.83c5.99-3.7,12.99-5.43,20.01-4.94,0,0,8.05-4.67,9.35-4.41s18.44,6.23,20.27,7.53,31.17,16.89,56.64,28.58,32.47,5.2,42.6,14.81,38.19,22.6,41.57,24.94,30.66,15.33,54.04,23.9,29.88,26.5,51.7,36.11c21.82,9.61,30.4,17.15,48.32,23.64s102.88,43.39,136.66,50.66,60.27,15.59,72.74,15.59,24.95-4.15,38.98-1.55,16.1,16.1,37.4,10.39,24.42-10.9,39.49-11.42,38.45,4.15,42.09,6.75,18.19,7.79,18.19,7.79h0Z"/>
        <path id="Path_7" data-name="Path 7" class="cls-4" d="m1611.36,449.7c-22.03,1.47-44.06,2.93-66.09,4.4-21.58,1.43-43.16,2.87-64.74,4.3-.64.04-1.29.09-1.92.13l-224.71,22.47-51.9,5.2-175.44,17.55-665.6-9.35c-120.1,1.55-240.19,3.11-360.28,4.67-.07-11.49-.13-22.99-.2-34.49C.11,387.09-.21,309.65.17,232.17c5.24-4.14,10.75-7.93,16.49-11.35,10.1-6.07,20.9-10.91,32.15-14.41h15.21l10.52,2.33s21.04-2.33,29.23-7.01,33.9-9.35,45.59-18.7,47.93-26.89,47.93-26.89l42.09-16.37s24.55-17.54,26.89-21.04,11.95-10.9,14.55-10.65,5.33-.13,8.7-.13,12.08-.4,14.94-1.18,7.41-2.34,8.7-2.86,14.55-2.07,15.97-1.94,1.7-1.82,11.3-.79,10.91,1.57,13.12,3.64,23,8.18,30.27,7.53,17.14-2.99,18.44-3.12,13.76-4.55,18.44-4.28,20.27,1.55,20.27,1.55c0,0,16.1,2.08,19.22,2.08s16.11,2.07,21.82,1.29c2.43-.37,4.92-.08,7.21.82.67.25,1.3.59,1.89,1,0,0,20.52,11.43,23.63,12.47,3.11,1.04,34.04,13.77,40.53,19.75s35.59,16.36,40.79,24.16c2.34,3.51,6.44,7.52,10.47,10.95,3.46,3.06,7.17,5.83,11.09,8.26,1.7.94,3.76.94,5.46,0,1.29-.52,11.95-4.15,16.62-4.15s11.43,3.89,17.67,9.61,26.76,11.69,30.92,11.69,32.2,6.23,48.84-1.04,20.79-8.83,28.06-8.31,11.95-6.76,22.35,2.6,29.62,15.59,46.24,21.3c16.63,5.71,27.54,15.59,32.73,19.74,3.08,2.47,11.43,4.2,18.07,5.09,4.57.62,8.31.83,8.95.63.96-.32,4.06,2.69,9.68,7.34,3.53,2.93,8.08,6.51,13.7,10.33,14.55,9.87,29.1,28.58,61.32,37.93s35.65,10.59,44.62,14.87c8.96,4.29,16.76,8.57,19.49,10.33s11.68,3.5,17.93,3.5,21.62,3.31,30.2,5.84,58.98,12.74,82.1,12.74,35.32-1.3,44.94,1.55,28.57,7.02,48.32,18.44c19.74,11.43,37.4,23.9,41.57,27.55s26.24,14.28,29.36,14.02,8.05-3.89,12.47-.26,7.53,7.28,9.35,7.8,14.81,0,14.81,0c0,0,15.59-2.6,21.56,1.03s8.06,8.06,14.55,9.09,16.89.78,16.89.78c8.52-3.69,15.06-3.75,19.48-3.12,3.75.55,4.49,1.4,13.26,4.16,5.7,1.8,9.87,2.85,18.19,4.93,9.93,2.5,18.26,4.28,21.56,4.94,23.19,4.66,28.69.4,54.37,3.84.73.1,1.49.21,2.27.32,6.96,1,11.09,1.94,15.93,2.89,4.25.83,9.05,1.66,16.8,2.56,9.67,1.11,17.7,1.59,23.12,1.83h0Z"/>
        <path id="Path_8" data-name="Path 8" class="cls-2" d="m1555.74,442.11c-3.51,1.18-7.26,2.34-11.24,3.45-17.14,4.83-38.29,9.09-61.46,12.84-78.16,12.64-179.25,19.42-226.63,22.6-34.1,2.29-66.81,3.92-98.13,4.88-104.86,3.41-192.91.48-258.34-3.41-1.77-6.35-3.5-12.72-5.27-19.09,0,0-8.77-3.91-9.65-5.86-1.02-2.65-1.32-5.53-.88-8.33.44-3.42.88-3.42.88-7.83s0-12.24-1.74-15.18c-1.77-2.94-8.33-6.35-10.09-6.35s-6.14-4.42-8.77-5.4-15.78-1.95-15.78-1.95h-26.3c-5.27,0-7.9-2.45-7.9-2.45,0,0,3.07-4.4.86-11.75-2.18-7.34,1.77-10.28-3.94-9.79-5.69.49-9.19.98-10.95-1.46s-2.63-7.35-3.94-8.32-6.58-3.42-10.53-3.42c-4.44.19-8.87-.3-13.16-1.48-4.83-1.46-8.77-2.93-13.16-6.86-4.37-3.91-18.41-5.86-20.61-6.84s-55.69-40.63-55.69-40.63c0,0-23.24-8.32-24.11-14.69s-2.2-15.67-2.2-20.57-.86-2.93,2.64-16.15,5.69-18.12,6.13-25.47-6.13-.49-8.33-5.86c-1.1-2.73-1.77-4.57-2.26-6.18-1.08-3.5-.54-3.93-1.25-4.59-1.11-1.02-2.31-.56-4.42-1.8-.8-.47-1.52-1.07-2.15-1.76l-7.01-2.54c-2.26-4.71-4.96-6.78-7.01-7.79-2.38-1.17-4.19-1.1-10.91-2.92-2-.55-3.63-1.04-4.67-1.36-2.6-1.92-5.31-3.7-8.1-5.32-3.99-2.32-9.19-4.9-9.19-4.9h0l-11.74-2.25c-2.69-.06-6.27-.62-8.96-3.12-2.2-2.05-2.28-3.96-4.48-6.43-2.51-2.82-5.49-3.78-8.77-4.87-19.33-6.45-15.44-6.26-22.6-7.99,0,0-9.29-2.27-14.42-5.45-1.04-.64-1.77-1.15-2.34-1.57-1.16-.86-1.99-1.52-2.28-1.74-6.36-5.17-11.93-7.76-14.35-13.18-1.9-4.27.72-4.55-1.3-9.87-2.26-5.97-5.76-6.2-6.56-11.57-.14-2.43-.54-4.84-1.2-7.18-.38-1.23-.86-2.44-1.42-3.6-2.2-4.54-5.53-4.8-8.29-8.02.67.25,1.3.59,1.89,1,0,0,20.52,11.43,23.63,12.47s34.04,13.77,40.53,19.75c6.49,5.97,35.59,16.36,40.79,24.16,2.34,3.51,6.44,7.52,10.47,10.95,3.46,3.06,7.17,5.83,11.09,8.26,1.7.94,3.76.94,5.46,0,1.3-.52,11.95-4.15,16.62-4.15s11.43,3.89,17.67,9.61,26.76,11.69,30.92,11.69,32.2,6.23,48.84-1.04,20.79-8.83,28.06-8.31,11.95-6.76,22.35,2.6,29.62,15.59,46.24,21.3c16.63,5.71,27.54,15.59,32.73,19.74,3.08,2.47,11.43,4.2,18.07,5.09,5.97,3.18,12.21,5.85,18.63,7.97,3.53,2.93,8.08,6.51,13.7,10.33,14.55,9.87,29.1,28.58,61.31,37.93s35.65,10.59,44.62,14.87,16.76,8.57,19.49,10.33,11.68,3.5,17.93,3.5,21.62,3.31,30.2,5.84,58.97,12.74,82.1,12.74,35.32-1.3,44.94,1.55,28.57,7.02,48.32,18.44,37.4,23.9,41.57,27.55,26.24,14.28,29.36,14.02,8.05-3.89,12.47-.26,7.53,7.28,9.35,7.8,14.81,0,14.81,0c0,0,15.59-2.6,21.56,1.03s8.06,8.06,14.55,9.09,16.89.78,16.89.78c8.52-3.69,15.06-3.75,19.48-3.12,3.75.55,4.49,1.4,13.26,4.16,5.7,1.8,9.87,2.85,18.19,4.93,9.93,2.5,18.26,4.28,21.56,4.94,23.19,4.66,28.69.4,54.37,3.84v.03Z"/>
        <path id="Path_9" data-name="Path 9" class="cls-9" d="m.49,464.16l11.3,5.87,10.91-2.43,3.12-4.45s1.17-7.29,2.73-.81c.7,3.16,1.61,6.28,2.73,9.32,0,0,5.84-4.45,6.62-6.48s1.17-6.48,2.34-7.29c1.9-1.05,3.85-1.99,5.84-2.84l1.17,10.13,1.56,1.22,3.51-12.96s2.34,6.89,3.51,8.51,4.28-4.45,4.28-4.45l2.73,5.26s3.9,1.22,5.06.4,4.28-3.64,5.45-4.05,1.56-1.22,3.51-.81,12.47,3.64,12.47,3.64l5.84-6.89s-1.95-2.43,2.34-2.03,12.08,2.84,12.08,2.84c0,0,2.34,2.84,3.51,3.24s8.58-3.64,8.58-3.64c0,0,.78,1.22.78-1.62v-4.05l14.03,8.91c1.17,4.05,3.12,14.18,5.45,16.2s7.01-3.24,7.01-3.24c0,0-.39-7.29,4.28-5.67s2.34.4,5.84,1.62,4.67,2.03,9.74-3.24,6.62-7.7,7.79-7.7,12.08.4,12.08.4l9.74,2.43s-6.62-5.67,5.84-1.62,24.94.81,26.5,4.05l1.56,3.24s8.96,3.24,12.47,0,5.06-4.45,5.06-4.45c0,0-5.45-8.91,3.12,1.22,8.57,10.13,11.69,10.53,12.86,10.53s4.67-.4,4.67-.4l24.16-5.26s-1.95-13.77,5.45-4.86,9.35,10.53,9.74,12.96c.45,2.71,1.37,5.32,2.73,7.7,1.56,2.84,3.51,3.24,5.45,6.48s15.59-5.67,15.59-5.67l2.73-7.29s1.17-8.1,3.12-6.08,4.67,15.39,4.67,15.39c2.34,3.64,7.4,4.86,7.4,4.86l12.47-5.26,11.69-12.56s1.56-4.86,4.67-4.05,17.54,12.15,17.54,12.15l15.98,4.05,1.56-10.13s.78-6.89,3.9.4,1.17,8.91,4.67,8.51,10.52-10.53,10.52-10.53l5.06,9.86,6.23-2.43.78,5.67,1.56,4.32,4.67-6.48.26,3.78,3.9.54,2.08-5.67,5.19,5.67.78-6.48,2.34-2.97,4.67-4.32,5.97,10.26,1.3-3.24,1.3-4.86,7.53,6.75s.78,2.16,2.86.54c1.96-1.75,3.78-3.65,5.45-5.67l2.34-5.4s5.71,2.16,6.49,2.97c1.23.99,2.54,1.9,3.9,2.7l1.04,7.56s3.12-.54,3.12-1.62-.78-5.94-.78-5.94l4.15.27,2.34-6.48,2.86-3.51s4.15-6.75,4.15-8.1,1.04-8.37,1.82-9.18,4.15-.27,4.15-.27l5.19,4.86c1.12-.24,2.24-.42,3.38-.54.78,0,2.34,7.02,2.86,8.1s8.05,3.51,8.05,3.51l.78,1.08,8.05,7.16,9.16-.61,1.95,4.45,4.67-3.85,6.43.2,8.18-3.44,1.76,3.85c.45,1.41,1.03,2.76,1.76,4.05.59.6,3.12-2.03,4.28-1.83,1.18.38,2.29.93,3.31,1.62l4.28,5.87s5.26-2.03,5.84-2.03,4.09.2,5.06,2.23,5.84,7.09,5.84,7.09l11.3-3.04,2.73-1.02s3.9,4.66,4.09,5.26c.45.85.97,1.67,1.56,2.43l4.28-2.84,7.6-1.22,1.56,3.64,3.7-3.64,2.73-1.02,15,6.89.59-3.85h3.32l2.53-1.83,10.13-6.68,1.76,3.44,3.31-.61,3.9,2.43,1.36,4.06,5.65-.81s9.74-1.22,10.33-1.42,3.7,3.44,3.7,3.44l7.6-5.67,4.48-9.92,4.09,1.42-.97-7.09,4.09-5.87,4.87,1.42,2.15-4.45,8.77-6.08,1.36,4.86,3.7.2,1.56,4.66,4.67-.2,4.09,3.85,1.36-1.02,4.09-3.04s.39-.61.59.81,2.53,4.45,2.53,4.45h-2.53l1.36.61s2.73.4,3.51-.2,4.09-2.84,4.09-2.84c0,0,6.04-.81,6.62-1.22s4.48-7.29,5.06-7.7,16.17-7.09,16.17-7.09v4.66c.97-.66,2.02-1.21,3.12-1.62.97-.2,11.11-1.02,12.86-.61s.97,4.25.97,4.25l3.31-5.26,2.53,3.44,2.92-4.05,3.9,3.04s1.56-3.04,2.15-3.24,3.51,3.24,3.51,3.24l4.48,2.43,3.51,10.94-.39-13.77,4.28,2.23,3.31-.81,21.43-6.08-1.36,7.7s4.48,2.84,5.06,2.84.78,4.45.78,4.45l2.15,5.26s2.92-2.03,4.09-1.22,3.32,5.47,4.09,6.48,6.62,1.42,7.21,1.02,2.73-2.23,3.32.4,11.89,2.03,12.47,1.62,3.12-4.66,3.9-4.86,1.76-1.83,5.45.2,8.96-5.06,9.55-5.47c1.06-1.21,2.04-2.5,2.92-3.85,0,0,6.62,3.17,7.66,3.71s2.34-4.05,3.12-5.94,5.45-3.78,5.97-.81,3.12,7.02,4.93,7.56,5.71-4.05,6.75-5.13,2.08-1.35,2.34.81c.07,1.17.64,2.25,1.56,2.97l2.86-2.97s4.93-7.29,4.93,0,2.08,2.16,3.12,2.16,13.25-3.51,13.25-3.51c0,0-.78,3.51.78,4.59s5.71.81,8.83,0,5.45-1.35,5.45-1.35c0,0,1.3,3.24,2.6,3.51s6.49-1.08,7.27-1.89,9.35-.81,9.35-.81c0,0,4.41,6.21,5.45-2.97s2.6-10.26,3.9-8.64c1.26,1.81,2.39,3.71,3.38,5.67l3.38-4.59,4.93,2.97s23.38-6.21,24.42-7.83,12.99-4.32,12.99-.54,3.64,4.32,5.71,2.16,2.6-3.78,5.71-1.08,11.95,4.86,14.55,2.16,1.04-5.94,5.19-4.32,5.19,4.86,10.39,1.62,4.15-10.8,10.39-5.4,10.91,7.56,16.11,5.94,5.71-7.56,8.31-2.7,14.55,8.1,19.23,4.86,3.64-8.64,14.55-6.48,19.75-1.08,23.38-1.62,8.31,3.78,12.99-5.4c2.93-5.68,6.6-10.95,10.91-15.66,1.67.47,2.76,2.06,2.6,3.78,0,3.24,3.12.54,3.64,2.7s0,8.1,2.08,8.1,7.27-11.88,8.31-14.58,1.04-3.78,3.12-5.94,3.64-8.1,5.71-5.94,2.08,4.86,2.08,7.02-.52,10.26-.52,10.26c0,0,4.15,7.56,8.31,8.64s6.23.54,7.79,1.08,10.91,7.56,16.11,4.86,10.91-8.64,10.91-8.64c0,0,6.75,3.24,9.87,4.32s16.11,3.24,23.38,0,12.99-12.42,20.78-10.8,16.63,6.48,18.19,9.72,7.79-1.62,12.47-5.4,9.35-8.1,11.43-8.1,16.63,4.86,16.63,4.86l7.79-11.34s3.64,4.32,3.64,5.94,10.39,3.78,11.95,3.78,5.19-5.4,6.23-7.02,1.56-8.1,8.31-7.02c4.06.65,7.95,2.12,11.43,4.32,0,0,14.42-16.61,17.54-13.37,1.8,1.76,3.02,4.02,3.51,6.48l5.84-4.45,2.34,4.86,2.73-1.62s1.95-1.62,2.73-.4,15.2,1.22,15.2,1.22l.78-4.05s2.34.4,3.12,1.62.39.81.78,2.43-3.9,2.83,3.9,2.03,9.35-.81,9.35-.81l1.95-4.05s1.95,4.86,3.51,4.45,7.79-26.74,7.79-26.74c0,0-.39,12.56-.39,14.99v4.86c0,2.03,4.28-.81,4.28-.81.39,3.64-1.56,4.45,1.17,4.86s-.39,0,5.84-1.62,24.55,4.45,24.55,4.45c0,0,1.56-7.7,2.73-7.7s5.06,2.84,8.18,4.05,7.01,2.43,10.13,1.62-3.9-6.08,8.96-2.84,7.4,1.22,12.86,3.24,3.12-2.84,8.57,2.84,5.06,9.32,7.01,5.26c1.01-1.93,1.79-3.97,2.34-6.08,0,0,8.18,6.89,8.18,8.1s7.79,1.22,9.74-.4,13.64-6.89,16.37-6.48,1.56-4.05,4.28,2.03,2.34,1.22,5.45,0,13.25,5.26,13.25,5.26l10.65,2.97,5.71-4.32s3.12-3.24,3.9-.54,1.04,3.78,1.04,3.78c0,0,3.38.27,4.93-1.89s3.64-6.75,4.15-3.78,2.86,6.48,4.16,5.67c.95-.63,1.75-1.46,2.34-2.43,1.04-1.62,1.04-4.86,2.08-3.51s2.34,5.4,5.19,6.48,5.97,4.59,7.27.81,1.82-5.67,2.6-5.67,5.19.27,5.19.27c.46-1.11.98-2.19,1.56-3.24.78-1.35,2.6-5.13,3.38-2.97.49,1.48.75,3.03.78,4.59.96.88,1.68,2,2.08,3.24.7,2.17,1.96,4.13,3.64,5.67,1.56,1.35,1.82,7.56,4.16,1.35,1.36-3.46,2.23-7.1,2.6-10.8,0,0,0-3.24,3.12.81s-4.16,9.45.52,10.26,10.91,1.08,9.35-2.16-8.05-6.75-1.82-5.67,7.53-.54,8.05,2.43-1.3,3.51-1.3,3.51l7.01.27c.8-1.16,1.42-2.43,1.82-3.78.78-2.43,3.12-8.64,4.67-7.83s1.04,7.83,1.04,7.83c0,0-1.04,0-.26,1.08s1.3,1.08,2.86,1.08h4.41c1.71.34,3.46.43,5.19.27,3.64-.27-.26-2.43,9.87-2.7s11.17-2.16,15.59,0,13.77,2.7,13.77,2.7l13.25-1.35,22.72,1.48v136.97C1281.61,606.81,638.55,642.48.3,679.69c.06-71.84.13-143.69.2-215.53Z"/>
        <path id="Path_10" data-name="Path 10" class="cls-7" d="m1919.87,507.62s-59.94-20.22-72.5-1.11c-12.56,19.1-51.14,21.01-51.14,21.01,0,0-47.55-4.77-53.83-4.77s-54.72,2.87-54.72,2.87l-57.42,30.56s-122.91.95-126.5.95-49.34,6.68-69.97,10.51-154.3,23.88-154.3,23.88c0,0-175.83,5.73-195.57,3.82s-54.72-.95-81.64,11.46-47.55,12.42-63.69,12.42-92.4,9.55-92.4,9.55l-55.62,9.55,252.09,30.56s280.8,23.88,296.05,23.88,145.33-2.86,161.48,2.86,123.8,21.97,151.61,25.79,268.07,13.18,268.07,13.18v-226.96h0Z"/>
        <path id="Path_11" data-name="Path 11" class="cls-6" d="m.26,582.84s41.96,15.68,67.73,16.43,25.77-10.58,61.68.76c35.91,11.33,43.72,12.09,62.46,12.09s42.94-1.51,54.65-3.78,89.01,4.53,89.01,4.53c0,0,51.53-10.58,66.36,1.51s95.25,20.4,95.25,20.4c0,0,15.61-8.31,57-9.07s84.32,12.84,94.47,12.84,210.8-60.44,276.38-30.22,170.2,25.69,220.17,30.22,110.87,15.11,115.55,18.13,67.14,3.03,93.69,3.03,99.93-10.58,121.8-10.58,99.93,27.2,137.41,27.2,146.78-1.51,168.64,1.51,110.92,17,123.35,18.13c12,1.09,14,2.09,14,2.09v76.49l-1916.7-1S.26,646.2.26,582.84Z"/>
        <g id="Group_31" data-name="Group 31">
          <path id="Path_12" data-name="Path 12" class="cls-5" d="m1915.64,192.95c-4.46-.43-8.86-1.3-13.15-2.59-1.79-.6-13.03-4.57-27.18-9.99-6.07-2.33-9.88-3.86-12.95-4.92-2.74-.98-5.58-1.66-8.46-2.03-4.73-.51-9.43-1.3-14.06-2.38-2.86-.56-5.65-1.39-8.35-2.47-6.87-3.03-7.94-7.06-12.64-10.72-4.44-3.47-6.59-2.29-30.75-5.76-8.33-1.2-12.57-1.82-16.15-2.88-7.22-2.22-14.08-5.44-20.41-9.56-11.49-7.34-10.55-10.26-22.1-17.86-6.14-3.94-12.63-7.32-19.38-10.1-11.7-5.13-15.82-5.3-24.06-10.03-6.13-3.53-9.35-6.62-14.19-10.71-23.03-19.4-42.67-28.09-42.62-31.28-5.78-.17-11.46-1.6-16.63-4.19-4.12-2.17-5.05-3.81-7.54-5.52-1.25-.85-2.6-1.55-4.01-2.1-3.11-1.25-4.88-1.03-9.74-1.62-3.3-.4-2.3-.48-7.79-1.3-6.08-.91-6.17-.65-10.07-1.34-6.33-1.12-6.14-1.83-8.72-1.7-4.96.26-5.31,2.85-9.79,3.04-5.33.22-6.31-3.4-10.65-2.6-4.14.76-4.5,4.29-8.83,4.67-2.32.2-4.16-.63-6.75-1.82-4.38-2-4.44-3.53-7.53-4.93-5.79-2.63-9.45.99-11.95-1.43-3.02-2.92,1.42-9.1-1.56-13.25-2.14-2.98-6.89-3.25-10.54-3.02,5.76-4.54,12.58-8.34,16.39-11.01,3.89-2.73,19.09-8.18,19.09-8.18,0,0,10.14,6.23,21.43,1.16s14.81-5.07,24.57-3.89c9.75,1.18,30.78,9.35,34.68,10.9s9.35-2.33,15.98,6.63c6.63,8.96,42.47,27.28,52.22,33.9s42.47,31.17,54.17,37.4,45.2,27.68,54.56,31.57,26.11,20.27,43.65,27.28,44.04,25.73,55.34,30.4,26.49,8.19,26.49,8.19l.02,6.03h0Z"/>
        </g>
        <path id="Path_13" data-name="Path 13" class="cls-7" d="m1490.47,552.27l-4.71,1.37.71-3.89-2.7-2.79-.14-2.41,2.36-.83s-.09-3.31-.05-4.21c.37-1.43.87-2.83,1.5-4.17l.68-3.29,2.21-2.94,1.32-1.92s-.02-.76-.01-1.06-.01-.98.31-1.05c.22-.05.44-.11.66-.2l-.32-1.29s.16-.59.43-.74c.51-.49.94-1.06,1.25-1.69.09-.34.21-.66.37-.97l.8-1.86,1.08-.94.86-2.98.36,1.81-.03,1.88.65,1.22,1.49,1.24c-.13.34-.23.69-.31,1.05-.07.33-.17.66-.3.97,0,0,.94.56.99.85s.09,2.11.09,2.11c-.26.29-.47.61-.63.96-.01.22.39,1.21.44,1.59s.73.85.57,1.44.79,2.28.79,2.28l-1.08,1.1c.19.35.41.68.66.99.2.22.38.45.54.69l.69.47-.19,1.2-.15,1.72-.49.81c.33.25.6.56.79.93.18.77.25,1.55.2,2.34-.07.22-.54.58-.54.58l.59,1.07.06,1.28c.02.25,0,.51-.1.75-.14.22-.73.35-.75.73s1.42,1.32,1.42,1.32l-.19,1.28s.09.83.07,1.13-2.37.91-2.37.91l.07,1.13s-.59.29-.79.35-2.97.06-2.98.29c-.08.38-.19.75-.31,1.12l-2.89-.31-2.96-1.44h0Z"/>
        <path id="Path_14" data-name="Path 14" class="cls-7" d="m1513.96,552.71l-3.74.84.58-2.55-2.13-1.86-.09-1.58,1.88-.52s-.05-2.18-.01-2.77c.31-.95.71-1.86,1.21-2.72l.55-2.16,1.77-1.91,1.06-1.24s-.02-.49,0-.69-.01-.65.25-.68c.18-.03.35-.07.52-.13l-.25-.85s.13-.39.34-.48c.4-.3.74-.67,1-1.1.07-.22.17-.43.3-.63l.65-1.21.86-.61.7-1.95.27,1.19-.03,1.23.51.81,1.18.83c-.1.22-.19.45-.25.68-.06.22-.15.43-.25.64,0,0,.75.38.78.57s.06,1.39.06,1.39c0,0-.5.47-.5.62s.3.8.34,1.05.57.56.45.95.61,1.5.61,1.5l-.87.7c.15.24.33.46.52.67.16.14.3.29.43.46l.54.32-.16.79-.13,1.13-.4.53c.25.16.47.37.62.62.14.5.19,1.02.15,1.54-.06.15-.44.38-.44.38l.47.71.04.84c.02.17-.01.34-.08.49-.11.15-.58.22-.59.47s1.12.89,1.12.89l-.16.83c.03.25.05.5.05.74-.01.2-1.89.57-1.89.57l.05.74s-.48.18-.63.22c-.79,0-1.58.05-2.36.16-.07.25-.15.49-.25.73l-2.29-.24-2.34-.98v.02Z"/>
        <path id="Path_15" data-name="Path 15" class="cls-7" d="m1471.52,552.55l-2.71,1.05-.09-1.7-2.04-.89-.42-.99,1.34-.59s-.51-1.38-.6-1.76c.03-.65.15-1.28.35-1.9l-.03-1.44.96-1.46.55-.94s-.12-.31-.15-.44-.15-.41.05-.47c.13-.04.25-.09.38-.16l-.38-.5s.01-.27.16-.35c.24-.23.42-.52.53-.83,0-.15.04-.3.09-.44l.24-.86.53-.51.12-1.33.47.72.24.79.56.44,1.08.37c-.03.15-.05.31-.05.47,0,.15-.02.29-.05.44,0,0,.66.14.73.26s.34.88.34.88c0,0-.28.37-.25.46s.41.47.49.62.56.28.55.55.8.88.8.88l-.52.57c.17.13.35.25.54.35.15.07.29.15.43.23l.49.13.05.52.15.74-.19.39c.22.06.43.17.61.31.21.29.36.61.45.96-.01.1-.25.3-.25.3l.51.39.22.53s.09.21.04.32-.4.22-.36.38,1.05.41,1.05.41l.05.56c.08.15.14.31.2.46.03.12-1.33.62-1.33.62l.2.46s-.32.18-.44.23c-.61.1-1.21.25-1.79.43,0,.17-.01.34-.04.5l-1.82.17-2.02-.3h-.01Z"/>
        <path id="Path_16" data-name="Path 16" class="cls-6" d="m1219.65,648.09l-2.94.76.41-2.25-1.71-1.64-.11-1.4,1.48-.47s-.09-1.92-.07-2.44c.22-.83.52-1.63.9-2.4l.4-1.9,1.35-1.69.81-1.1s-.02-.44-.01-.61-.02-.56.19-.6c.14-.03.28-.06.41-.11l-.22-.75s.09-.34.26-.43c.31-.27.57-.6.76-.97.05-.2.13-.38.23-.56l.49-1.07.67-.54.51-1.72.25,1.06v1.09l.42.71.95.73c-.08.19-.14.4-.19.6-.04.19-.1.38-.19.56,0,0,.59.32.63.51s.07,1.22.07,1.22c0,0-.38.42-.39.55s.25.7.29.93.47.49.38.84.51,1.32.51,1.32l-.67.63c.12.21.27.4.43.58.13.12.25.26.35.4l.44.28-.1.69-.08,1-.3.47c.2.14.37.33.5.54.12.44.17.9.15,1.35-.04.12-.33.33-.33.33l.38.62.05.74c.02.15,0,.3-.05.44-.08.13-.45.2-.46.42s.9.78.9.78l-.11.73c.03.22.05.44.05.66,0,.18-1.48.51-1.48.51l.05.66s-.37.16-.5.2c-.62,0-1.25.05-1.86.15-.04.22-.11.44-.19.65l-1.81-.2-1.87-.85h-.02Z"/>
        <path id="Path_17" data-name="Path 17" class="cls-7" d="m1257.75,587.46l-1.8.49.25-1.45-1.05-1.05-.06-.9.9-.3s-.05-1.23-.04-1.57c.14-.53.32-1.05.55-1.55l.25-1.22.83-1.09.5-.71s-.01-.28-.01-.4-.01-.36.11-.39c.09-.02.17-.04.25-.07l-.13-.48s.06-.22.16-.28c.19-.18.35-.39.47-.63.03-.13.08-.25.14-.36l.3-.69.41-.35.31-1.11.15.68v.7l.25.46.58.47c-.05.13-.09.26-.11.39-.03.12-.06.24-.11.36,0,0,.36.21.39.32s.04.79.04.79c0,0-.24.27-.24.35s.16.45.18.59.28.32.23.54.31.85.31.85l-.42.4c.07.13.16.26.26.38.08.08.15.17.22.26l.26.18-.06.44-.05.65-.19.3c.13.09.23.21.31.35.08.29.11.58.09.88-.03.08-.2.21-.2.21l.24.4.03.48c0,.09,0,.19-.03.28-.05.08-.28.13-.28.27s.55.5.55.5l-.07.47c.02.14.03.28.03.42,0,.11-.9.33-.9.33l.03.42s-.23.1-.3.13c-.38,0-.77.03-1.15.09-.03.14-.07.28-.11.42l-1.11-.12-1.15-.55h-.02Z"/>
        <path id="Path_18" data-name="Path 18" class="cls-6" d="m1369.66,656.72l-6.68,2.03.39-3.36-4.42-1.8-.6-1.97,3.33-1.14s-.69-2.73-.77-3.49,1.5-3.74,1.5-3.74l.45-2.86,2.75-2.86,1.61-1.84s-.17-.62-.2-.88-.19-.81.28-.93c.31-.08.62-.18.93-.3l-.69-1.01c.07-.29.25-.54.5-.69.62-.44,1.14-1,1.54-1.65.08-.31.21-.6.38-.88l.86-1.69,1.43-.99.76-2.64.83,1.44.27,1.56,1.16.89,2.39.76c-.13.3-.22.61-.28.93-.06.3-.15.59-.28.86,0,0,1.47.28,1.59.53s.49,1.73.49,1.73c0,0-.78.72-.76.92s.77.94.91,1.24,1.22.56,1.08,1.09,1.54,1.74,1.54,1.74l-1.41,1.11c.36.27.74.5,1.14.7.32.13.62.29.92.47l1.08.26-.07,1.03.07,1.46-.58.77c.48.12.92.33,1.32.62.38.57.62,1.22.7,1.9-.07.2-.7.59-.7.59l1.05.78.31,1.05s.15.43-.02.64-1,.44-.97.75,2.3.82,2.3.82l-.07,1.09c.13.3.23.61.3.93.03.25-3.32,1.2-3.32,1.2l.29.93s-.82.35-1.1.44c-1.45.19-2.9.46-4.32.8-.06.34-.15.67-.27.99l-4.29.29-4.58-.64-.03.02Z"/>
        <path id="Path_19" data-name="Path 19" class="cls-6" d="m1488.68,648.61l-2.91.36.39-1.29-1.72-.99-.12-.81,1.46-.23s-.1-1.11-.09-1.41c.22-.49.52-.95.87-1.36l.38-1.08,1.33-.94.8-.61c-.01-.12-.02-.24-.02-.35,0-.1-.02-.33.18-.34.14-.01.27-.03.41-.06l-.22-.44c.05-.11.14-.2.25-.24.28-.13.54-.31.75-.54,0-.07.22-.31.22-.31l.47-.6.66-.3.49-.98.25.61v.63s.43.43.43.43l.94.45c-.07.11-.13.22-.18.34-.04.11-.1.22-.18.32,0,0,.59.2.62.3s.08.71.08.71c0,0-.38.23-.38.31s.26.42.29.54.47.3.38.49.52.78.52.78l-.66.34c.13.13.27.25.43.35.12.07.24.15.35.24l.44.17-.1.4-.07.57-.29.26c.19.08.36.19.5.32.12.24.18.51.16.79-.1.08-.21.14-.33.19l.39.37.06.43s.03.18-.05.25-.45.1-.46.23.9.47.9.47l-.1.42c.03.12.05.25.06.38-.48.13-.97.22-1.46.26l.06.38s-.36.08-.49.1-1.84-.04-1.85.04c-.04.13-.11.25-.18.37l-1.8-.17-1.86-.55h0Z"/>
        <path id="Path_20" data-name="Path 20" class="cls-8" d="m1909.58,140.67c-.09-.04-.19-.06-.29-.08.34-.41.65-.84.92-1.3,2.12-3.62.9-8.28-2.72-10.4-1.17-.67-2.49-1.02-3.84-.99l.02-.05c-.5-.03-1-.01-1.5.06-3.82-5.58-12.71-6.7-19.33-3.72.67-1.95.76-4.05.24-6.04.45-3.93-2.38-7.48-6.31-7.92-.4-.04-.8-.06-1.2-.03-.93.05-1.84.27-2.7.63-.05-.02-.09-.04-.15-.04-.33-.15-.68-.3-1.01-.44.6-1.33,0-2.9-1.32-3.5-.12-.05-.24-.1-.36-.13-1.06-.28-2.16-.41-3.25-.4-.1-.35-.28-.68-.51-.96,4.84-3.98.37-12.89-6.12-11.09-1.43.37-2.8.93-4.08,1.66-.69-.07-1.39.01-2.04.23-.88.34-1.8.48-2.72.77-.36.12-.73.24-1.07.33-.89-1.01-1.94-1.87-3.11-2.54-3.72-2.09-7.76-.34-9.49,3.22-2.1-1.33-4.82-1.17-6.74.41-.09,0-.17-.02-.24-.02-.36-.04-2.05-.29-.49,0-.78-.13-1.52-.21-2.23-.29-1.18-.08-2.37.01-3.53.27-2.2.44-4.07,1.85-5.1,3.84-.57-.5-1.31-.78-2.07-.77-.07,0-.14-.04-.19-.04-.86-.19-1.75-.22-2.63-.09-.04-.22-.1-.43-.2-.63,3.08-.95,5.64-3.12,7.08-6,.51-.93.88-1.93,1.09-2.96.06-.48.15-.84.21-1.11,0,0,.01,0,.02.01-.09,1.3,0,.73.09.07.61.61,1.45.94,2.31.92,4.57,0,4.57-7.08,0-7.08-1.2-.04-2.31.61-2.87,1.66-.49-1.48-1.29-2.84-2.36-3.97-.5-.48-1.03-.93-1.59-1.35.1-.22.19-.44.25-.67.68-.87.91-2.01.61-3.07-.44-1.51-1.81-2.56-3.39-2.6-.18-.03-.37-.04-.55-.04-.09-.38-.22-.75-.39-1.1-.32-.69-1.09-1.03-1.82-.82-.12-.43-.34-.83-.64-1.16-.35-.46-.77-.87-1.24-1.19.52-1.59-.35-3.3-1.94-3.81-.03-.01-.07-.02-.1-.03-2.35-.73-4.89-1.07-7.19.12-.64.36-1.19.87-1.6,1.48-1.18-1.12-3.02-1.12-4.2,0-.15.11-.34.23-.49.36-.52.41-.88,1-.99,1.65-.19-.98-.83-1.8-1.73-2.23,0-.61-.18-1.21-.5-1.74-.37-.65-.92-1.17-1.58-1.51.28-1.31-.3-2.64-1.44-3.34.03-.95-.07-1.91-.3-2.83-.78-2.65-2.82-4.75-5.45-5.6-2.46-.76-5.14.02-6.82,1.96-.69.82-1.22,1.78-1.56,2.8-2.62-1.38-5.76-1.4-8.39-.04-.21-.06-.43-.1-.65-.13-.97.01-1.91.38-2.62,1.04-.06-.28-.16-.56-.29-.82-.85-1.36-2.47-2.03-4.03-1.65-2.58.22-4.94,1.52-6.51,3.57-.99,1.48-1.14,3.37-.4,4.99-.07.14-.11.27-.17.41-.95-.27-1.96-.05-2.72.58-.38.27-.72.58-1.04.92-.92.94-1.12,2.38-.49,3.53.12.25.29.48.5.67-1.55,1.61-2.62,3.62-3.07,5.8-.3,1.51-.14,3.07.47,4.48-.04.01-.08.03-.12.04-.53-.12-1.07-.2-1.61-.29-.19-.05-.39-.12-.57-.2-4.2-.93-8.6-.57-11.78,2.6-.86.87-1.55,1.9-2.02,3.02-1.87,2.79-1.87,6.44.01,9.23-.08.69.11,1.38.53,1.93-.75.19-1.48.44-2.2.74-1.83.98-3.02,2.85-3.14,4.92-3.48.42-5.81,3.93-6.05,7.3-.06,1.92.54,3.81,1.7,5.34-2.85-1.54-6.35-1.2-8.85.87-2.04,1.54-3.45,3.32-3.45,6.01.04,2.47,1.34,4.75,3.45,6.03,2.7,1.87,6.17,2.23,9.21.96,1.47-.52,2.81-1.33,3.96-2.38.17.11.33.21.47.32.51.3,1.05.53,1.62.69.2.44.42.85.64,1.26-2.3,1.49-4.22,3.5-5.6,5.87-1.27-.74-2.7-1.13-4.17-1.14-1.52.06-3,.51-4.29,1.3-.07.03-.14.04-.23.07-1.34-.13-2.69-.07-4.01.17-.48-1.49-2.07-2.32-3.57-1.84-.02,0-.05.02-.07.02-1.38.45-2.68,1.13-3.84,2.01-1.29-1.15-2.76-2.06-4.37-2.7-.82-1.56-2.76-2.16-4.32-1.34-.44.23-.81.56-1.1.96-.66-.09-1.33-.07-1.99.07-.65.14-1.25.43-1.76.85-1.74.41-3.34,1.27-4.65,2.49-2.3,2.1-2.99,5.42-2.85,8.52-.76.74-1.05,1.85-.74,2.87.17.43.4.84.69,1.2-.62.51-1.15,1.11-1.59,1.79-1.07-.07-2.14.01-3.19.24-1.95.52-3.7,1.57-5.07,3.05-1.79,2.08-2.86,4.68-3.05,7.41-.08.86-.03,1.72.17,2.56-1.57-.19-3.07.7-3.65,2.18-1.02.55-1.96,1.23-2.81,2.02-2.06,1.94-3.66,4.32-4.69,6.95-.97.04-1.94.22-2.86.53-5.09,1.88-8.47,6.73-8.47,12.15.08,6.48,5.41,11.67,11.89,11.58.01,0,.03,0,.04,0,3.61-.17,7.03-1.68,9.6-4.22,1.22-1.08,2.13-2.47,2.62-4.02,1.55-.02,3.08-.37,4.49-1.02.73,3.71,2.8,6.87,6.79,7.87,5,1.29,10.06-1.19,13.68-4.72,1.08,4.2,4.24,7.55,8.38,8.87,5.25,1.47,10.43-.86,14.05-4.61,1.94-1.98,3.38-4.4,4.19-7.05,4.54,3.45,11.5,3.48,16.98.99,2.92,1.77,5.92,3.47,8.91,5.23,8.22,4.8,12.93,10.87,15.71,19.97.5,1.63.91,3.29,1.24,4.96v.27c-1.24-.68-2.63-1.04-4.05-1.05-1.12-.78-2.39-1.32-3.72-1.6-.16-.4-.3-.77-.46-1.14.47-2.07-.84-4.13-2.91-4.6-.24-.05-.48-.08-.73-.09-2.7-1.99-5.88-3.21-9.21-3.54-2.29-.22-4.58.41-6.43,1.77-1.8.69-3.41,1.77-4.74,3.16-.19-.07-.39-.13-.59-.18-1.57-.13-3.13.43-4.26,1.54-1.44.03-2.85.32-4.18.86-1.14.49-2.24,1.07-3.27,1.76-5.14,2.03-9.04,6.33-10.55,11.64-.09.05-.17.11-.25.17-4.94.94-9.55,3.18-13.33,6.5-2.3,2.05-3.75,4.9-4.05,7.97-.61-.69-1.45-1.12-2.36-1.2-1.07-.2-2.17-.15-3.21.14-.14-.02-.26-.04-.4-.05-5.38-.38-9.47,3.99-11.04,8.71-1.65,4.88.25,11.03,4.95,13.56,6.42,3.45,13.17-.35,16.6-6.03.12-.19.2-.4.29-.58.4-.36.76-.76,1.07-1.19,2.65,1.95,5.77,3.14,9.04,3.45,2.38.19,4.77-.28,6.9-1.36.02.7.09,1.39.22,2.08.61,4.12,4.13,6.64,7.73,8.05,3.49,1.35,7.26.14,10.18-1.9-.2.15-.39.3-.57.45,1.92-1.21,3.68-2.66,5.22-4.33,1.64-1.92,2.94-4.1,3.83-6.45.16-.38.29-.77.39-1.17,2.04.92,4.23,1.45,6.47,1.56,1.03,1.48,2.09,2.94,3.19,4.37,4.15,5.75,8.32,11.49,11.09,18.04,1.61,5.83,1.46,11.87,1.23,18.55-.22,7.44-.25,14.88-.26,22.31-1.17,26.45-2.39,52.94-3.01,79.47-.2-.33-.42-.62-.61-.95-.06,2.52-.32,5.02-.79,7.49-.12.58-.31,1.14-.54,1.68.24,7.62.09,15.25-.44,22.85v-.05c-.08,1.17-.14,2.35-.23,3.53-.19,2.35-.36,4.74-.55,7.16-.11,1.45-.23,2.9-.36,4.36-.06.71-.15,1.43-.22,2.14-.13,1.28-.27,2.56-.43,3.83-.09.77-.22,1.52-.32,2.29-.24,1.61-.48,3.23-.8,4.82-.05,10.74-.38,21.41-.95,32.08-.4,5.18-.8,10.33-1.01,15.47-.33.16-.55.49-.57.85-1.38,18.42-4.57,43.43-21.59,53.56-2.7,1.2-5.51,2.12-8.39,2.76-.36.09-.59.44-.53.8-.2.04-.37.12-.57.16-.2.08-.1.34.09.33.22-.04.42-.09.63-.14.11.2.33.31.56.28,3.31-.27,6.57-1.02,9.67-2.23-1.14.86-2.3,1.71-3.49,2.53-.1.07-.2.12-.29.18-.03.03-.07.06-.09.09-.71.49-1.4.99-2.12,1.47-.09.05-.12.16-.07.25.04.07.12.11.2.09.48-.13.95-.29,1.43-.45,0,.75.6,1.37,1.35,1.38.04,0,.07,0,.11,0,3.76-.35,7.4-1.53,10.65-3.46.17.39.41.76.69,1.09-2.42.78-4.9,1.35-7.42,1.73-.95.14-.63,1.56.22,1.63,3.06.24,6.13.09,9.15-.43-.22.48-.01,1.06.47,1.28.36.17.79.09,1.07-.18.58-.53,1.06-1.15,1.6-1.7.3-.03.6-.05.9-.09,2.53-.53,4.94-1.48,7.15-2.82.96-.47,1.89-1.03,2.82-1.56-.54,1.29-1.08,2.58-1.68,3.87-.41.81-.08,1.8.74,2.21.26.13.55.19.85.17-.35,1.29-.73,2.58-1,3.91-.17.7.26,1.41.96,1.58.31.08.64.03.93-.12,4.23-2.72,6.71-7.18,8.67-11.7,1.98,5.28,9.46,6.12,13.73,2.58.97.51,2.1.63,3.17.36.41-.07.75-.35.93-.72,3.42,1.24,7.49.12,8.42-3.33.23.22.58.24.82.04,2.31,1.24,5.07,1.29,7.41.14.55-.3.77-.99.49-1.55-.1-.1-.19-.21-.26-.34,2.15.24,4.32.27,6.47.08,1.81.58,3.65,1.06,5.51,1.42.66.08,1.07-.75.49-1.07-.66-.39-1.34-.73-2.03-1.08.22-.06.46-.1.67-.17.68-.25.82-1.36,0-1.55-4.24-.75-8.39-1.97-12.35-3.64-2.9-1.46-5.42-3.6-7.33-6.22-.71-1.09-1.28-2.25-1.72-3.47-.67-4.61-1.38-9.21-2.15-13.78-.14-2.28-.28-4.5-.57-6.53-3.12-21.36-4.29-42.95-3.5-64.52.06-1.67.12-3.34.21-5.01-.37-3.87-.53-7.77-.47-11.66.1-7.65.74-15.44,1.09-22.72.1-1.92.19-3.81.22-5.64.03-1.73.17-3.38.35-5.01.02-.23.04-.48.07-.71.2-1.67.48-3.3.81-4.9-.27.49-.52.99-.79,1.49-.03-8.46-.28-16.93-.38-25.31-.27-15.14-.7-30.26-1.45-45.39-.65-13.54-2.09-27.44,1.6-40.7,3.18-11.36,9.07-21.76,12.25-33.1.34-.03.67-.08,1-.16,1.92-.63,3.48-2.05,4.3-3.89,3.02.51,6.12-.05,8.77-1.58.33.13.67.22,1.02.27-1.9,3.81-.35,8.44,3.46,10.34,2.35,1.17,5.12,1.07,7.38-.27,1.17-.69,2.16-1.66,2.86-2.82.39-.63.7-1.3.92-1.99,3.09,1.13,6.55.34,8.85-2.02.38-.35.7-.77.93-1.24.06.05.09.12.1.2.86,1.51,2.08,2.78,3.56,3.69,2.01,1.39,4.35,1.36,6.65.99,3.87-.88,6.7-4.22,6.92-8.19-.01-.89-.11-1.78-.3-2.64-.04-.05-.09-.1-.09-.14,1.78,0,3.52-.54,5-1.53,2.28-1.46,4.58-4.37,4.21-7.34-.03-.35-.1-.64-.16-1,1.2-2.21,1.17-4.89-.06-7.08-1.64-2.71-4.87-4.01-7.92-3.19-1.07.26-2.12.63-3.11,1.12-.05,0-.1-.05-.18-.11.36-.63.46-1.37.27-2.07-.12-.41-.28-.81-.49-1.18,2.03-1.46,3.56-3.51,4.39-5.87.07-.07.16-.14.23-.21,1.17-1.06,1.36-2.81.46-4.1-.46-2.52-2.29-4.92-4.79-5.36-.08-.03-.17-.04-.26-.05.01-.13.04-.27.07-.39.01-1.45-.77-2.79-2.04-3.48-.55-.37-1.16-.65-1.8-.83.05,0-.07-.02-.29-.12-.12-1.78-1.12-3.38-2.68-4.25-1.44-.78-3.14-.93-4.7-.42-.26-1.32-1.45-2.25-2.79-2.2-3.43,0-3.84,4.63-1.26,5.77-.73,1.04-1.35,2.15-1.84,3.32-.29.02-.58.06-.86.11-.31-1.71-1.58-3.08-3.26-3.51-.11-.12-.17-.27-.29-.38-.01-.01-.03-.02-.04-.04.61-.51,1-1.24,1.09-2.04,0-.43-.05-.86-.12-1.28.6-1.08.41-2.43-.46-3.31-1.16-1.12-3-1.12-4.16,0-.85.83-1.32,1.98-1.3,3.17-2.13-1.02-4.54-1.33-6.86-.86-1.06.19-2.07.64-2.92,1.31-.2-.32-.42-.62-.67-.9-.21-1.74-1.47-3.16-3.17-3.57-2.24-.49-4.57-.45-6.8.1-3.17.99-5.88,3.88-5.81,7.33.01,1.58.46,3.12,1.29,4.46-.62.3-1.2.69-1.7,1.17-1.73,1.43-2.96,3.39-3.5,5.57-.04-.06-.09-.12-.15-.17-2.81-3.2-9.43-2.63-11.17,1.45-.3.64-.54,1.31-.73,1.99-.44.88-.63,1.87-.53,2.85v.11c-.1,2.22.91,4.34,2.7,5.66,2.37,2.11,5.59,2.96,8.69,2.32.32-.07.64-.17.95-.3-1.21,2.27-.83,5.06.95,6.93,1.96,2.07,4.74,3.18,7.58,3.01,0,.1-.01.19,0,.29-.55-.05-1.11-.11-1.64-.13-1.52-.06-3.01.45-4.17,1.43-.15-.33-.53-.47-.86-.33-.16.07-.29.21-.35.38-.63,1.49-1.23,3-1.82,4.5l-.08.02c-2.13.6-3.79,2.26-4.4,4.38-.48,1.76-.15,3.64.9,5.13-2.16,6.11-4.66,12.09-7.49,17.92-.12-6.22-.54-12.54-.81-18.58-.23-16.52-1.4-33.04,1.55-49.45,2.03-11.29,8.4-19.6,15.98-27.1.44.1.88.17,1.32.22-.69,1.65-.85,3.47-.45,5.21.72,3.36,4.69,5.89,8.01,5.58,1.61-.12,3.18-.56,4.61-1.29,1.48-.62,2.83-2.68,3.64-3.91.34-.55.59-1.16.74-1.79,2-.07,3.9-.87,5.34-2.24,2.23-2.31,2.82-5.75,1.49-8.67.19.11.38.21.58.3,1.65,3.81,4.47,6.98,8.74,7.8,4.45.8,9.46-.4,11.62-4.84,1.25-2.66,1.61-5.65,1.03-8.53,2.07-.63,3.87-1.95,5.1-3.73.84,1.63,2.05,3.03,3.54,4.08,2.69,1.76,5.88,2.6,9.09,2.42,4.24-.27,8.25-2.02,11.33-4.94.16-.17.3-.35.43-.54.4.2.81.35,1.24.46,1.95.41,3.96.39,5.91-.04,2.7-.51,5.27-1.53,7.58-3.01,1.21-.76,2.33-1.65,3.35-2.65.6-.61,1.13-1.29,1.55-2.04.33-.61.57-1.27.72-1.95.69.68,1.43,1.31,2.22,1.88,3.48,2.35,8.13,2.04,11.73.21,1.87-1.05,3.41-2.58,4.47-4.43,1.39-2.14,1.66-4.4,1.95-6.82-.05.72-.14,1.44-.26,2.15.11-.3.18-.61.22-.93.8-4.31-1.12-8.92-5.73-10.08h0Zm-163.48,87.56s.05-.06.08-.09c.49.7,1.17,1.24,1.95,1.57-.09.09-.17.18-.26.28-1.15,1.14-2.92-.64-1.77-1.76h0Zm-21.65,3.72c.18-.03.36-.04.53-.02.07-.46.38-.84.81-1-.41,1.36.37,2.8,1.73,3.2.63.19,1.31.13,1.89-.17-1.22,2.37-4,3.47-6.51,2.58-.67-.19-1.06-.88-.9-1.55.09-1.43,1.07-2.64,2.44-3.04h0Zm124.75-119.12c0,.05-.03.1-.03.16-.04.26-.06.53-.05.8.01,1.48,1.21,2.68,2.69,2.7.09.13.18.27.28.4-1.29-.19-2.6-.19-3.89,0,.41-1.05.48-2.2.18-3.29.2-.25.39-.5.56-.77.09,0,.18,0,.27,0h0Zm-96.8-40.66c.45.07.91.05,1.35-.07-.01.03-.03.04-.04.07-.03.03-.05.06-.07.09.02-.06,0-.04-.1.08,0,0-.02,0-.02.04-.29.32-.58.69-.87,1.01-.13.15-.24.3-.35.44-.44-.46-.41-1.2.05-1.63.02-.02.04-.04.06-.05h0Zm40.14,39.74c.59-.34,1.35-.14,1.7.45.34.59.15,1.33-.43,1.69-1.06.69-2.38,1.05-3.4.05-.88-.84-.64-2.31-.32-3.33.22-.67.94-1.04,1.61-.82.62.2.99.85.85,1.49-.08.19-.15.39-.2.59l.2-.12h0Zm21.58,20.91c.13.01.26,0,.39.01-.1.1-.19.19-.28.29-.04-.1-.06-.2-.1-.3h0Zm-35.73,56.96c.56-6.38,1.17-12.75,1.83-19.11,1.33,3.51,4.82,5.74,8.56,5.46-.35.92-.21,1.96.36,2.76-2.31,1.81-4.43,3.86-6.32,6.1-1.58,1.5-3.06,3.1-4.44,4.79h0Zm-29.67-56.25c-.99-1.17-2.23-2.1-3.62-2.74.04-.93-.17-1.86-.62-2.68.06-.08.13-.15.19-.24.43-.56.76-1.19.99-1.85.32.31.66.64.96.93,2,1.72,4.51,2.73,7.14,2.9.2.01.4.01.6,0,1.74,7.7,4.48,15.2,6.4,22.89-.03-.04-.06-.09-.1-.12-2.71-2.86-5.88-5.06-9.57-5.38.28-.56.52-1.14.74-1.73,1.45-4.34-.34-8.66-3.09-11.97h0Zm.52-33.93c-.31-.07-.61-.16-.93-.2.4-.26.78-.55,1.14-.85-.12.34-.19.7-.21,1.07h0Zm-.01,13.47c.64.24.98.95.74,1.59-.17.48-.62.8-1.13.82-1.06,0-2.35-.2-2.68-1.38-.29-1.04.54-1.93,1.18-2.62,1.06-1.1,2.67.43,1.89,1.59h0Zm26.85-30.74c.19-.29.4-.56.62-.82,1.09-1.15,2.86.6,1.75,1.77-.13.14-.25.28-.36.44.17-.04.34-.06.5-.07,1.45.08,2.88.3,4.28.68.67.2,1.06.9.86,1.57-.03.09-.06.18-.11.26-.27.48-.59.94-.95,1.35-.24-.1-.5-.15-.76-.15-1.21-.02-2.22.94-2.24,2.15,0,.07,0,.13,0,.2-1.13.44-2.42.25-3.38-.5-.64-.45-1.14-1.08-1.44-1.8-.04-.01-.08-.02-.11-.02-.28-.12-.52-.33-.68-.59,1.62-.32,2.67-1.9,2.35-3.52-.06-.33-.18-.64-.35-.93v-.02Zm15.25,54.28c.9,1.47,2.27,2.61,3.88,3.22.22,1.36.91,2.6,1.95,3.5.45.36.87.68,1.28.99-.52,1.78-.61,3.66-.26,5.48.3,1.48,1.05,2.82,2.13,3.87-.45-.48-1.08-.75-1.74-.73-1.17-.03-2.18.83-2.32,1.99-1.12.47-2.1,1.2-2.89,2.12-1.43,1.66-2.22,3.78-2.23,5.97,0,0-.05,0-.05-.02-.08-.08-.16-.16-.23-.24-1.21-1.15-2.92-1.61-4.54-1.23-2.26.36-4.26,1.67-5.5,3.6,1.25-11.43,2.6-22.85,4.05-34.28,1.55-.3,2.98-1.06,4.1-2.18.73.34,1.51.59,2.3.75-1.2,2.25-1.18,4.95.06,7.18h0Zm23.7,27.08s-.07,0-.11.02c-.5.29-1.02.57-1.53.85-.33.08-.65.2-.96.34-.27-.35-.57-.68-.9-.99-.92-.79-1.9-1.5-2.94-2.12.07-1.43-.26-2.86-.96-4.11,0-.01-.02-.03-.02-.04.91.17,1.83.28,2.76.32.62.32,1.28.55,1.96.68.1.31.23.61.38.9-1.31,1.37-.77,4.22,1.7,4.22.2-.02.4-.06.59-.12.01.01.01.03.02.04h0Zm-14.57-9.84h-.01s-.01-.02-.02-.04c.02.01.02.03.03.04Zm-17.9-22.79c.2.02.4.04.59.04.07,0,.14-.02.21-.02-1.11,6.2-2.28,12.45-3.36,18.72.7-6.25,1.53-12.49,2.55-18.73h0Zm20.84-23.42c-.09.09-.19.18-.3.25.12.61-.28,1.21-.89,1.33-.09.02-.19.02-.29.02-1.02-.03-2.38-.44-2.03-1.76.23-.86,1.13-1.07,1.76-1.6,1.19-1.06,2.96.7,1.74,1.76h0Zm-2.75,10.52c.51.3.74.93.53,1.49.18.6-.15,1.24-.76,1.42-.02,0-.04.01-.06.02-.23.41-.53.79-.88,1.11-.87.61-1.84,1.08-2.86,1.38-.67.18-1.36-.22-1.54-.89-.03-.1-.04-.21-.04-.32.02-1.32.27-3.12,1.77-3.56.21-.05.42-.08.63-.09.14-.34.36-.64.66-.87.84-.38,1.82-.26,2.54.31h0Zm-55.69,54.11v-.02c.93-.54,1.69-1.33,2.18-2.28.71.15,1.43.23,2.15.24,4.35.07,8.36-2.32,11.37-5.25.82-.81,1.47-1.78,1.89-2.85,1.36,10.85,1.95,21.78,1.76,32.71-3.66-2.45-7.74-4.19-12.04-5.14-2.89-.71-5.72-1.63-8.47-2.75,3.56-4.1,4.02-10.05,1.16-14.66h0Zm15.65-45.74c.57-.75.97-1.62,1.17-2.55.22-1.38.19-2.78-.1-4.15,3.25.59,6.61.09,9.55-1.41,3.33-1.87,5.58-5.2,6.05-8.99.39.24.8.4,1.2.62-1.74,6.8-3.59,13.57-5.21,20.39-.96,3.52-1.57,7.12-1.82,10.76-.03.82-.43,4.14-.44,5.95-2.76-7.22-6.91-13.75-10.4-20.62h0Zm28.19-42.25c-.44,0-.86-.22-1.07-.61-.58-1.15-1.27-2.2-.04-3.24.11-.07.23-.13.35-.17.29.78.69,1.52,1.21,2.18.44.53,1,.94,1.63,1.2-.58.47-1.32.7-2.07.64h0Zm-51.18,15.62c.35.05.7-.05.97-.27,1.22-1.04,2.99.73,1.75,1.76-.74.67-1.71,1.03-2.71,1-.69-.03-1.22-.61-1.19-1.3.03-.65.55-1.17,1.2-1.19h0Zm-39.73,68.63c.74-.41,1.44-.9,2.06-1.46.19-.2.37-.42.53-.65-.05.35-.05.7-.02,1.05-.08.23-.21.43-.39.6-.62.49-1.43.66-2.19.46h0Zm149.28-31.07c.29-.03.6-.1.98-.15.05.32.11.63.2.95-.11.04-.21.08-.31.13-.33.07-.66.19-.96.35.07-.42.1-.85.09-1.27h0Zm-30.33-25.02c-.28.38-.49.8-.65,1.25-1.6-.38-3.26-.45-4.88-.23.12-.09.21-.2.28-.32,1.78.35,3.62.1,5.25-.7Zm1.79-31.21c-.15-.12-.31-.23-.46-.34,0,0,0-.01.01-.02.12.1.25.2.46.37h0Zm-3.47-6.66h0s.04,0,0,0h0Zm-86.19,29.3c1.11-2.32,3.93-1.1,5.49-.07.15.03.15.14.24.2,1.29-.25,2.62-.15,3.86.29.64.2,1.03.86.9,1.52-.73,2.57-1.95,6.47-5.15,6.82-2,.21-3.69-1.58-4.57-3.19-.87-1.6-1.62-3.83-.77-5.57h0Zm-40.68,69.05c.03-.69.6-1.22,1.29-1.2.55.02,1.02.4,1.16.93.9.35,1.39,1.73.27,2.18-1.73.71-2.72-.16-2.72-1.91h0Zm74.68,67.9c.24-.08.44-.22.67-.32-.15,10.15-.29,20.31-.41,30.46-3.97-4.53-8.53-8.53-12.9-12.72,1.92-.29,3.78-.93,5.46-1.9,5.78-3.42,7.89-9.47,7.18-15.53h0Zm-50.75-2.72c-.13-.07-.24-.17-.32-.3.03-.12.05-.24.06-.36.85-.4,1.46-1.17,1.65-2.08.29.08.59.12.9.13.52-.02,1.03-.07,1.54-.14.01.04.03.08.04.12.03-.05.09-.1.15-.1.67-.17,1.36.24,1.53.91.16.65-.21,1.31-.85,1.51-.81.2-1.6.66-2.42.78-.79.06-1.57-.11-2.26-.49h0Zm11.32,5.54c-.46.14-.85.59-1.49.34-.48-.17-.88-.5-1.15-.93-.74-.99.36-2.5,1.05-3.2,1.01-1.03,2.57.39,1.94,1.49.58.42.72,1.23.3,1.81-.16.23-.4.4-.66.48h0Zm80.26-15.03c.24.97,1.1,1.66,2.1,1.68,0,.04,0,.09,0,.13-.62.03-1.23-.16-1.71-.55-.31-.34-.45-.81-.39-1.27h0Zm4.49-1.6c-.27-.92-1.1-1.56-2.06-1.58.14-.1.26-.18.4-.3.38-.42,1-.5,1.47-.2.2-.12.42-.18.66-.2.35-.04.7.09.93.36.45-.09.83-.18,1.26-.3.66-.16,1.32.23,1.49.89.06.23.05.48-.03.71-.04.09-.06.18-.1.27h-.48c-.36-.09-.73-.15-1.09-.17-.85-.1-1.7.08-2.44.52h0Zm15.44,24.12c.58.36.77,1.12.41,1.7-.35.58-1.1.77-1.68.43-1.28-.59-1.84-2.11-1.25-3.39.25-.55.7-1,1.25-1.25.6-.35,1.37-.15,1.72.45.35.6.15,1.37-.45,1.72-.39.24-.39.09,0,.35h0Zm10.74-26.72c.92.85.27,2.63-1.07,2.17-.6-.22-1.14-.56-1.61-.99.44-.6.67-1.34.65-2.08.05-.02.1-.04.16-.07.57-.28,1.11-.64,1.58-1.07.61.23.91.92.67,1.52-.08.2-.21.38-.38.51h0Zm-34.24-2.99c.06-.05.13-.1.2-.14.9.23,1.85.15,2.7-.24.1-.05.19-.1.27-.15.13.18.22.38.26.6.14.13.26.28.36.44.2.38.25.83.12,1.25-.53,1.44-1.36,1.55-2.74,1.55-1.05-.11-1.84-1.01-1.82-2.06.04-.49.27-.94.66-1.24h0Zm-17.16,54.57c-.44.95-.88,1.89-1.31,2.83,0-.12-.01-.24-.01-.36.44-.82.88-1.64,1.32-2.47h0Zm66.44-130.35c-.16.12-.33.22-.51.3-.04.03-.07.05-.11.08-.05-1.08-.97-1.92-2.05-1.89-.69-.02-1.34.33-1.71.91-.1-.05-.2-.1-.26-.13-.33-.14-.66-.3-.97-.49-.06-.04-.12-.07-.19-.1-.21-.22-.59-.68-.89-1,.95-.01,1.82-.54,2.26-1.38.17-.1.34-.2.5-.32.21,1.67,1.74,2.85,3.41,2.64.11-.01.22-.03.33-.06.41-.08.81-.23,1.18-.44-.41.58-.75,1.21-.99,1.88h0Zm14.18-2.8c-.02.44.04.89.18,1.31-.27-.37-.54-.73-.82-1.04.21-.09.43-.18.64-.28h0Zm8.03,12.77c-.29-.2-.61-.42-.92-.63-.47-.34-.97-.66-1.43-.99-.07-.06-.14-.11-.23-.15,1.78,1.34,1.64,1.24-.36-.27-.71-.4-1.47-.7-2.26-.9.23-2.57-.42-5.14-1.84-7.29.58.57,1.36.89,2.17.87.17-.02.33-.05.49-.1.62,1.82,2.03,3.27,3.84,3.92.4.5.88.93,1.43,1.27.67.36,1.4.6,2.16.7-1.11,1.1-2.13,2.3-3.03,3.58h0Zm3.33-21.61s-.03.07-.05.1c-1.02-.12-2.05-.11-3.06.04.06-.29.06-.62.11-.9.26-.01.52-.04.77-.09.87-.17,1.72-.43,2.53-.79-.13.54-.23,1.08-.29,1.63h0Z"/>
        <path id="Path_21" data-name="Path 21" class="cls-8" d="m1918.65,379.44c-.36.5-.8.95-1.29,1.33.02-.32-.07-.64-.26-.89h0s-.06-.05-.09-.08c-.26-.1-.52-.23-.75-.4-.05-.03-.1-.08-.15-.11-.25-.19-.49-.4-.72-.62-.35-.36-.68-.74-.98-1.15h0c-.7-.97-1.33-1.98-1.89-3.03-.01-.02-.02-.04-.03-.07-.29-.54-.58-1.11-.86-1.7-.03-.07-.06-.14-.1-.21-.27-.57-.54-1.16-.81-1.74-.01-.02-.02-.04-.03-.07-.24-.54-.47-1.08-.7-1.62-.06-.15-.13-.3-.19-.46-.21-.5-.42-.99-.61-1.48-.08-.2-.16-.4-.24-.59-.19-.48-.39-.96-.56-1.41-.75-1.9-1.44-3.83-2.1-5.82,1.53,1.52,3.14,2.96,4.82,4.3.2.18.33-.55.16-.84-1.92-2.97-4.17-4.07-6.02-7.33-.08-.15-.17-.27-.25-.42-.05-.11-.11-.23-.17-.34-.25-.86-.5-1.72-.75-2.59,3.21,2.07,7.33,2.11,10.57.09.46-.26.4-2.03-.06-2.07-.28-.02-.56-.05-.84-.08.09-.03.18-.07.26-.12.07-.04.06-.32-.01-.33-.19-.03-.36-.08-.54-.12-.03-.04-.06-.11-.1-.12-3.31-1.2-6.29-4.8-8.98-9.75-.29-.53-.57-1.1-.86-1.67,1.36.59,2.87.71,4.3.32,1.62-.21,3.09-1.07,4.07-2.39.99-.44,1.84-1.14,2.46-2.03.06-.09.04-.32-.02-.33-.74-.1-1.47-.14-2.19-.17,0-.43-.09-.89-.29-.89-2.06.03-3.91-1.03-5.57-2.88-.36-.4-.72-.84-1.06-1.32,0-.01-.01-.02-.02-.03-.35-.48-.69-.99-1.02-1.54-.34-.57-.68-1.16-1-1.78,0-.01-.01-.02-.01-.03-.62-1.21-1.23-2.54-1.79-3.95-.05-.12-.1-.24-.15-.36-.27-.67-.53-1.36-.78-2.08,2.45,3.47,4.85,5.26,7.69,3.21.23-.17.16-1.02-.07-.91-1.88.8-3.94-1.47-5.65-4.46.95.48,2.04.62,3.08.39.31-.07.35-1.18.03-1.28-.34-.1-.67-.24-.99-.41-.16-.08-.31-.18-.46-.28-.16-.1-.31-.2-.47-.32-.2-.15-.4-.32-.6-.5-.08-.08-.17-.16-.25-.24-.24-.23-.47-.47-.7-.73l-.06-.08c-.47-.56-.9-1.16-1.28-1.79h0c-1.13-1.89-2.03-3.9-2.69-5.99-.17-.57-.34-1.12-.51-1.66-.19-.66-.35-1.34-.51-2.02,1.22,3.11,3.24,5.84,5.86,7.92.36.26.51-1,.19-1.39-2-2.28-3.74-5.95-5.14-10.23,1.78,2.16,3.72,3.27,5.88,3.32.04,0,.07-.03.1-.08,0-.01.01-.02.01-.03.06-.14.08-.29.07-.45h0c-.01-.23-.06-.42-.18-.45-.18-.03-.35-.09-.51-.16-.09-.04-.19-.09-.28-.15s-.18-.09-.27-.15c-.12-.08-.24-.17-.35-.26-.05-.04-.1-.08-.16-.12-.13-.11-.26-.23-.39-.36-.03-.03-.07-.07-.11-.11-.14-.15-.27-.3-.42-.47-.02-.03-.05-.06-.07-.09-.15-.18-.3-.37-.44-.57-.01-.02-.02-.03-.03-.05-.31-.43-.62-.92-.93-1.43-1.53-2.81-2.82-5.75-3.84-8.78.54,1.07,1.36,1.97,2.39,2.59.1.04.16-.34.05-.41-4.94-3.08-5.89-20.08-6.88-30.23-.02-.2-.06-.39-.13-.57,0-.01-.01-.03-.02-.04-.04-.11-.11-.22-.2-.3,0,0,0,0,0-.01-.01,0-.01,0-.02-.01-.04-.04-.1-.07-.16-.08-.07-.01-.14,0-.19.05-.01-.48-.02-.95-.05-1.43,0-.12-.02-.25-.05-.37,0-.02-.01-.02-.01-.03-.17-.68-.65-.5-.77.31-3.14,20.2-8.01,40.02-16.92,44.42-.01-.01-.01-.03-.02-.03-.22.11-.44.26-.67.35-.12.04-.12.42-.04.59,1.82,3.83,5.02,1.23,7.7-2.53-.4.84-.8,1.66-1.24,2.43-1.49,2.59-3.29,6.45-5.13,7.07-.02,0-.04.01-.06.01s-.02.03-.03.04h0s-.05.06-.07.1c0,.02,0,.03-.01.04-.05.18-.04.47.06.55.23.2.47.39.73.55h.01c.21.15.43.28.66.39.09.04.2.08.29.12.16.07.31.14.48.2.11.04.22.07.33.1.16.05.32.1.49.13.11.03.23.05.34.06.17.03.34.05.51.07.11.01.23.02.34.02.19,0,.36,0,.55,0,.11,0,.22-.01.33-.02.21-.02.41-.05.61-.09.09-.02.19-.03.27-.05.3-.07.6-.16.89-.28-.77,3.03-1.97,5.93-3.56,8.62-.46.72-.91,1.43-1.37,2.14-.01.02-.02.04-.04.06-.47.72-.95,1.41-1.42,2.08-.27.38-.55.75-.83,1.1-.03.05-.07.09-.11.15-.24.3-.49.59-.73.88-.06.08-.14.16-.2.23-.23.26-.46.48-.69.72-.08.08-.16.16-.24.24-.29.28-.6.54-.93.79-.46.03-.89.06-1.27.11-.16.02-.2.46-.09.7.1.21.22.4.32.59-.01.2,0,.4.05.59h0c.02.08.05.15.08.21.01.02.01.04.02.05.03.05.09.08.16.07.09-.01.18-.04.27-.07.17.2.35.39.54.56.06.05.13.09.2.15.12.1.25.2.39.28.09.05.17.1.26.14.11.06.23.12.34.17.11.04.22.08.33.11s.2.07.3.09c.13.03.26.05.4.07.08.01.17.03.25.03.16.02.32.02.48.02h.18c.19,0,.38-.02.57-.04.03,0,.05,0,.07-.01.31-.04.62-.1.92-.17-.6,1.26-1.37,2.43-2.31,3.47-.74.31-1.56.35-2.32.12-.09-.03-.16.31-.09.48.02.05.05.09.07.15-.1-.03-.13.35-.05.49.2.45.53.84.94,1.11.1.14.21.27.32.4,0,0,.01.01.01.02.35.43.8.78,1.31.99,0,0,0,0,.01,0,.16.06.33.1.5.13-1.75,1.94-3.73,3.15-5.54,3.26-.23-.03-.45-.09-.67-.17-.25-.2-.49-.4-.74-.62-.44-.42-.68.96-.45,1.76,1.07,3.87,3.24,5.7,5.3,6.56.28.11.55.21.82.3-.26.72-.53,1.44-.82,2.12-.19.44-.4.9-.62,1.37-.09.2-.2.4-.3.59-.13.26-.26.52-.4.78-.15.27-.3.55-.45.83-.09.16-.18.32-.27.48-1.13,2.01-2.47,3.9-4.01,5.62h0c-.26.29-.52.55-.78.79-.28.26-.58.51-.89.74-1.22.06-2.43-.22-3.5-.8-.09-.04-.23.21-.16.47.17.65.4,1.28.67,1.9.02.05.04.11.06.16h0c.18.4.39.77.62,1.13l.14.2c.2.29.43.56.68.8v.02c.24.22.49.4.76.57.06.03.12.07.18.1.25.14.51.25.78.33-.98.48-1.97.91-2.96,1.32-.17.07-.11.61.02.67,1.89.8,4.04.73,5.87-.2-.58.97-1.15,1.84-1.66,2.61-.27.41-.55.79-.84,1.14-.02.03-.05.05-.07.09-.26.32-.53.61-.8.88-.01.02-.03.03-.05.04-.33.32-.69.62-1.06.89-.02.02-.05.04-.08.06-.36.25-.74.47-1.14.65l-.04.02c-.33.15-.68.27-1.03.36-.08.02-.17.04-.25.06-.36.08-.72.14-1.09.16-.48-.24-.95-.48-1.43-.69-.11-.04-.16.34-.1.53.01.04.03.08.05.12-.1.16-.11.35-.03.52.19.36.41.71.66,1.04.14.32.29.58.44.86,0,0,0,0,0,.01.76,1.69,1.99,3.12,3.54,4.14.01,0,.02.01.03.02.3.18.62.33.95.46.04.01.08.03.12.03.29.11.59.2.9.26.09.02.19.02.28.03.25.05.51.08.76.09.36.01.72,0,1.07-.03-.26.22-.54.42-.83.6-.25.15-.51.29-.77.41l-.06.03c-.66,0-1.32.05-1.97.16-.1.02-.18.12-.24.28-.46-.12-.92-.27-1.36-.44-.33-.13-.4,1.01-.19,1.43,4.36,8.71,11.47,4.76,16.85.32-.17,1.14-.36,2.27-.55,3.39-.18,1.05-.33,2.11-.52,3.15-.35,1.91-.72,3.82-1.13,5.73-.01.08-.02.15,0,.23,0,.01,0,.02,0,.02.02.11.06.19.1.17.02,0,.04-.02.06-.07.2-.46.4-.9.6-1.34.16-.32.31-.66.47-1-.16.48-.31.97-.49,1.42-.07.21.03.52.12.34,2.43-5.1,4.76-9.53,6.62-15.89.24,3.29.77,6.55,1.56,9.75.06.24.22.04.16-.21-.43-2-.73-4.02-.9-6.05.22.85.44,1.67.67,2.42.4,1.37.86,2.62,1.32,3.83-.32,12.91-.97,26.46-.97,26.46,4.48,4.84,6.45-1.15,6.45-1.15-.2-6.15-.23-18.72-.2-28.51.73,2.19,1.52,4.25,2.25,6.26.07.18.18-.08.11-.27-.76-2.33-1.48-4.89-2.09-7.54.88,2.09,1.96,4.09,3.22,5.98.28.41.59.8.92,1.17.15.18.3.35.46.52,0,0,.01.01.01.02.02.02.04.03.06.05.85.9,1.81,1.69,2.88,2.33.06.04.13.09.2.12.27.16.55.3.82.45.11.06.23.11.34.17.25.12.51.24.76.35.15.07.3.12.45.19.23.09.46.19.7.28s.44.16.66.25c.53.2,1.05.39,1.58.59.04.02.09.01.14-.02.01-.01.03-.02.04-.03.03-.03.05-.06.07-.09.01-.02.02-.04.03-.07.02-.06.04-.13.06-.19,0-.02.01-.03.01-.04.02-.09.03-.19.03-.28v-.42c0-.08-.01-.17-.03-.25,0-.02,0-.04-.01-.06h0s-.01-.04-.02-.07c-.02-.15-.09-.28-.18-.4-.36-.36-.74-.68-1.1-.99-.23-.2-.45-.39-.67-.57-.33-.41-.67-.84-.99-1.32,0-.08-.04-.16-.1-.22-.06-.05-.12-.15-.19-.21-.66-1.04-1.22-2.13-1.68-3.27-.04-.11-.09-.23-.14-.36,3.38,5.56,7.56,8.56,11.51,7.77h.02c.35-.07.68-.17,1.01-.29.03,0,.06-.02.09-.03.33-.13.65-.28.96-.46.04-.03.08-.05.13-.08.31-.19.61-.39.9-.62.05-.04.1-.09.16-.12.3-.24.59-.51.86-.78.05-.05.11-.12.17-.17.28-.29.55-.6.82-.95.01-.02.03-.03.04-.05.25-.34.5-.65.75-1.02.2-.3.1-1.18-.14-1-.22.15-.45.29-.69.42-.03-.03-.06-.07-.1-.08-.28-.1-.55-.22-.81-.35h0c-2.39-1.12-4.71-3.4-6.69-6.93.52.49,1.05.97,1.58,1.46.25.24.36-.72.13-.99-1.47-1.59-2.74-3.36-3.78-5.25,1.27,1.12,2.78,1.94,4.41,2.4,2.42.55,6.73,1.24,8.36-4.43.16-.55-.11-1.29-.34-.97v-.04Z"/>
      </g>
    </g>
  </g>
</svg>