<?xml version="1.0" encoding="UTF-8"?>
<svg id="Layer_2" data-name="Layer 2" xmlns="http://www.w3.org/2000/svg" xmlns:xlink="http://www.w3.org/1999/xlink" viewBox="0 0 600.78 731.66">
  <defs>
    <style>
      .cls-1 {
        clip-path: url(#clippath);
      }

      .cls-2 {
        fill: none;
      }

      .cls-2, .cls-3, .cls-4, .cls-5, .cls-6, .cls-7, .cls-8, .cls-9, .cls-10, .cls-11, .cls-12, .cls-13, .cls-14, .cls-15, .cls-16, .cls-17, .cls-18, .cls-19, .cls-20, .cls-21, .cls-22, .cls-23, .cls-24, .cls-25, .cls-26, .cls-27, .cls-28, .cls-29, .cls-30, .cls-31, .cls-32, .cls-33, .cls-34, .cls-35, .cls-36, .cls-37, .cls-38, .cls-39, .cls-40, .cls-41, .cls-42, .cls-43, .cls-44, .cls-45, .cls-46, .cls-47, .cls-48, .cls-49, .cls-50, .cls-51, .cls-52, .cls-53, .cls-54, .cls-55, .cls-56, .cls-57, .cls-58, .cls-59, .cls-60, .cls-61, .cls-62, .cls-63, .cls-64, .cls-65, .cls-66, .cls-67, .cls-68, .cls-69, .cls-70, .cls-71, .cls-72, .cls-73, .cls-74, .cls-75, .cls-76, .cls-77, .cls-78, .cls-79, .cls-80, .cls-81, .cls-82, .cls-83, .cls-84, .cls-85, .cls-86, .cls-87, .cls-88 {
        stroke-width: 0px;
      }

      .cls-89 {
        mask: url(#mask);
      }

      .cls-3 {
        fill: url(#linear-gradient);
      }

      .cls-3, .cls-4, .cls-5, .cls-6, .cls-7, .cls-8, .cls-9, .cls-10, .cls-11, .cls-12, .cls-13, .cls-14, .cls-15, .cls-16, .cls-17, .cls-18, .cls-19, .cls-20, .cls-21, .cls-22, .cls-23, .cls-24, .cls-25, .cls-26, .cls-27, .cls-28, .cls-29, .cls-30, .cls-31, .cls-32, .cls-33, .cls-34, .cls-35, .cls-36, .cls-37, .cls-38, .cls-39, .cls-40, .cls-41, .cls-42, .cls-43, .cls-44, .cls-45, .cls-46, .cls-47, .cls-48, .cls-49, .cls-50, .cls-51, .cls-52, .cls-53, .cls-54, .cls-55, .cls-56, .cls-57, .cls-58, .cls-59, .cls-60, .cls-61, .cls-62, .cls-63, .cls-64, .cls-65, .cls-66, .cls-67, .cls-68, .cls-69, .cls-70, .cls-71, .cls-72, .cls-73, .cls-74, .cls-75, .cls-76, .cls-77, .cls-78, .cls-79, .cls-80, .cls-81, .cls-82, .cls-83, .cls-84, .cls-85, .cls-86, .cls-88 {
        fill-rule: evenodd;
      }

      .cls-90 {
        clip-path: url(#clippath-1);
      }

      .cls-91 {
        clip-path: url(#clippath-4);
      }

      .cls-92 {
        clip-path: url(#clippath-3);
      }

      .cls-93 {
        clip-path: url(#clippath-2);
      }

      .cls-94 {
        clip-path: url(#clippath-7);
      }

      .cls-95 {
        clip-path: url(#clippath-8);
      }

      .cls-96 {
        clip-path: url(#clippath-6);
      }

      .cls-97 {
        clip-path: url(#clippath-5);
      }

      .cls-98 {
        clip-path: url(#clippath-9);
      }

      .cls-99 {
        clip-path: url(#clippath-14);
      }

      .cls-100 {
        clip-path: url(#clippath-13);
      }

      .cls-101 {
        clip-path: url(#clippath-12);
      }

      .cls-102 {
        clip-path: url(#clippath-10);
      }

      .cls-103 {
        clip-path: url(#clippath-15);
      }

      .cls-104 {
        clip-path: url(#clippath-17);
      }

      .cls-105 {
        clip-path: url(#clippath-16);
      }

      .cls-106 {
        clip-path: url(#clippath-11);
      }

      .cls-4 {
        fill: url(#radial-gradient);
      }

      .cls-5 {
        fill: url(#linear-gradient-9);
      }

      .cls-6 {
        fill: url(#linear-gradient-8);
      }

      .cls-7 {
        fill: url(#linear-gradient-3);
      }

      .cls-8 {
        fill: url(#linear-gradient-2);
      }

      .cls-9 {
        fill: url(#linear-gradient-4);
      }

      .cls-10 {
        fill: url(#linear-gradient-5);
      }

      .cls-11 {
        fill: url(#linear-gradient-7);
      }

      .cls-12 {
        fill: url(#linear-gradient-6);
      }

      .cls-13 {
        fill: url(#linear-gradient-14);
      }

      .cls-14 {
        fill: url(#linear-gradient-11);
      }

      .cls-15 {
        fill: url(#linear-gradient-13);
      }

      .cls-16 {
        fill: url(#linear-gradient-10);
      }

      .cls-17 {
        fill: url(#linear-gradient-12);
      }

      .cls-18 {
        fill: url(#linear-gradient-15);
      }

      .cls-19 {
        fill: url(#linear-gradient-16);
      }

      .cls-20 {
        fill: url(#linear-gradient-17);
      }

      .cls-21 {
        fill: url(#linear-gradient-19);
      }

      .cls-22 {
        fill: url(#linear-gradient-23);
      }

      .cls-23 {
        fill: url(#linear-gradient-22);
      }

      .cls-24 {
        fill: url(#linear-gradient-18);
      }

      .cls-25 {
        fill: url(#linear-gradient-20);
      }

      .cls-26 {
        fill: url(#linear-gradient-21);
      }

      .cls-27 {
        fill: url(#linear-gradient-24);
      }

      .cls-28 {
        fill: #362815;
      }

      .cls-29 {
        fill: #422919;
      }

      .cls-30 {
        fill: #40555e;
      }

      .cls-31 {
        fill: #402615;
      }

      .cls-32 {
        fill: #301d10;
      }

      .cls-33 {
        fill: #635035;
      }

      .cls-34 {
        fill: #292727;
      }

      .cls-35 {
        fill: #594730;
      }

      .cls-36 {
        fill: #2b1f10;
      }

      .cls-37 {
        fill: #573e25;
      }

      .cls-38 {
        fill: #3b301e;
      }

      .cls-39 {
        fill: #7d1f0a;
      }

      .cls-40 {
        fill: #523623;
      }

      .cls-41 {
        fill: #4f311e;
      }

      .cls-42 {
        fill: #4f990a;
      }

      .cls-43 {
        fill: #5e2d11;
      }

      .cls-44 {
        fill: #53280f;
      }

      .cls-45 {
        fill: #63a12a;
      }

      .cls-46 {
        fill: #4d391e;
      }

      .cls-47 {
        fill: #7a6342;
      }

      .cls-48 {
        fill: #763a15;
      }

      .cls-49 {
        fill: #458709;
      }

      .cls-50 {
        fill: #54442d;
      }

      .cls-51 {
        fill: #d9983c;
      }

      .cls-52 {
        fill: #d9c72e;
      }

      .cls-53 {
        fill: #c7a46b;
      }

      .cls-54 {
        fill: #ad7e37;
      }

      .cls-55 {
        fill: #d4b724;
      }

      .cls-56 {
        fill: #d43b1a;
      }

      .cls-57 {
        fill: #cc6d00;
      }

      .cls-58 {
        fill: #deb37c;
      }

      .cls-59 {
        fill: #ffc26b;
      }

      .cls-60 {
        fill: #e3ac4b;
      }

      .cls-61 {
        fill: #e6d43d;
      }

      .cls-62 {
        fill: #e6be82;
      }

      .cls-63 {
        fill: #e8c190;
      }

      .cls-64 {
        fill: #fff0d6;
      }

      .cls-65 {
        fill: #ffe2b8;
      }

      .cls-66 {
        fill: #ebc592;
      }

      .cls-67 {
        fill: #fff5f5;
      }

      .cls-68 {
        fill: #fff5e6;
      }

      .cls-69 {
        fill: #ffef69;
      }

      .cls-70 {
        fill: #9a5210;
      }

      .cls-71 {
        fill: #940;
      }

      .cls-72 {
        fill: #6b4b34;
      }

      .cls-73 {
        fill: #996b2f;
      }

      .cls-74 {
        fill: #c43717;
      }

      .cls-75 {
        fill: #b89e1f;
      }

      .cls-76 {
        fill: #b56d17;
      }

      .cls-77 {
        fill: #8c5418;
      }

      .cls-78 {
        fill: #b67f38;
      }

      .cls-79 {
        fill: #9e6a1b;
      }

      .cls-80 {
        fill: #a3280d;
      }

      .cls-81 {
        fill: #b58b57;
      }

      .cls-82 {
        fill: #855d40;
      }

      .cls-83 {
        fill: #87470e;
      }

      .cls-84 {
        fill: #ba9e76;
      }

      .cls-85 {
        fill: #8f5b59;
      }

      .cls-86 {
        fill: #f2e0c7;
      }

      .cls-107 {
        mask: url(#mask-3);
      }

      .cls-108 {
        mask: url(#mask-2);
      }

      .cls-109 {
        mask: url(#mask-5);
      }

      .cls-110 {
        mask: url(#mask-4);
      }

      .cls-111 {
        mask: url(#mask-1);
      }
    </style>
    <clipPath id="clippath">
      <rect class="cls-2" x="159.61" y="42.94" width="27.09" height="58.85" transform="translate(-.7 1.69) rotate(-.56)"/>
    </clipPath>
    <mask id="mask" x="159.32" y="42.81" width="80.72" height="637.58" maskUnits="userSpaceOnUse">
      <g id="mask24">
        <g id="g26">
          <g class="cls-1">
            <g id="g28">
              <path id="path30" class="cls-87" d="m159.32,43.07l27.09-.26.57,58.84-27.09.26s-.57-58.84-.57-58.84Z"/>
            </g>
          </g>
        </g>
      </g>
    </mask>
    <clipPath id="clippath-1">
      <rect class="cls-2" x="205.82" y="606.67" width="33.87" height="73.56" transform="translate(-6.27 2.2) rotate(-.56)"/>
    </clipPath>
    <clipPath id="clippath-2">
      <rect class="cls-2" x="205.82" y="606.67" width="33.87" height="73.56" transform="translate(-6.27 2.2) rotate(-.56)"/>
    </clipPath>
    <linearGradient id="linear-gradient" x1="7844.06" y1="20537.37" x2="8350.02" y2="20537.37" gradientTransform="translate(11217.46 4317.69) rotate(130.17) scale(.54) skewX(-1.24)" gradientUnits="userSpaceOnUse">
      <stop offset="0" stop-color="#ed421c"/>
      <stop offset="1" stop-color="#9e2c13"/>
    </linearGradient>
    <clipPath id="clippath-3">
      <rect class="cls-2" x="9.97" y="296.29" width="193.03" height="117.69" transform="translate(-3.46 1.06) rotate(-.56)"/>
    </clipPath>
    <mask id="mask-1" x="9.4" y="216.93" width="244.49" height="198" maskUnits="userSpaceOnUse">
      <g id="mask156">
        <g id="g158">
          <g class="cls-92">
            <g id="g160">
              <path id="path162" class="cls-87" d="m9.4,297.24l193.02-1.88,1.15,117.69-193.02,1.88-1.15-117.69Z"/>
            </g>
          </g>
        </g>
      </g>
    </mask>
    <clipPath id="clippath-4">
      <rect class="cls-2" x="11.89" y="218.1" width="241.29" height="147.12" transform="translate(-2.84 1.31) rotate(-.56)"/>
    </clipPath>
    <clipPath id="clippath-5">
      <rect class="cls-2" x="11.89" y="218.1" width="241.29" height="147.12" transform="translate(-2.84 1.31) rotate(-.56)"/>
    </clipPath>
    <linearGradient id="linear-gradient-2" x1="7986.2" y1="20729.5" x2="8017.38" y2="20729.5" gradientTransform="translate(11217.63 4314.36) rotate(130.14) scale(.54) skewX(-1.24)" gradientUnits="userSpaceOnUse">
      <stop offset="0" stop-color="#ede7dc"/>
      <stop offset="1" stop-color="#b8aa91"/>
    </linearGradient>
    <linearGradient id="linear-gradient-3" x1="8036.36" y1="20720.79" x2="8072" y2="20720.79" gradientTransform="translate(11218.18 4304.58) rotate(130.05) scale(.54) skewX(-1.24)" xlink:href="#linear-gradient-2"/>
    <linearGradient id="linear-gradient-4" x1="8026.73" y1="20673.35" x2="8066.19" y2="20673.35" gradientTransform="translate(11218.08 4318.78) rotate(130.18) scale(.54) skewX(-1.24)" xlink:href="#linear-gradient-2"/>
    <linearGradient id="linear-gradient-5" x1="7107.03" y1="20703.1" x2="7140.76" y2="20703.1" gradientTransform="translate(11191.06 3770.74) rotate(125.23) scale(.54) skewX(-1.19)" xlink:href="#linear-gradient-2"/>
    <linearGradient id="linear-gradient-6" x1="7082.12" y1="20659.76" x2="7123.49" y2="20659.76" gradientTransform="translate(11190.66 3765.63) rotate(125.18) scale(.54) skewX(-1.19)" xlink:href="#linear-gradient-2"/>
    <linearGradient id="linear-gradient-7" x1="7215.43" y1="20694.71" x2="7247.89" y2="20694.71" gradientTransform="translate(11193.13 3793.11) rotate(125.43) scale(.54) skewX(-1.19)" xlink:href="#linear-gradient-2"/>
    <linearGradient id="linear-gradient-8" x1="7043.8" y1="20608.68" x2="7086.44" y2="20608.68" gradientTransform="translate(11191.78 3781.77) rotate(125.33) scale(.54) skewX(-1.19)" xlink:href="#linear-gradient-2"/>
    <linearGradient id="linear-gradient-9" x1="6899.51" y1="20691.21" x2="6924.33" y2="20691.21" gradientTransform="translate(11192.37 3782.97) rotate(125.34) scale(.54) skewX(-1.19)" xlink:href="#linear-gradient-2"/>
    <linearGradient id="linear-gradient-10" x1="6913.83" y1="20672.92" x2="6941.83" y2="20672.92" gradientTransform="translate(11191.56 3773.8) rotate(125.25) scale(.54) skewX(-1.19)" xlink:href="#linear-gradient-2"/>
    <linearGradient id="linear-gradient-11" x1="6805.5" y1="20617.19" x2="6823.32" y2="20617.19" gradientTransform="translate(11189.82 3756.5) rotate(125.1) scale(.54) skewX(-1.19)" xlink:href="#linear-gradient-2"/>
    <linearGradient id="linear-gradient-12" x1="6914.41" y1="20623.36" x2="6950.68" y2="20623.36" gradientTransform="translate(11191.53 3774.32) rotate(125.26) scale(.54) skewX(-1.19)" xlink:href="#linear-gradient-2"/>
    <linearGradient id="linear-gradient-13" x1="6832.17" y1="20555.09" x2="6856.99" y2="20555.09" gradientTransform="translate(11191.43 3775.9) rotate(125.28) scale(.54) skewX(-1.19)" xlink:href="#linear-gradient-2"/>
    <linearGradient id="linear-gradient-14" x1="6732.9" y1="20480.07" x2="6750.08" y2="20480.07" gradientTransform="translate(11188.52 3744.2) rotate(124.99) scale(.54) skewX(-1.19)" xlink:href="#linear-gradient-2"/>
    <clipPath id="clippath-6">
      <rect class="cls-2" x="85.36" y="53.55" width="128.69" height="90" transform="translate(-.95 1.47) rotate(-.56)"/>
    </clipPath>
    <mask id="mask-2" x="84.92" y="52.93" width="188.86" height="615.39" maskUnits="userSpaceOnUse">
      <g id="mask462">
        <g id="g464">
          <g class="cls-96">
            <g id="g466">
              <path id="path468" class="cls-87" d="m84.92,54.18l128.68-1.26.88,90-128.68,1.26s-.88-90-.88-90Z"/>
            </g>
          </g>
        </g>
      </g>
    </mask>
    <clipPath id="clippath-7">
      <rect class="cls-2" x="112.38" y="555.04" width="160.86" height="112.5" transform="translate(-5.95 1.91) rotate(-.56)"/>
    </clipPath>
    <clipPath id="clippath-8">
      <rect class="cls-2" x="112.38" y="555.03" width="160.86" height="112.5" transform="translate(-5.95 1.91) rotate(-.56)"/>
    </clipPath>
    <clipPath id="clippath-9">
      <rect class="cls-2" x="126.55" y="108.85" width="64.34" height="93.46" transform="translate(-1.51 1.56) rotate(-.56)"/>
    </clipPath>
    <mask id="mask-3" x="126.1" y="108.54" width="117.37" height="490.06" maskUnits="userSpaceOnUse">
      <g id="mask518">
        <g id="g520">
          <g class="cls-98">
            <g id="g522">
              <path id="path524" class="cls-87" d="m126.1,109.17l64.34-.63.91,93.46-64.34.63-.91-93.46Z"/>
            </g>
          </g>
        </g>
      </g>
    </mask>
    <clipPath id="clippath-10">
      <rect class="cls-2" x="162.48" y="481.38" width="80.43" height="116.83" transform="translate(-5.26 2) rotate(-.56)"/>
    </clipPath>
    <clipPath id="clippath-11">
      <rect class="cls-2" x="162.48" y="481.38" width="80.43" height="116.83" transform="translate(-5.26 2) rotate(-.56)"/>
    </clipPath>
    <clipPath id="clippath-12">
      <rect class="cls-2" x="129.47" y="74.15" width="74.5" height="65.77" transform="translate(-1.04 1.63) rotate(-.56)"/>
    </clipPath>
    <mask id="mask-4" x="129.15" y="73.79" width="131.68" height="568.03" maskUnits="userSpaceOnUse">
      <g id="mask570">
        <g id="g572">
          <g class="cls-101">
            <g id="g574">
              <path id="path576" class="cls-87" d="m129.15,74.52l74.5-.73.64,65.77-74.5.73-.64-65.77Z"/>
            </g>
          </g>
        </g>
      </g>
    </mask>
    <clipPath id="clippath-13">
      <rect class="cls-2" x="167.3" y="559.16" width="93.13" height="82.21" transform="translate(-5.85 2.11) rotate(-.56)"/>
    </clipPath>
    <clipPath id="clippath-14">
      <rect class="cls-2" x="167.3" y="559.15" width="93.13" height="82.21" transform="translate(-5.85 2.11) rotate(-.56)"/>
    </clipPath>
    <clipPath id="clippath-15">
      <rect class="cls-2" x="95.2" y="33.18" width="27.09" height="65.77" transform="translate(-.64 1.06) rotate(-.56)"/>
    </clipPath>
    <mask id="mask-5" x="94.88" y="33.05" width="64.86" height="661.1" maskUnits="userSpaceOnUse">
      <g id="mask620">
        <g id="g622">
          <g class="cls-103">
            <g id="g624">
              <path id="path626" class="cls-87" d="m94.88,33.31l27.09-.26.64,65.77-27.09.26s-.64-65.77-.64-65.77Z"/>
            </g>
          </g>
        </g>
      </g>
    </mask>
    <clipPath id="clippath-16">
      <rect class="cls-2" x="125.48" y="611.78" width="33.87" height="82.21" transform="translate(-6.36 1.42) rotate(-.56)"/>
    </clipPath>
    <clipPath id="clippath-17">
      <rect class="cls-2" x="125.48" y="611.78" width="33.87" height="82.21" transform="translate(-6.36 1.42) rotate(-.56)"/>
    </clipPath>
    <linearGradient id="linear-gradient-15" x1="512.93" y1="17521.03" x2="599.33" y2="17521.03" gradientTransform="translate(9676.37 167.62) rotate(89.44) scale(.54 .53) skewX(-.06)" gradientUnits="userSpaceOnUse">
      <stop offset="0" stop-color="#6b4119"/>
      <stop offset="1" stop-color="#a85e1b"/>
    </linearGradient>
    <radialGradient id="radial-gradient" cx="1417.97" cy="-1499" fx="1417.97" fy="-1499" r="436.06" gradientTransform="translate(-603.75 -376.82) rotate(-17.3) scale(.53 -.54) skewX(.69)" gradientUnits="userSpaceOnUse">
      <stop offset="0" stop-color="#802f00"/>
      <stop offset="1" stop-color="#cc6d00"/>
    </radialGradient>
    <linearGradient id="linear-gradient-16" x1="2125.9" y1="19466.63" x2="2188.27" y2="19466.63" gradientTransform="translate(10574.22 1505.08) rotate(103.91) scale(.54 .53) skewX(-.61)" gradientUnits="userSpaceOnUse">
      <stop offset="0" stop-color="#ffda96"/>
      <stop offset="1" stop-color="#b88834"/>
    </linearGradient>
    <linearGradient id="linear-gradient-17" x1="2144.13" y1="19381.77" x2="2197.59" y2="19381.77" gradientTransform="translate(10571.78 1500.52) rotate(103.87) scale(.54 .53) skewX(-.61)" xlink:href="#linear-gradient-16"/>
    <linearGradient id="linear-gradient-18" x1="2258.29" y1="19494.32" x2="2314.29" y2="19494.32" gradientTransform="translate(10574.2 1505.53) rotate(103.92) scale(.54 .53) skewX(-.61)" xlink:href="#linear-gradient-16"/>
    <linearGradient id="linear-gradient-19" x1="2044.17" y1="19358.84" x2="2081.09" y2="19358.84" gradientTransform="translate(10569.99 1496.53) rotate(103.83) scale(.54 .53) skewX(-.6)" xlink:href="#linear-gradient-16"/>
    <linearGradient id="linear-gradient-20" x1="2081.32" y1="19218.54" x2="2127.14" y2="19218.54" gradientTransform="translate(10570.61 1497.48) rotate(103.84) scale(.54 .53) skewX(-.6)" xlink:href="#linear-gradient-16"/>
    <linearGradient id="linear-gradient-21" x1="2027.11" y1="19111.52" x2="2065.93" y2="19111.52" gradientTransform="translate(10571.19 1499.12) rotate(103.86) scale(.54 .53) skewX(-.61)" xlink:href="#linear-gradient-16"/>
    <linearGradient id="linear-gradient-22" x1="2055.88" y1="18957.68" x2="2099.79" y2="18957.68" gradientTransform="translate(10572.41 1501.4) rotate(103.88) scale(.54 .53) skewX(-.61)" xlink:href="#linear-gradient-16"/>
    <linearGradient id="linear-gradient-23" x1="2074.23" y1="19076.81" x2="2123.88" y2="19076.81" gradientTransform="translate(10568.12 1493.13) rotate(103.8) scale(.54 .53) skewX(-.6)" xlink:href="#linear-gradient-16"/>
    <linearGradient id="linear-gradient-24" x1="2276.58" y1="19586.56" x2="2325.58" y2="19586.56" gradientTransform="translate(10571.21 1498.61) rotate(103.85) scale(.54 .53) skewX(-.61)" xlink:href="#linear-gradient-16"/>
  </defs>
  <g id="Layer_1-2" data-name="Layer 1">
    <g id="g10">
      <g id="g12">
        <path id="path14" class="cls-65" d="m233.26,491.96c1.15,1.14,3.11,5.28,5.89,12.4,3.46,8.86,6.12,15.05,7.97,18.62,3.22,6.19,5.85,9.98,7.9,11.35,2.73,1.7,7.75,2.46,15.09,2.27,3.72-.16,10.72-1.49,20.96-4.01,6.74-1.69,11.21-1.49,13.38.56,2.96,3.08,3.19,8.1.64,15.05-2.74,7.18-7.1,11.31-13.07,12.42-4.86.84-8.35.08-10.53-2.33-3.76-4-6.78-6.51-9.05-7.52-4.42-1.92-9.68-2.63-15.76-2.1l-7.61,1.45c-3.64-3.19-7.25-7.37-10.79-12.52-7.21-10.31-10.82-20.31-10.79-30.02.14-9.11.37-14.42.69-15.93.65-2.54,2.36-2.44,5.08.31Z"/>
        <g id="g16">
          <g class="cls-89">
            <g id="g32">
              <g id="g44">
                <g class="cls-90">
                  <g id="g46">
                    <g id="g48">
                      <g id="g52">
                        <g class="cls-93">
                          <g id="g54">
                            <g id="g56">
                              <path id="path58" class="cls-88" d="m215.6,643.23c-1.74-5.87-3.51-12.59-5.27-20.2-.59-2.88-.28-5.71.94-8.49,1.21-2.89,3-4.76,5.36-5.58-2.9,3.47-3.48,7.35-1.74,11.61,1.61,3.67,2.9,8.68,3.87,15.03,1.08,7.14,1.2,13.19.34,18.17,0,.69,2.66-.38,7.92-3.21,5.74-2.93,9.34-3.83,10.82-2.69,1.13.92.98,2.69-.46,5.36-2.9,5.23-4.39,8-4.49,8.36-1.12,2.31-3.29,5.34-6.52,9.06-2.11,2.56-3.84,5.06-5.17,7.51-3.45,1.33-6.88.42-10.28-2.76-3.42-3.19-4.06-5.69-1.93-7.52,2.13-1.79,3.82-5.16,5.06-10.09,1.62-6.47,2.14-11.33,1.54-14.55Z"/>
                            </g>
                          </g>
                        </g>
                      </g>
                    </g>
                  </g>
                </g>
              </g>
            </g>
          </g>
        </g>
        <path id="path60" class="cls-30" d="m210.33,623.03c-1.54-7.02.45-11.67,5.97-13.91,5.84-2.37,11.65,2.19,17.4,13.68,6.11,12.29,5.9,25.09-.63,38.42-1.1,2.23-3,4.87-5.68,7.94-2.7,3.07-4.54,5.67-5.51,7.85-.99,2.19-3.83,1.93-8.56-.78-4.72-2.72-6.4-5.26-5.08-7.57,2.64-2.22,4.57-5.84,5.83-10.87,1.62-6.48,2.14-11.33,1.54-14.55-1.74-5.86-3.51-12.59-5.27-20.2Z"/>
        <path id="path62" class="cls-28" d="m207.05,685.03c-4.68-5.14-6.47-8.88-5.37-11.21.45-.92,1.29-1.8,2.52-2.61,1.58-.71,2.81-1.42,3.7-2.12l.7,2.07c.92,1.48,2.62,2.63,5.11,3.41,3.4,1.12,6.84,1.02,10.33-.29-.11.58.08,1.1.53,1.55.9.68,4.76,2.27,11.56,4.74,6.13,2.48,8.91,4.65,8.36,6.49-.77,2.66-3.11,4.89-7.05,6.65-4.49,2.24-9.4,2.7-14.72,1.36-5.55-1.33-10.78-4.68-15.68-10.05Z"/>
        <path id="path64" class="cls-46" d="m224.76,677.76l13.08,4.89c2.16,1.03,3.24,1.93,3.25,2.74,0,.93-1.22,1.97-3.69,3.15-4.04,2-8.45,1.54-13.23-1.43-1.93-1.13-3.81-2.56-5.63-4.27-1.94-1.82-2.62-2.96-2.07-3.44,1.34-1.05,4.1-1.6,8.29-1.64Z"/>
        <path id="path66" class="cls-80" d="m156.85,468.3c1.14,1.83.82,4.6-.94,8.31-1.88,4.18-4.89,7.03-9.06,8.57l-17.55,7.1c1.02-1.39,1.83-3.84,2.48-7.29.42-2.2,1.2-4,2.31-5.4l1.34-1.57c-2.92,1.3-6.46,2.43-10.63,3.4-8.21,2.14-15.32,2.73-21.31,1.76-5.88-.87-11.39-4.86-16.54-11.96l-5.87-10.51,4.08,1.01c3.96.42,8.81.08,14.56-1.02,8.32-1.65,16.42-1.78,24.29-.41-.38-.08-.81-.18-1.28-.33-1.13-.34-2.5-1.82-4.09-4.46l-2.07-3.97,2.04.84c2.04.56,4.64.82,7.8.79,2.59-.03,6.32-.11,11.17-.28,4.29.2,7.85,1.19,10.7,3.01,4.54,3.08,7.39,7.21,8.59,12.39Z"/>
        <path id="path68" class="cls-56" d="m91.44,463.92l11.16-1.5c8.22-1.13,14.16-1.64,17.76-1.56,5.87.16,12.55,1.67,20.02,4.47-.44.12-2.13.14-5.08.05-4.06.51-7.71.95-10.99,1.32-6.21.64-11.8.76-16.77.33-5.2-.52-9.43-1.18-12.72-1.95l-3.4-1.17Z"/>
        <path id="path70" class="cls-56" d="m147.13,461.82l1.54,2.57-11.36-1.62c-2.48-.33-4.64-.88-6.45-1.68l-1.88-1.18,6.1-.92c-6.2-.17-10.28-.54-12.2-1.1-1.26-.34-2.33-1.19-3.25-2.57l-1.21-1.88,6.27.63c4.75.41,8.59.95,11.54,1.61,4.74.98,8.38,3.03,10.89,6.13Z"/>
        <path id="path72" class="cls-56" d="m150.49,459.54c.9,1.14,1.49,2.17,1.72,3.09.58,1.38.87,2.99.89,4.84-.77,0-1.76-1.03-2.91-3.1-1.27-3.22-3.16-5.56-5.66-7.05-1.58-.9-3.45-1.74-5.61-2.53l-2.7-.84,2.88-.03c2.25.08,4.06.47,5.42,1.15,2.05,1.03,3.41,2.4,4.11,4.12l.67-1.23s1.2,1.56,1.2,1.56Z"/>
        <path id="path74" class="cls-56" d="m139.56,467.25c3.16-.03,5.76.59,7.81,1.84-2.49-.45-5.2-.24-8.11.59-1.36.37-3.94,1.54-7.75,3.54-4.05,2.12-7.14,3.48-9.29,4.08-2.47.72-5.75,1.03-9.8.96l-5.43-.3,3.87-2.1c2.03-1.07,4.39-2.76,7.06-5.09-1.68.81-4.15,1.77-7.41,2.83-1.91.71-4.17,1.37-6.76,1.97l-3.38.73c-.89,0-2.65-.71-5.27-2.19-1.6-1.01-3.63-3.08-6.16-6.18l-3.42-4.29,4.25,1.52c3.39,1.25,6.5,2.2,9.34,2.86,5.32,1.22,13.16,1.31,23.54.28,0,0,16.92-1.03,16.92-1.03Z"/>
        <path id="path76" class="cls-56" d="m147.08,473.92l1.85.34c-.21.46-1.28.83-3.2,1.06l-5.92,1.8,3.55-.56-4.02,3.15c-2.81,2.11-4.93,4.61-6.36,7.52.64-3.71,2.25-7,4.81-9.92,1.56-1.86,3.58-2.98,6.05-3.36,1.24-.11,2.31-.12,3.23-.03Z"/>
        <path id="path78" class="cls-56" d="m150.3,474.94c2.03-.6,2.95-.03,2.73,1.7-.31,1.63-1.16,3.14-2.49,4.54-1.68,1.74-4.6,3.09-8.77,4.06-1.68.37-3.66,1.07-5.9,2.13l-2.86,1.41c2.11-2.91,4-5.23,5.69-6.98,1-1.04,2.51-2.11,4.53-3.16l2.53-1.24.69,1.38c.46,1.04.8,2.43,1.05,4.15l.5-1.22c.21-.58.26-1.68.13-3.28l-.19-2.43s2.35-1.05,2.35-1.05Z"/>
        <path id="path80" class="cls-74" d="m314.58,304.22c-14.86,15.61-33.17,23.94-54.96,24.95-19.4,1-42.22,4.8-68.47,11.4-24.32,6.81-38.67,10.71-43.06,11.68-5.86,1.33-16.82,1.19-32.86-.37-15.14-1.36-23.84-2.71-26.12-4.07-1.93-1.13-1.16-9.17,2.31-24.09,3.34-14.91,6.26-23.08,8.72-24.48l101.95-52.58c24.64,2.77,46.34,5.88,65.12,9.4,19.44,3.49,31.78,6.72,37,9.68,3.29,1.81,6.53,2.81,9.69,3.02,2.6.09,5.65,1.45,9.18,4.07,3.75,2.62,4.75,6.93,3,12.95-1.64,6.02-5.47,12.17-11.51,18.45Z"/>
        <path id="path82" class="cls-62" d="m309.72,274.34c11.25,7.5,10.48,16.92-2.27,28.24-10.62,9.33-23.09,15.91-37.4,19.75-8.33,2.16-19.27,3.06-32.83,2.74-18.39-.51-29.85-.62-34.37-.36-9.72.66-24.36,3.58-43.95,8.74-17.78,5.02-27.24,7.53-28.37,7.54-11.42-.7-22.94-2.09-34.58-4.16-23.29-4.16-35.65-9.59-37.07-16.25-1.54-7.15,12.65-15.76,42.58-25.87,25.11-8.42,51-14.96,77.71-19.62,29.19-5.02,54.33-7.92,75.44-8.7,27.31-1.08,45.67,1.58,55.11,7.95h0Z"/>
        <path id="path84" class="cls-53" d="m303.99,277.16c-1.34,1.62-3.36,3.55-6.04,5.77-5.48,4.43-11.61,8.24-18.35,11.42-6.75,3.19-13.88,5.73-21.44,7.66l-4.14.82,1.62-.28c5.51-.97,10.77-1.66,15.72-2.05,8.13-.55,20.57-3.73,37.33-9.54-7.86,4.33-16.34,7.95-25.46,10.81-5.73,1.9-12.83,3.53-21.28,4.88l-10.83,1.49,24.9.09c8.91-.09,17.32-1.25,25.18-3.53-1.68.95-4.1,2-7.24,3.18-6.41,2.26-13.23,3.76-20.45,4.53-7.22.88-14.17.78-20.84-.32l-7.81-1.82,8.02,5.28c4.43,2.96,10.76,4.86,19.02,5.7-2.03.37-5.59.29-10.68-.23-3.16-.21-7.29-1.37-12.39-3.51l-6.63-3.23,6.85,9.11c-4.54-2.37-8.23-4.48-11.06-6.3-1.03-.68-23.23,3.52-66.6,12.6-44.28,9.2-69.64,13.02-76.09,11.47-7.02-1.79,2.01-7.35,27.1-16.71,12.59-4.74,25.87-9.31,39.82-13.72-.23-1.38-2.01-3.95-5.32-7.72-2.06-2.41-5.36-5.72-9.92-9.94l-6.16-5.84,4.92,1.34c3.17.9,10.69,7,22.53,18.3-.03-3.34.27-6.46.92-9.36.45-1.73,2.09-5.95,4.97-12.68l3.96-9.57.09,9.53c-.18,3.23-1.55,9.13-4.06,17.69l19.58-23.9-1.14,3.14c-1.1,2.55-2.54,5.31-4.33,8.34-3,4.64-5.16,8.3-6.49,10.96l21.97-22.54-.66,1.91c-.77,1.97-2.17,4.76-4.15,8.34-3.1,5.69-6.07,9.88-8.86,12.56l31.57-27.15c-1.1,3.02-4.16,7.14-9.19,12.38-5.03,5.25-10.07,10.26-15.1,15.04l10.59-7.2c7.18-4.8,16.71-12.45,28.57-22.95-.41,3.57-2.92,7.76-7.5,12.53-4.58,4.78-11.57,10.04-21.01,15.79l12.82-6.2c8.43-4.12,19.3-12,32.61-23.68-.65,2.9-3.6,6.85-8.86,11.85-5.26,4.9-13.16,10.86-23.69,17.89l3.7-1.95c3.37-1.66,7.53-3.42,12.48-5.31,7.76-3.19,20.38-10.76,37.88-22.7-4.37,4.78-10.24,10.02-17.64,15.76-7.27,5.71-16.99,11.12-29.13,16.2l3.55-1.08c3.59-1.3,8.71-3.37,15.35-6.2,10.56-4.6,26.64-12.21,48.19-22.8-3.34,3.83-11.58,9.58-24.72,17.19-10.52,6.26-19.28,10.62-26.28,13.07l25.33-7.68c9.91-3.23,18.62-7,26.13-11.35,3.7-2.22,6.44-4.1,8.25-5.61h0Z"/>
        <path id="path86" class="cls-62" d="m190.59,299.73c.1-.34.44-.39,1.01-.18l-1.51,1.75,1.86-1.59c2.7.9,4.62,1.41,5.77,1.51l-.34.34.51-.34c.68.1,3.95-.45,9.81-1.67,3.15-.37,7.62-.18,13.39.56,3.16.44,7.45,1.03,12.88,1.78,6.44.75,9.78,2.85,10.05,6.31.25,2.07.31,3.23.2,3.46-.66,1.27-2.95,2.27-6.9,3.01-5.97,1.21-36.76,4.74-92.35,10.59l4.36-4.54c1.67-1.74,9.02-5.64,22.06-11.64,12.59-5.89,19-9.01,19.22-9.37Z"/>
        <path id="path88" class="cls-65" d="m250.64,362.84c.23,3.04-3.87,8.01-12.3,14.91-8.43,6.93-12.87,14.33-13.33,22.21-.45,7.85,2.57,12.21,9.02,13.06,6.48.87,10.37,2.05,11.71,3.52-2.41,8.9-4.41,17.97-5.98,27.24-2.03,11.9-3.2,19.42-3.52,22.53-25.58,27.36-52.22,27.81-79.91,1.31-1.89-8.64-4.7-19.23-8.45-31.77-4.3-14.27-11.85-29.14-22.61-44.6l-14.75-18.74c1.75-7.28,5.67-15.28,11.79-24,12.25-17.43,29.29-29.65,51.12-36.67,22.85-7.38,40.89-9.46,54.13-6.24,6.68,1.68,11.05,4.05,13.12,7.14l3.83,11.39c2.44,8.78,4.25,18.69,5.45,29.71.16,1.71.33,3.45.48,5.21,0,0,.2,3.8.2,3.8Z"/>
        <path id="path90" class="cls-58" d="m240.67,312.56l.34.86c-5.22-3.06-11.44-4.5-18.66-4.31-6.55.3-16.02,2.06-28.41,5.3-13.06,3.48-23.56,9.46-31.47,17.95-6.04,6.42-10.09,13.56-12.16,21.42-2.51,9.02,3.6,28.01,18.33,56.94,5.53,11.04,9.07,25.76,10.6,44.22.81,9.75,1.02,19.38.61,28.9-.06,2.3-7.86-2.9-23.44-15.61-1.84-8.79-4.69-19.58-8.53-32.37-4.3-14.27-11.85-29.14-22.61-44.6l-14.75-18.74c1.75-7.28,5.67-15.28,11.79-24,12.25-17.43,29.29-29.65,51.12-36.67,21.73-7.03,39.2-9.21,52.44-6.57,7.01,1.44,11.94,3.86,14.8,7.29Z"/>
        <path id="path92" class="cls-81" d="m173.43,311.84c28.59-9.39,49.41-10.46,62.46-3.2-6.9-1.91-14.99-2.17-24.22-.81-5.41.86-14.54,3.03-27.37,6.5-12.06,3.23-21.87,9.5-29.45,18.79-5.02,6.17-10.18,15.69-15.48,28.55-4.73,11.12-11.61,18.11-20.61,20.98-3.09-4.25-5.38-7.23-6.86-8.94l-1.37-1.21c1.75-7.28,5.67-15.28,11.79-24,12.25-17.43,29.29-29.65,51.12-36.67h0Z"/>
        <path id="path94" class="cls-65" d="m263.96,374.3c-4.61,2.13-9.9,4.02-15.87,5.7-.09,2.66-.27,5.82-.58,9.53l-8.8.09-63.94-9.25c45.76-13.51,71-19.28,75.7-17.35,2.18,4.37,5.09,7.57,8.73,9.62,1.81,1.01,3.41,1.57,4.76,1.68Z"/>
        <path id="path96" class="cls-84" d="m263.96,374.47c-1.58.95-6.8,2.72-15.7,5.34v.53s-37.52,6.94-37.52,6.94c-7.83,1.19-16.77,1.69-26.83,1.48-3.85-.06-8.34-.37-13.47-.92-4.19-2.14-5.76-.96-4.71,3.51-1.37-1.91-1.52-3.7-.46-5.35,1.03-1.65,2.8-2.7,5.29-3.16-3.11,1.87-3.1,2.85.03,2.94,8.87-.75,15.25-1.42,19.12-2.01,5.93-.94,10.73-1.68,14.46-2.22,3.73-.51,8.77-1.17,15.13-1.96,6.38-.82,13.67-1.99,21.89-3.51,8.2-1.49,15.79-2.01,22.77-1.61Z"/>
        <path id="path98" class="cls-65" d="m261.82,398.56c-8.63,16.7-14.11,28.57-16.4,35.64-5.05,15.04-8.06,25.11-9.03,30.21-5.53-.3-11.69-1.22-18.48-2.78-13.57-3.32-23.45-8.36-29.62-15.11-6.15-6.75-11.57-17.94-16.23-33.6l-4.65-26c2.03.1,7.65-.07,16.84-.5,9.19-.44,18.61-1.64,28.24-3.57,9.64-1.94,20.93-3.89,33.89-5.88,12.96-1.98,21.7-2.78,26.22-2.42l6.43-.4c-4.65,5.02-10.37,13.15-17.21,24.41Z"/>
        <path id="path100" class="cls-68" d="m243.91,377c13.68-1.76,23.19-2.69,28.51-2.78l6.6-.42-7.02,9.25,2.65-6.08c-3.24-.02-10.66.63-22.26,1.94-11.56,1.32-23.47,2.97-35.67,4.95-12.24,1.95-22.5,3.11-30.79,3.49-8.28.38-14.59.28-18.89-.34,7.36.08,14.68-.33,21.91-1.24,7.23-.95,14.8-2.21,22.65-3.77,7.87-1.56,18.64-3.22,32.29-5Z"/>
        <path id="path102" class="cls-66" d="m260.47,389.4c-1.98-.76-9.66,1.05-23.07,5.41-8.44,2.86-19.65,4.64-33.65,5.35l-18.61.35,10.31-.61c8.36-1.25,16.4-3.57,24.16-7,8.32-3.76,15.96-6.04,22.95-6.8,5.42-.51,9.71-.09,12.88,1.26,0,0,5.03,2.03,5.03,2.03Z"/>
        <path id="path104" class="cls-64" d="m243.13,408.73c1.36-.01,1.87,1.74,1.58,5.28-.31,3.79-1.73,7.25-4.3,10.41-3.69,4.5-8.09,16.46-13.21,35.89-.15-15.72.47-27.91,1.86-36.6,1.71-9.92,6.39-14.9,14.07-14.98Z"/>
        <path id="path106" class="cls-67" d="m234.62,334.09c2.92-.15,5.7,1.33,8.33,4.41,2.74,3.08,4.58,6.94,5.54,11.54,1.07,4.6.93,8.71-.39,12.29-1.21,3.48-3.23,5.29-6.03,5.44-2.83.24-5.6-1.17-8.34-4.25-2.74-2.98-4.58-6.84-5.54-11.54-1.05-4.6-.93-8.71.39-12.31,1.21-3.46,3.22-5.32,6.05-5.58Z"/>
        <path id="path108" class="cls-34" d="m246.57,362.35c-1.1,2.43-2.72,3.78-4.87,4.02-2.13.26-4.17-.58-6.11-2.52-1.84-2.06-3.04-4.7-3.63-7.93-.49-3.22-.17-6.07.92-8.49,1.1-2.43,2.73-3.78,4.87-4.02,2.15-.26,4.19.65,6.13,2.7,1.94,1.96,3.15,4.53,3.63,7.75.59,3.23.29,6.07-.95,8.49Z"/>
        <path id="path110" class="cls-67" d="m236.23,343.59c1.35-.13,2.6.21,3.73.99,1.25.92,1.94,2.13,2.07,3.61.25,1.5-.02,2.84-.8,4-.78,1.16-1.85,1.79-3.21,1.93-1.35.25-2.6-.1-3.73-1-1.14-.92-1.82-2.11-2.07-3.61-.13-1.5.14-2.82.8-3.99.79-1.04,1.85-1.68,3.21-1.93Z"/>
        <path id="path112" class="cls-85" d="m244.21,363.41c-2.01,2.22-4.05,2.19-6.11-.11,1.59.34,3.16-.27,4.73-1.77,1.34-1.28,2.28-2.86,2.83-4.71l.32-2.59.36,3.1c.02,2.42-.68,4.46-2.14,6.07Z"/>
        <path id="path114" class="cls-67" d="m169.44,336.8c5.66.52,10.3,2.96,13.97,7.3,3.76,4.34,5.45,9.35,5.06,15.01-.39,5.77-2.78,10.52-7.14,14.27-4.38,3.73-9.38,5.33-15.04,4.81-5.64-.4-10.34-2.79-14.12-7.13-3.65-4.46-5.28-9.53-4.88-15.18.51-5.79,2.87-10.47,7.14-14.1,4.36-3.72,9.37-5.4,15.01-4.98Z"/>
        <path id="path116" class="cls-34" d="m182.98,370.93c-2.91,2.92-6.39,4.39-10.46,4.43-4.07.04-7.52-1.36-10.38-4.23-2.95-2.74-4.46-6.13-4.5-10.16-.04-4.04,1.4-7.52,4.3-10.44,2.8-2.9,6.23-4.39,10.29-4.43,4.07-.04,7.57,1.38,10.54,4.22,2.86,2.86,4.29,6.31,4.33,10.35s-1.33,7.45-4.13,10.25Z"/>
        <path id="path118" class="cls-67" d="m174.08,360.46c-1.57,1.64-3.48,2.47-5.75,2.49-2.13.02-4.01-.77-5.61-2.38-1.59-1.71-2.4-3.71-2.43-6.03s.75-4.28,2.31-5.9c1.57-1.64,3.43-2.47,5.56-2.49,2.26-.02,4.19.77,5.79,2.38,1.59,1.59,2.4,3.54,2.42,5.86.02,2.32-.75,4.33-2.31,6.08Z"/>
        <path id="path120" class="cls-85" d="m170.13,372.45l-3.24-1.88c2.72.67,5.82.13,9.29-1.64,4.61-2.24,7.24-5.21,7.88-8.9l-.14,4.16c-.65,3.11-2.55,5.55-5.69,7.32-2.69,1.63-5.39,1.95-8.11.94Z"/>
        <path id="path122" class="cls-65" d="m162.14,334.61v-.78c1.77-.42,3.64-.64,5.57-.66,6.66-.06,12.27,2.2,16.83,6.76,4.77,4.69,7.21,10.5,7.28,17.41.07,6.69-2.26,12.43-6.94,17.21-1.7,1.86-3.56,3.38-5.55,4.55,1.35-.96,2.64-2.12,3.85-3.5,4.7-4.76,7.01-10.5,6.94-17.19-.07-6.93-2.49-12.74-7.28-17.42-4.56-4.57-10.17-6.81-16.83-6.75-1.32.01-2.61.14-3.88.38Zm65.23,4.21c-1.2,4.51-.98,9.76.67,15.75,1.53,5.75,4.01,10.45,7.41,14.13,2.57,2.41,5.04,3.74,7.41,3.98-2.88.35-5.92-.97-9.1-3.97-3.42-3.67-5.9-8.38-7.41-14.13-1.65-5.99-1.86-11.24-.67-15.75,1.42-4.75,3.76-7.59,7.02-8.55,1.02-.28,2.03-.37,3.04-.28-.44.06-.91.15-1.35.27-3.27.96-5.6,3.81-7.03,8.55Z"/>
        <path id="path124" class="cls-37" d="m214.99,371.15l2.73,2.05-5.09-1.17,1.03.51c.56.21,1.25.68,2.03,1.36l-3.05-.83-3.04-.33,1.52.51,2.21,1.18c-1.81-.44-4.36-.82-7.64-1.12-3.61-.2-7.79-.09-12.53.29-6.53.52-11.55,1.5-15.04,2.92-1.91.83-5.72,3.05-11.45,6.68-4.6,2.94-8.54,4.7-11.8,5.3-10.37,1.72-15.99-1.28-16.86-9.01-.36-3.22.79-5.7,3.48-7.47,2.58-1.63,5.06-1.77,7.45-.41,2.73,1.48,3.52,3.31,2.42,5.51.11-.34-.18-1.2-.87-2.58s-2.1-1.77-4.24-1.17c-2.26.48-3.43,1.7-3.52,3.67-.21,2.08.44,3.86,1.92,5.36,1.58,1.47,3.98,2.31,7.14,2.51,2.6.1,5.68-.98,9.28-3.2,7.63-4.81,11.55-7.27,11.79-7.38,9.31-5.06,19.39-7.17,30.25-6.36,2.81.09,5.6.75,8.3,2l-1.54-1.71,3.23.49c2.37.43,4.08,1.04,5.1,1.84l-1.69-.15.68.33c.45.23.97.8,1.54,1.73l-3.75-1.35h0Z"/>
        <path id="path126" class="cls-37" d="m273.16,362.09c1.69.44,2.84,1.65,3.42,3.6.7,2.31.56,4.32-.45,6.08-.89,1.85-2.4,2.56-4.54,2.1-1.36-.21-4.47-1.15-9.35-2.85-4.63-1.56-7.81-2.46-9.5-2.66-5.32-.76-9.27-.43-11.85.98l-5.37,3.33.66-1.73.49-.53-1.51.54-1.86,1.41,1.52-2.1-1.7.88-2.02,1.58,1.34-1.74.51-.36-3.21,1.25-.33.36.84-1.06.51-.34-1.35.52-.51.36.83-1.57c.79-.82,1.69-1.52,2.69-2.1l1.51-.88-1.34,1.91-.49.53,3.7-2.64c3.49-1.64,7.55-2.37,12.17-2.18,4.19.3,8.99,1.47,14.44,3.49,4.98,2.01,8.03,3.03,9.17,3.02,2.13.1,3.2-1.18,3.17-3.83-.02-2.55-.93-3.86-2.75-3.96-1.45-.11-2.24.42-2.35,1.58-.11.69-.04,1.34.18,1.91-1.7-1.13-1.94-2.4-.71-3.8,1.01-1.06,2.37-1.41,4.06-1.09h0Z"/>
        <g id="g128">
          <g id="g130">
            <g id="g136">
              <path id="path144" class="cls-3" d="m321.29,280.8c-3.43-3.77-10.12-7.05-20.07-9.85-19.94-5.69-46.18-6.19-78.76-1.48-17.14,2.48-35.46,14.26-55.02,35.32-15.53,16.65-29.12,35.83-40.76,57.51-8.75,16.36-20.5,27.67-35.22,33.93-12.04,4.97-25.68,6.54-40.93,4.73-20.46-2.57-35.08-7.69-43.84-15.33-7.76-6.83-8.75-12.44-3.04-16.76,14.91-11.34,25-22.62,30.31-33.88,5.5-15.86,11.95-30.92,19.37-45.19,11.86-22.85,23.16-39.93,33.88-51.23,12.29-12.92,25.2-20.09,38.73-21.49,20.07-2.04,54.91,3.96,104.49,18.01,49.13,13.84,79.85,26.11,92.14,36.85,3.54,3.19,4.4,5.6,2.61,7.24,0,0-3.89,1.6-3.89,1.6Z"/>
            </g>
          </g>
        </g>
        <path id="path146" class="cls-74" d="m321.29,280.8c-3.43-3.77-10.12-7.05-20.07-9.85-19.94-5.69-46.18-6.19-78.76-1.48-14.09,2.1-29.13,10.54-45.13,25.37,16.3-19.33,38.72-30.04,67.25-32.17,17.02-1.31,32.27-1.24,45.71.25,14.82,1.58,25.68,4.7,32.62,9.37,3.3,2.98,4,5.27,2.08,6.91,0,0-3.71,1.59-3.71,1.59Z"/>
        <g id="g148">
          <g class="cls-111">
            <g id="g164">
              <g id="g176">
                <g class="cls-91">
                  <g id="g178">
                    <g id="g180">
                      <g id="g184">
                        <g class="cls-97">
                          <g id="g186">
                            <g id="g188">
                              <path id="path190" class="cls-88" d="m87.77,243.98l1.39,5.01c.04,3.92-2.41,7.18-7.35,9.76-2.93,1.53-4.62.79-5.1-2.2-.61-2.77,0-5.76,1.76-9.01,2.11-3.84,4.29-5.58,6.57-5.27,1.12.22,2.04.79,2.73,1.71Z"/>
                              <path id="path192" class="cls-88" d="m66.41,276.73c1.84,4.14,1.6,8.18-.72,12.12-2,3.25-4.65,5.41-7.91,6.49-2.03.71-2.93-.9-2.76-4.82.08-3.93,1.24-7.11,3.48-9.55,2.57-2.68,4.29-4.32,5.19-4.9,1.23-.7,2.15-.48,2.72.67Z"/>
                              <path id="path194" class="cls-88" d="m96.49,270.16c4.17.2,6.17,3.35,6.01,9.47-.18,5.89-2.05,10.05-5.64,12.51-3.25,2.33-6.25,2.02-8.99-.96-2.86-2.96-3.73-6.47-2.65-10.52.99-3.24,2.6-5.85,4.83-7.84,2.01-1.86,4.16-2.75,6.42-2.67Z"/>
                              <path id="path196" class="cls-88" d="m42.02,311.03c2.6.1,3.31,3.03,2.12,8.8-1.2,5.68-2.86,9.09-4.99,10.28-1.57.81-2.25.53-2.03-.86.74-3.93,1.11-6.06,1.11-6.4.08-4.04.33-6.93.76-8.66.56-2.08,1.56-3.14,3.03-3.16Z"/>
                              <path id="path198" class="cls-88" d="m63.6,318.97c3.16.07,5.33,1.79,6.48,5.13.7,2.07,1,4.49.93,7.26-.28,6.58-2.84,10.58-7.67,12.01-3.05.96-5.77-.04-8.17-3.03-2.18-2.75-3.05-5.92-2.64-9.49.43-3.35,1.76-6.2,3.99-8.52,2.24-2.34,4.59-3.44,7.08-3.35Z"/>
                              <path id="path200" class="cls-88" d="m26.32,351.18c2.16,1.36,1.91,3.95-.77,7.78-2.67,3.97-5.76,6.18-9.24,6.68-1.59.12-2.32-.5-2.23-1.89.11-.7.71-2.78,1.81-6.26,1-3,2.32-5.14,4.01-6.44,2.02-1.39,4.15-1.36,6.43.12Z"/>
                              <path id="path202" class="cls-88" d="m102.59,305.61c5.5-2.13,9.46-1.31,11.86,2.47,2.18,3.44,2.22,7.36.11,11.76-1.98,4.06-4.73,6.69-8.21,7.87-3.61,1.3-6.42.59-8.49-2.16-2.06-2.75-2.54-6.5-1.46-11.23,1.08-4.62,3.14-7.53,6.18-8.71Z"/>
                              <path id="path204" class="cls-88" d="m112.75,219.63c3.94-.95,7.5-1.15,10.66-.61,2.95.43,3.75,1.11,2.4,2.06-1.69,1.28-4.09,2.51-7.25,3.71-3.82,1.52-6.81,2.03-8.95,1.47-2.04-.45-2.56-1.55-1.55-3.28.99-1.73,2.57-2.85,4.7-3.34Z"/>
                              <path id="path206" class="cls-88" d="m115.27,233.28c3.48-.73,6.2-.06,8.14,2,1.82,2.06,2.02,4.21.57,6.4-1.89,2.67-4.87,4.25-8.93,4.77-3.83.49-6.48.06-7.97-1.31-1.37-1.25-1.16-3.4.61-6.41,1.89-3.03,4.42-4.83,7.57-5.45Z"/>
                              <path id="path208" class="cls-88" d="m152.92,222.7c-1.49-1.82-.54-3.1,2.84-3.83,3.05-.6,5.82-.46,8.31.44,4.87,2.03,7.49,3.16,7.82,3.39,2.5,1.46,1.83,2.69-2,3.65-2.36.6-5.7.34-10-.78-3.84-.88-6.17-1.84-6.97-2.87Z"/>
                              <path id="path210" class="cls-88" d="m131.5,249.57c5.17-1.66,9.48-1.07,12.9,1.79,3.4,2.62,4.34,5.67,2.8,9.15-1.44,3.13-4.13,5.23-8.08,6.3-3.71,1.09-7.05.88-9.99-.59-2.61-1.46-3.55-4.39-2.8-8.8.64-4.16,2.37-6.76,5.17-7.84Z"/>
                              <path id="path212" class="cls-88" d="m188.91,232.78c5.19-.17,9.49,1.11,12.9,3.85,3.18,2.5,4.11,4.35,2.77,5.52-1.57,1.4-4.15,2.29-7.76,2.66-3.6.27-7.06-.1-10.34-1.1-3.62-1.11-5.28-3.18-4.98-6.19.32-3,2.78-4.59,7.41-4.74Z"/>
                              <path id="path214" class="cls-88" d="m233.82,235.42c3.95-.27,7.9.91,11.88,3.52,3.98,2.62,4.67,4.28,2.08,5-3.26,1.07-7.1,1-11.51-.23-3.17-.78-5.94-1.97-8.34-3.57-1.46-.89-1.42-1.95.13-3.11,1.46-.94,3.38-1.47,5.76-1.61Z"/>
                            </g>
                          </g>
                        </g>
                      </g>
                    </g>
                  </g>
                </g>
              </g>
            </g>
          </g>
        </g>
        <g id="g216">
          <g id="g218">
            <g id="g224">
              <path id="path232" class="cls-8" d="m90.59,238.39l1.4,5.01c-.08,3.8-2.59,7.01-7.53,9.59-2.93,1.53-5.3.81-7.13-2.18-1.83-3.09-1.93-6.15-.25-9.18,2.1-3.94,4.95-5.64,8.58-5.1,1.92.22,3.56.84,4.93,1.86Z"/>
            </g>
          </g>
        </g>
        <g id="g234">
          <g id="g236">
            <g id="g242">
              <path id="path250" class="cls-7" d="m69.07,270.97c1.84,4.14,1.6,8.18-.73,12.13-2,3.25-4.64,5.45-7.9,6.65-2.03.71-3.68-1.01-4.97-5.14-1.16-4.26-.68-7.57,1.43-9.88,2.13-2.44,4.59-4.03,7.41-4.74,2.59-.72,4.18-.4,4.76.98Z"/>
            </g>
          </g>
        </g>
        <g id="g252">
          <g id="g254">
            <g id="g260">
              <path id="path268" class="cls-9" d="m98.14,265.67c4.18.19,6.13,3.34,5.85,9.46-.18,5.88-1.98,10.06-5.47,12.51-3.25,2.35-6.3,2.02-9.16-.94-2.84-2.97-3.67-6.49-2.47-10.54.98-3.24,2.61-5.84,4.83-7.82,2.02-1.88,4.14-2.76,6.41-2.66Z"/>
            </g>
          </g>
        </g>
        <g id="g270">
          <g id="g272">
            <g id="g278">
              <path id="path286" class="cls-10" d="m44.68,305.3c2.71.09,3.47,3.03,2.28,8.8-1.19,5.67-2.9,9.09-5.16,10.28-1.91,1.05-3.32.83-4.24-.65-.91-1.38-1.32-3.52-1.24-6.39.06-3.47,1.11-6.42,3.12-8.86,1.68-2.09,3.42-3.16,5.23-3.18Z"/>
            </g>
          </g>
        </g>
        <g id="g288">
          <g id="g290">
            <g id="g296">
              <path id="path304" class="cls-12" d="m64.9,313.76c3.16.09,5.33,1.8,6.48,5.13.93,2.19,1.23,4.6.93,7.28-.28,6.58-2.84,10.57-7.67,12-3.05.96-5.77-.06-8.16-3.03-2.18-2.75-3.05-5.92-2.64-9.49.43-3.35,1.76-6.2,3.99-8.52,2.24-2.34,4.6-3.46,7.08-3.37Z"/>
            </g>
          </g>
        </g>
        <g id="g306">
          <g id="g308">
            <g id="g314">
              <path id="path322" class="cls-11" d="m28.98,345.44c2.28,1.36,2.07,3.95-.6,7.78-2.67,3.96-5.81,6.18-9.41,6.68-3.62.61-4.53-1.75-2.78-7.07.86-2.9,2.6-5.17,5.17-6.81,2.7-1.87,5.24-2.06,7.62-.58Z"/>
            </g>
          </g>
        </g>
        <g id="g324">
          <g id="g326">
            <g id="g332">
              <path id="path340" class="cls-6" d="m104.58,300.74c5.5-2.01,9.46-1.14,11.87,2.65,2.19,3.55,2.22,7.47.11,11.76-1.98,3.94-4.73,6.57-8.21,7.87-3.49,1.3-6.26.57-8.32-2.17-2.18-2.75-2.71-6.49-1.63-11.24,1.08-4.63,3.13-7.59,6.18-8.88Z"/>
            </g>
          </g>
        </g>
        <g id="g342">
          <g id="g344">
            <g id="g350">
              <path id="path358" class="cls-5" d="m115.57,213.92c3.73-.83,6.84-.17,9.35,1.99,2.27,2.06,2.63,3.68,1.05,4.84-1.34,1.06-3.47,1.88-6.41,2.48-3.15.72-5.86.82-8.13.27-2.02-.57-2.39-2.17-1.05-4.84,1.22-2.55,2.95-4.12,5.19-4.73Z"/>
            </g>
          </g>
        </g>
        <g id="g360">
          <g id="g362">
            <g id="g368">
              <path id="path376" class="cls-16" d="m115.92,230.88c3.38-.73,6.08-.01,8.14,2.17,1.82,1.94,2.02,4.02.57,6.23-1.45,2.09-4.09,3.38-7.92,3.88-3.73.49-6.26.13-7.64-1.15-1.37-1.25-1.39-3.21-.06-5.88,1.56-2.79,3.84-4.53,6.9-5.26Z"/>
            </g>
          </g>
        </g>
        <g id="g378">
          <g id="g380">
            <g id="g386">
              <path id="path394" class="cls-14" d="m154.42,220.81c-1.47-1.27-.52-2.37,2.86-3.32,3.26-.85,5.96-.87,8.12-.08,7.93,3.15,9.88,5.5,5.82,7.04-2.24.84-5.47.7-9.64-.43-3.75-1.11-6.13-2.19-7.16-3.21Z"/>
            </g>
          </g>
        </g>
        <g id="g396">
          <g id="g398">
            <g id="g404">
              <path id="path412" class="cls-17" d="m130.96,262.92c-2.61-1.48-3.55-4.41-2.8-8.81.64-4.15,2.36-6.76,5.16-7.83,5.18-1.67,9.48-1.07,12.88,1.77,3.42,2.62,4.36,5.67,2.8,9.15-1.44,3.13-4.12,5.23-8.06,6.31-3.73,1.07-7.05.86-10-.59Z"/>
            </g>
          </g>
        </g>
        <g id="g414">
          <g id="g416">
            <g id="g422">
              <path id="path430" class="cls-15" d="m190.93,230.49c5.07-.15,8.99,1.2,11.73,4.04,2.39,2.63,2.97,4.58,1.75,5.86-1,1.06-3.03,1.7-6.09,1.97-3.37.27-6.65-.1-9.83-1.12-3.62-1.11-5.27-3.11-4.97-6,.32-3.01,2.78-4.59,7.41-4.75Z"/>
            </g>
          </g>
        </g>
        <g id="g432">
          <g id="g434">
            <g id="g440">
              <path id="path448" class="cls-13" d="m235.84,233.69c3.95-.16,7.52,1.41,10.71,4.73,3.19,3.21,3.37,4.93.55,5.18-2.37.14-5.48-.4-9.33-1.63-3.4-1.12-6.01-2.26-7.82-3.39-1.47-1.02-1.43-2.07.13-3.11,1.35-.94,3.27-1.54,5.75-1.78h0Z"/>
            </g>
          </g>
        </g>
        <path id="path450" class="cls-65" d="m158.49,480.57c-.13-1.15-.96-4.89-2.49-11.24,20.17,11.69,46.8,10.95,79.9-2.16-1.01,15.15-1.07,26.41-.17,33.75,1.1,9.46,5.93,22.85,14.45,40.19,9.78,19.87,15.14,31.41,16.08,34.63,5.13,17.26,5.56,32.84,1.3,46.73-5.03,16.54-16.43,28.08-34.21,34.61-17.76,6.63-34.28,8.7-49.55,6.2-14.24-2.3-27.85-8.57-40.83-18.82-8.18-6.38-15.17-16.01-20.94-28.87-3.58-8.05-5.9-14.84-6.98-20.37-.23-1.03,5.08-11.12,15.96-30.26,12.21-21.37,19.85-36.43,22.94-45.24,4.51-12.5,6-25.57,4.53-39.16Z"/>
        <path id="path452" class="cls-30" d="m266.96,577.99c4.56,17.05,4.66,32.2.28,45.52-5.27,15.99-16.57,27.17-33.89,33.58-17.78,6.63-34.29,8.7-49.55,6.18-14.24-2.28-27.87-8.55-40.83-18.81-8.18-6.39-15.17-16.01-20.94-28.87-3.58-8.05-5.9-14.84-6.98-20.37-.22-.91,1.82-5.21,6.14-12.87,6-10.44,10.72-18.78,14.16-25.05,9.1,7.06,18.7,13.14,28.78,18.24,15.65,7.81,30.71,12.09,45.17,12.88,21.34,1.29,40.56-2.19,57.65-10.44Z"/>
        <g id="g454">
          <g class="cls-108">
            <g id="g470">
              <g id="g482">
                <g class="cls-94">
                  <g id="g484">
                    <g id="g486">
                      <g id="g490">
                        <g class="cls-95">
                          <g id="g492">
                            <g id="g494">
                              <path id="path496" class="cls-88" d="m266.26,575.75c5.13,17.26,5.56,32.84,1.3,46.73-5.03,16.54-16.43,28.08-34.21,34.61-17.78,6.63-34.29,8.7-49.55,6.2-14.24-2.29-27.87-8.57-40.83-18.82-8.18-6.38-15.17-16.01-20.94-28.87-3.58-8.04-5.9-14.83-6.98-20.37-.22-.91,1.87-5.38,6.3-13.38,6.34-11.03,11.27-19.73,14.83-26.11l26.43,18.95c-1.9,13.52-1.56,25.11,1.02,34.79,3.06,11.61,9.64,21.3,19.77,29.05,10.46,8.21,21.33,11.98,32.62,11.28,10.15-.55,19.6-4.52,28.32-11.87,8.29-6.87,14.52-15.59,18.71-26.15,4.29-10.66,5.55-21.05,3.76-31.19l-.92-5.7.36.86Z"/>
                            </g>
                          </g>
                        </g>
                      </g>
                    </g>
                  </g>
                </g>
              </g>
            </g>
          </g>
        </g>
        <path id="path498" class="cls-35" d="m158.49,481.1c5.45,3.75,13.61,6.44,24.45,8.06,11.43,1.73,22.66,1.79,33.7.19,4.63-.62,8.38-1.7,11.31-3.24,2.14-1.05,4.49-2.7,7.06-4.9-.26,6.81-.03,13.39.71,19.72,1.09,8.64,5.04,20.27,11.85,34.86,3.8,7.92,9.1,18.78,15.9,32.55-2.43,5.45-6.38,10.44-11.88,15.01-6.5,5.37-13.97,8.84-22.42,10.43-16.9,3.15-34.26.86-52.04-6.95-16.22-7.11-29.4-17.07-39.58-29.9l1.3-5.89c7.43-13.22,12.47-23.65,15.1-31.3,4.4-12.16,5.91-25.04,4.53-38.63Z"/>
        <path id="path500" class="cls-86" d="m219.09,566.69c-17.81,1.1-33.13-.61-45.94-5.1-9.86-3.47-19.95-9.44-30.31-17.87l3.65-6.95c8.76,5.8,18.28,10.42,28.58,13.91,13.82,4.48,27.61,6.26,41.38,5.31,16.45-1.31,28.4-4.84,35.8-10.56l5.18,10.16c-8.52,6.32-21.3,10.01-38.34,11.11Z"/>
        <path id="path502" class="cls-86" d="m137.55,556.92l.65-3.12c9.21,6.73,20.33,12.16,33.35,16.29,16.99,5.38,34.57,7.39,52.73,6.06,16.46-1.19,29.24-4.44,38.34-9.72l.86,1.9c-2.2,4.87-5.78,9.52-10.7,13.95-8.55,2.97-18.64,4.68-30.26,5.15-27.98,1.09-53.22-5.77-75.72-20.56-3.65-3.41-6.73-6.73-9.24-9.95Z"/>
        <path id="path504" class="cls-86" d="m209.11,498.25c10.72-1.26,19.33-4.11,25.83-8.57.03,3.25.23,6.47.61,9.7-6.63,3.87-15.42,6.15-26.36,6.83-19.73,1.12-36.49-2.59-50.23-11.11.21-1.85.2-3.75-.06-5.71,6.02,3.17,13.44,5.63,22.27,7.4,9.94,1.97,19.26,2.47,27.94,1.45Z"/>
        <path id="path506" class="cls-86" d="m214.05,534.37c12.17-1.39,21.8-4.37,28.87-8.94l4.14,9.14c-9.09,5.16-18.87,8.43-29.36,9.8-10.04,1.25-21,.49-32.88-2.28-13.01-2.98-24.28-7.95-33.85-14.9l2.81-6.6c6.94,4.32,15.72,7.87,26.36,10.64,12.55,3.34,23.86,4.38,33.9,3.14Z"/>
        <path id="path508" class="cls-86" d="m157.07,509.49l1.13-5.89c5.34,3.51,13.05,6.5,23.13,8.94,12.45,3.12,23.69,3.93,33.71,2.44,9.36-1.48,16.73-3.56,22.13-6.27.59,2.65,1.46,5.53,2.61,8.63-6.95,3.99-15.35,6.32-25.15,6.99-23.46,1.39-42.65-3.56-57.56-14.84Z"/>
        <g id="g510">
          <g class="cls-107">
            <g id="g526">
              <g id="g538">
                <g class="cls-102">
                  <g id="g540">
                    <g id="g542">
                      <g id="g546">
                        <g class="cls-106">
                          <g id="g548">
                            <g id="g550">
                              <path id="path552" class="cls-88" d="m198.89,490.38c-.78,12.92-.99,25.16-.67,36.71.52,17.64,2.45,30.84,5.81,39.58,1.27,3.33,4.84,4.86,10.71,4.56,3.39-.15,8.74-.83,16.07-2.05,5.87-.65,9.31.48,10.37,3.35,1.37,3.81-.76,10.98-6.41,21.53-10.59.56-22.92-.47-36.94-3.11-15.04-2.84-26.42-6.6-34.14-11.26l2.45-94.87c9.08,3.48,19.98,5.33,32.75,5.56Z"/>
                            </g>
                          </g>
                        </g>
                      </g>
                    </g>
                  </g>
                </g>
              </g>
            </g>
          </g>
        </g>
        <path id="path554" class="cls-50" d="m157.22,472.79c4.68,4.57,10.91,7.8,18.71,9.69,7.13,1.77,12.51,1.89,16.09.35l-1.28,76.7c-.32,13.49.41,25.31,2.21,35.46.96,5.06,1.96,8.8,2.99,11.23-6.89-.98-14.77-3.39-23.6-7.23-17.59-7.91-31.01-19.26-40.3-34.06l-.52-.86c11.77-20.53,19.25-35.31,22.44-44.35,5.17-14.25,6.26-29.9,3.26-46.94Z"/>
        <path id="path556" class="cls-38" d="m157.22,472.79c4.68,4.57,10.91,7.8,18.71,9.69l2.21.48c.72,14.77-.45,28.74-3.48,41.92-1.52,7.18-4.33,18.86-8.47,35.05-3.13,14.33-4.59,25.48-4.4,33.44-12.49-7.26-22.41-16.74-29.75-28.45l-.52-.86c11.77-20.53,19.25-35.31,22.44-44.35,5.17-14.25,6.26-29.9,3.26-46.94Z"/>
        <path id="path558" class="cls-33" d="m231.3,497.86l-.37-19.39c2.03-.71,3.82-2.07,5.39-4.04-.81,9.83-.73,18.54.26,26.15,1.1,9.34,5.92,22.68,14.45,40.01,9.79,19.87,15.16,31.41,16.08,34.65,1.52,5.05,2.65,10.47,3.38,16.22-5.05,2.59-9.79,3.8-14.19,3.6-.74-6.11-1.95-13.2-3.6-21.26-3.43-16.22-7.51-29.23-12.23-38.99-4.84-9.75-7.89-22.08-9.16-36.94Z"/>
        <path id="path560" class="cls-47" d="m186.03,560.96c-.11,12.12,1.53,24.62,4.93,37.51l-9.33-1.82c-2.95-.66-6.45-2.01-10.54-4.06l-5.29-2.89c10.75,2.33,16.67,2.37,17.79.18.55-1.16.57-4.05.08-8.66-.75-7.15-1.15-13.21-1.2-18.16-.06-6.47.69-17.44,2.22-32.92l2.16-21.13s-.83,51.93-.83,51.93Z"/>
        <g id="g562">
          <g class="cls-110">
            <g id="g578">
              <g id="g590">
                <g class="cls-100">
                  <g id="g592">
                    <g id="g594">
                      <g id="g598">
                        <g class="cls-99">
                          <g id="g600">
                            <g id="g602">
                              <path id="path604" class="cls-36" d="m245.66,564.52c4.18,1.59,7.99,3.46,11.4,5.61.34.59,1.19,6.92,2.55,19.02.75,7.6-1.62,18.35-7.13,32.26-2.76,7.08-5.57,13.32-8.45,18.78-.14-2.3-.96-5.11-2.46-8.44-2.88-6.67-7.51-12.57-13.88-17.7-5.01-4.11-11.87-6.86-20.57-8.28-11.2-1.97-17.76-3.34-19.69-4.14-6.46-2.59-11.27-8.77-14.4-18.55-2.1-6.32-3.18-12.38-3.24-18.14,9.92,10.52,17.96,17.02,24.07,19.49,3.97,1.7,9.5-.02,16.55-5.18,1.56-1.05,7.11-5.79,16.63-14.17,3.92-3.39,10.12-3.56,18.62-.54Z"/>
                            </g>
                          </g>
                        </g>
                      </g>
                    </g>
                  </g>
                </g>
              </g>
            </g>
          </g>
        </g>
        <path id="path606" class="cls-38" d="m178.18,487.29l58.24-18.91-.8,4.33c-2.34,2.56-9.41,6.83-21.21,12.83-7.42,3.89-15.63,6.56-24.64,8.03l-11.52.97s-.07-7.27-.07-7.27Z"/>
        <path id="path608" class="cls-80" d="m162.96,470.82c7.03,3.28,15.74,4.77,26.12,4.43,10.5-.22,21.38-1.88,32.62-5,5.64-1.44,10.26-2.92,13.85-4.46,2.36-.02,3.11.73,2.22,2.23-.44.81-1.11,1.58-2.01,2.28l-8.06,5.61c-7.07,4.23-14.83,7.6-23.27,10.1-10.14,2.87-19.84,3.95-29.11,3.23-9.25-.61-16.05-2.86-20.37-6.73-3.54-3.19-4.48-6.94-2.82-11.21l3.5-5.58,7.32,5.12Z"/>
        <path id="path610" class="cls-39" d="m154.95,482.52c-3.08-2.62-4.24-5.74-3.48-9.31.42-2.32,1.53-4.53,3.32-6.61,2.15,1.92,4.21,4.05,6.15,6.33l-1.34,1.4c-.77,1.29-.76,2.44.03,3.47,2.06,2.63,8.11,3.91,18.16,3.81l14.57-.14c-6.2,1.67-12,2.53-17.42,2.58-3.39.03-6.55-.27-9.5-.94l-3.57-1.01,3.42,2.57c4.88,1.56,13.63,1.76,26.25.61,11.17-1.04,21.36-3.84,30.58-8.45,7.31-3.64,11.44-6.74,12.44-9.28l.66-1.75h.33c2.36-.03,3.11.73,2.22,2.23-.44.81-1.11,1.58-2.01,2.28l-8.06,5.61c-7.07,4.23-14.83,7.6-23.27,10.1-10.14,2.87-19.84,3.95-29.11,3.23-9.25-.61-16.05-2.84-20.37-6.72Z"/>
        <g id="g612">
          <g class="cls-109">
            <g id="g628">
              <g id="g640">
                <g class="cls-105">
                  <g id="g642">
                    <g id="g644">
                      <g id="g648">
                        <g class="cls-104">
                          <g id="g650">
                            <g id="g652">
                              <path id="path654" class="cls-88" d="m137.83,654.2c-2.1-6.56-4.14-14.09-6.16-22.61-.81-3.34-.51-6.57.93-9.71,1.56-3.12,3.73-5.16,6.54-6.11-1.44,1.52-2.4,3.37-2.82,5.57-.54,2.54-.28,5.02.75,7.43,1.84,4.26,3.32,9.84,4.4,16.74,1.32,8.07,1.5,14.88.55,20.43.25,3.44,2.15,6.44,5.68,8.94,3.75,2.85,7.24,2.75,10.48-.27-1.32,2.55-3.9,5.92-7.69,10.11-2.45,2.8-3.61,4.58-3.5,5.39-11.41,4.62-17.37,2.32-17.84-6.92,3.29-3.55,5.61-7.85,6.99-12.86,1.85-7.19,2.42-12.55,1.71-16.13Z"/>
                            </g>
                          </g>
                        </g>
                      </g>
                    </g>
                  </g>
                </g>
              </g>
            </g>
          </g>
        </g>
        <path id="path656" class="cls-30" d="m164.25,656.37c-.62,5.65-2.6,11.62-5.91,17.87-1.33,2.45-4.01,5.99-8.03,10.65-2.21,2.51-3.43,4.55-3.66,6.09-10.98,4.1-16.87,1.74-17.68-7.1,3.19-3.31,5.58-7.84,7.14-13.56,1.85-7.18,2.42-12.55,1.71-16.12-2.1-6.56-4.14-14.09-6.16-22.61-.7-3.12-.39-6.23.93-9.36,1.32-3.12,3.34-5.22,6.04-6.29,6.85-2.72,13.68,2.4,20.46,15.38,4.38,8.26,6.1,16.61,5.16,25.05Z"/>
        <path id="path658" class="cls-28" d="m124.08,685.48c2.81-1.52,4.27-2.34,4.37-2.46l.86-.35,1.71,2.06c1.7,1.47,4.26,2.54,7.66,3.2,5.54,1.1,8.53,1.18,8.98.27h.17c-.55.92-.43,1.66.35,2.25l13.6,5.22c7.26,2.94,10.62,5.37,10.08,7.34-1,2.9-3.78,5.41-8.39,7.54-5.4,2.35-11.22,2.81-17.43,1.37-6.45-1.43-12.64-5.19-18.57-11.23-5.48-5.61-7.6-9.74-6.39-12.41.55-1.15,1.57-2.09,3.02-2.8Z"/>
        <path id="path660" class="cls-46" d="m151.75,693.53c3.85.99,7.65,2.46,11.39,4.38,4.44,2.27,5.63,3.87,3.6,4.82-5.73,2.59-10.68,3.16-14.88,1.7-2.82-1-5.67-2.77-8.52-5.27-3.19-2.86-3.53-4.65-1.06-5.36,3.03-1.06,6.19-1.16,9.47-.26Z"/>
        <path id="path662" class="cls-65" d="m166.8,500.05c2.69-2.1,5.02-.98,6.98,3.4,1.51,3.45,2.44,7.77,2.84,12.95.51,7.03,1.66,14.69,3.43,22.99,2.5,12.08,5.63,21.11,9.41,27.07,3.68,5.75,7.65,7.6,11.91,5.6,2.59-1.29,6.9-4.39,12.96-9.29,5.83-4,10.25-6.79,13.29-8.45,4.82-2.7,10.56-4.55,17.21-5.53,7.55-1.12,13.26.16,17.14,3.81,3.66,3.65,5.4,9.3,5.24,16.92-.04,6.22-1.35,10.51-3.93,12.83-1.79,1.41-5.67,3.76-11.62,7.05-4.14,3.05-7.81,2.97-11-.25l-3.61-5.66,1.67-1.06c1.12-.82,1.66-2.6,1.63-5.37-.13-3.13-1.62-5.19-4.46-6.19-2.72-.9-5.65-.93-8.8-.08l-4.05,1.42-12.45,9.11c-9.42,5.52-16.91,7.14-22.47,4.9-6.01-2.38-11.44-9.36-16.3-20.97-3.69-8.84-6.33-18.11-7.88-27.78-1.33-8.3-1.86-15.81-1.57-22.49.25-7.96,1.73-12.95,4.42-14.93Z"/>
        <path id="path664" class="cls-63" d="m239.81,554.54l-1.36-.32,3.72.3c3.07.44,5.84,1.51,8.33,3.22,1.7,1.13,3.42,3.07,5.13,5.83,2.01-2.56,3.57-4.25,4.7-5.07,2.02-1.51,3.7-1.76,5.07-.74,1.39,3.11,1.99,7.03,1.8,11.76-.04,6.22-1.35,10.51-3.93,12.83-1.79,1.41-5.67,3.76-11.62,7.05-4.14,3.05-7.81,2.97-11-.25l-3.61-5.66,1.67-1.06c1.12-.82,1.66-2.6,1.63-5.37-.13-3.13-1.62-5.19-4.46-6.19-2.72-.9-5.65-.93-8.8-.08l-4.05,1.42-12.45,9.11c-9.42,5.52-16.91,7.14-22.47,4.9-6.01-2.38-11.44-9.36-16.3-20.97-3.69-8.84-6.33-18.11-7.88-27.78-1.09-6.68-1.66-13.03-1.72-19.04.05-6.91.84-12.06,2.4-15.42-.62,6.24-.19,14.83,1.26,25.78,1.36,10.94,3.13,19.07,5.33,24.35,4.15,10.1,6.99,16.48,8.47,19.12,3.68,6.08,7.83,9.1,12.46,9.06,3.5-.03,9.84-3.21,19.04-9.53,9.41-6.33,16.04-9.67,19.87-10.07,3.74-.25,7.87.97,12.41,3.7,3.86,2.14,6.79,2.64,8.81,1.47-2.18-5.17-4.88-8.61-8.06-10.32-1.81-1.01-3.29-1.69-4.42-2.03Z"/>
        <path id="path666" class="cls-44" d="m249.96,606.72l21.17.82c15.58.78,26.84,1.94,33.74,3.49,7.47,1.65,15.04,7.63,22.7,17.95,6.07,8.24,10.49,16.51,13.29,24.79,2.31,6.45,1.44,14.76-2.65,24.96-4.18,10.32-8.54,14.16-13.08,11.55-4.89-2.84-13.28-6.73-25.18-11.7-12.24-5.19-20.28-8.05-24.12-8.59-3.28-.43-9.27-.49-17.95-.17l-12.2.46-2.43-6.55s6.72-57.01,6.72-57.01Z"/>
        <path id="path668" class="cls-40" d="m271.78,637.83l-3.9.56c3.38-1.18,7.95-1.92,13.7-2.21,9.82-.55,18.44,3.4,25.85,11.87,7.78,8.92,12.13,20.48,13.04,34.66.95,15.46-1.82,27.37-8.28,35.75-6.47,8.48-16.18,12.85-29.16,13.08h-.51c9.14-.42,16.05-4.7,20.69-12.82,4.67-8.12,6.54-19.38,5.61-33.81-.82-14.29-4.83-25.92-12.03-34.84-7.08-8.7-15.42-12.78-25.01-12.23Z"/>
        <path id="path670" class="cls-40" d="m275.4,644.03c1.47.1,2.76.26,3.9.49-5.96,2.24-10.5,6.91-13.59,13.98-2.86,6.26-4.27,13.55-4.19,21.85.09,9.46,1.53,17.46,4.3,24.03,3.36,8.27,8.6,13.19,15.72,14.72,4.64,1,8.87.68,12.69-.98,1.91-.83,3.37-1.76,4.37-2.82l-3.35,4.53c-3.02,2.92-6.27,4.22-9.78,3.92-6.2.06-10.95-.18-14.23-.74-5.65-.97-9.51-3.64-11.58-8.02-2.53-5.52-4.71-13.68-6.51-24.51-1.81-11.41-2.11-19.53-.92-24.4,1.2-4.39,3.98-9.03,8.33-13.93,3.57-3.96,6.44-6.47,8.56-7.52,1.23-.59,3.32-.79,6.26-.58Z"/>
        <path id="path672" class="cls-72" d="m266.86,653.46l4.86,11.38c3.92,8.62,7.82,15.73,11.71,21.35,6.29,8.93,13.03,17.06,20.22,24.38l-7.73,6.29c-10.75-13.85-18.08-23.99-21.98-30.41-2.4-4.01-4.67-10.45-6.78-19.32l-2.49-12.26c.1-.24.27-.46.49-.7.46-.58,1.02-.82,1.7-.71Z"/>
        <path id="path674" class="cls-29" d="m264.83,654.18l4.86,11.38c4.04,8.61,7.99,15.72,11.88,21.35,6.19,8.94,12.93,17.07,20.23,24.38l-7.91,6.13c-10.73-13.74-18.01-23.83-21.79-30.25-2.42-4.02-4.88-9.07-7.44-15.16l-3.12-8.12c.87-4.62,1.96-7.86,3.3-9.72Z"/>
        <path id="path676" class="cls-32" d="m296.31,653.87l2.21,1.7c1.27,1.61,1.46,3.62.57,6.07-1.43,4.05-11.71,20.19-30.85,48.41l-3.88,1.95-1.41-5.7,33.36-52.42Z"/>
        <path id="path678" class="cls-82" d="m293.4,650.95l2.24,3.09c1.27,2.64,1.18,5.36-.27,8.15-3.33,6.49-13.72,22.75-31.19,48.76-.45.12-1.37-.92-2.74-3.08-.79-1.38-1.31-2.83-1.56-4.31l-.18-1.91c5.24-6.98,9.97-13.65,14.19-20.05l19.51-30.65Z"/>
        <path id="path680" class="cls-41" d="m293.76,651.98l2.23,3.28c1.15,2.64,1.01,5.35-.43,8.13-3.21,6.39-13.6,22.58-31.19,48.6-.33.12-1.18-.92-2.56-3.08-.92-1.38-1.5-2.83-1.74-4.31l-.18-1.74c5.24-6.96,9.97-13.7,14.19-20.2,0,0,19.69-30.67,19.69-30.67Z"/>
        <path id="path682" class="cls-31" d="m272.9,649.25c-5.63.41-10.05,3.85-13.28,10.34-2.87,6.27-4.37,14.65-4.48,25.15-.02,10.04,2.15,18.67,6.52,25.9,4.35,7.23,9.7,11.04,16.02,11.44,7.23.5,12.68-2.43,16.34-8.81,3.79-6.38,5.34-15.52,4.64-27.4-.55-11.18-3.36-20.21-8.38-27.08-4.93-6.76-10.71-9.93-17.37-9.53Zm-26.59,34.18c.1-13.39,2.25-24.15,6.46-32.25,4.55-8.36,10.87-12.8,19-13.35,9.58-.55,17.92,3.53,25.01,12.23,7.19,8.92,11.21,20.54,12.03,34.84,1.06,15.34-1.09,27.12-6.43,35.37-5.33,8.25-13.2,12.01-23.59,11.3-9.15-.6-16.82-5.48-23.01-14.65-6.29-9.29-9.45-20.44-9.47-33.49Z"/>
        <path id="path684" class="cls-55" d="m484.12,483.28c3.04-.84,4.75.17,5.11,3.06.49,2.89-.8,4.17-3.84,3.85-2.6-.21-3.8-1.35-3.59-3.43.19-1.96.98-3.14,2.33-3.49Z"/>
        <path id="path686" class="cls-75" d="m485.71,489.31c2.16.91,3.34-.13,3.52-3.14.24,1.14.02,2.13-.65,2.94-.67.82-1.74,1.17-3.19,1.08-2.6-.21-3.8-1.35-3.59-3.43.19-1.96.98-3.14,2.33-3.49l1.02-.18c-.78,1.04-1.12,2.26-.99,3.64.13,1.27.65,2.12,1.55,2.57Z"/>
        <path id="path688" class="cls-61" d="m476,466.38c-.94-3.34-.69-6.28.76-8.83,1.1-2.19,2.67-3.71,4.7-4.54,6.18-2.38,11.06-.63,14.6,5.21,2.54,4.02,3.87,8.4,4.03,13.13.14,2.53,1,4.49,2.61,5.86.78.68,1.58,1.08,2.37,1.18-.43,1.39-1.56,2.74-3.35,4.02-3.36,2.69-8.19,4.12-14.53,4.3-3.49.15-6.37-.4-8.65-1.66l-2.38-1.7c1-1.28,1.67-2.38,2-3.32.55-1.73-.18-6.29-2.17-13.65h0Z"/>
        <path id="path690" class="cls-69" d="m489.98,454.84c4.09,2.5,6.54,6.44,7.39,11.86.47,2.65.5,5.08.07,7.27l-2.26-6.72c-1.03-2.76-2.25-4.83-3.62-6.2-1.82-1.25-3.25-2.27-4.26-3.07-1.49-1.25-1.83-2.35-1.06-3.29.78-1.04,2.02-1,3.74.15h0Z"/>
        <path id="path692" class="cls-52" d="m478.68,458.92l1.94,9.33c1.66,6.56,3.38,10.94,5.22,13.1,2.04,2.52,4.93,3.88,8.67,4.07-2.03.72-4.39,1.09-7.1,1.12-3.51-.09-6.39-.75-8.67-2,1.9-3.26,1.9-8.27.04-15.06-.7-2.53-1.07-4.84-1.09-6.92l.14-2.42c.11-.81.27-1.27.5-1.39.11,0,.23.05.35.17Z"/>
        <path id="path694" class="cls-49" d="m471.57,459.16c1.45-.47,2.8-1.58,4.02-3.31,1.24-1.86,3.31-2.97,6.24-3.36,2.13-2.2,4.83-3.11,8.11-2.67,2.1.4,3.28.47,3.56.22l-1.34,2.18c-.44.7-1.11,1.33-2.01,1.93l-1.35.87,1.05,2.58c.68,1.62,1.15,3.16,1.38,4.67l-4.4-.31c-1.24-.1-2.37-.84-3.41-2.22l-1.19-2.23c-.11.58-1.57,1.47-4.39,2.65-1.8.71-3.37.77-4.73.21,0,0-1.54-1.21-1.54-1.21Z"/>
        <path id="path696" class="cls-45" d="m479.61,454.75c-1.77-8.85-5.28-13.72-10.48-14.6-11.41-1.73-17.55,4.78-18.43,19.57-.68,11.08.13,35.07,2.39,71.99-1,.59-2.07.88-3.2.89-2.37.14-4.03-1.11-4.95-3.76-1.32-32.19-1.66-54.51-1-66.97.48-9.93,3.28-17.58,8.42-22.93,5.03-5.12,11.16-6.97,18.4-5.54,8.04,1.53,13.23,7.94,15.6,19.22-.78,1.63-1.89,2.57-3.36,2.8-1.12.25-2.26.02-3.4-.66h0Z"/>
        <path id="path698" class="cls-49" d="m471.32,433.38c7.69,1.89,12.72,8.3,15.09,19.23-1.21,2.68-3.24,3.5-6.08,2.49,1.79-1.29,2.16-4.18,1.11-8.67-1.41-5.53-4.78-9.88-10.12-13.05Z"/>
        <path id="path700" class="cls-49" d="m464.26,438.64c3.49.08,6.14,1.03,7.98,2.86-.92-.8-1.93-1.25-3.07-1.35-11.41-1.73-17.55,4.78-18.43,19.57-.68,11.08.13,35.07,2.39,71.99-1,.59-2.07.88-3.2.89-2.37.14-4.03-1.11-4.95-3.76v-.19c3.63,2.74,5.08.83,4.34-5.75-.64-8.29-1.18-17.8-1.63-28.53-.73-16.6-.78-28.39-.16-35.31.7-7.39,2.91-12.84,6.6-16.34,2.8-2.8,6.18-4.15,10.13-4.07Z"/>
        <path id="path702" class="cls-42" d="m480.99,456.99c.56.23.24.76-1,1.58-1.35.71-2.77,1.11-4.22,1.24-1.35.13-2.26.02-2.71-.31l-.35-.35,2.37-.53c.78-.36,1.96-1.07,3.54-2.11.78-.13,1.57.03,2.37.48Z"/>
        <path id="path704" class="cls-42" d="m477.42,455.82c.33.11.33.23,0,.34-.23.24-.56.41-1.01.53-.46.12-.63.05-.51-.16,0-.24.16-.41.51-.53.45-.24.78-.3,1.01-.18Z"/>
        <path id="path706" class="cls-42" d="m475.4,457.23c.91,0,.68.21-.67.7-.33,0-.4-.11-.17-.35.33-.24.61-.34.84-.35Z"/>
        <path id="path708" class="cls-42" d="m485.08,455.58l1.88,3.09,2.57,2.56c.12.12-.68-.05-2.37-.48-2.16-.91-3.36-1.71-3.58-2.4-.24-.69-.19-1.32.15-1.89.32-.7.79-.99,1.35-.88Z"/>
        <path id="path710" class="cls-42" d="m486.72,454.68c1.24-.11,2.12,1.6,2.6,5.18-.68.11-1.65-.91-2.91-3.1-.58-1.38-.49-2.08.31-2.08Z"/>
        <path id="path712" class="cls-42" d="m491.09,450.84c-.21.93-.71,1.56-1.5,1.93-1.35.59-2.03.31-2.04-.84,0-.7,1.18-1.06,3.55-1.09Z"/>
        <path id="path714" class="cls-42" d="m489.56,450.33l-2.71.38c-.57-.35-.4-.57.51-.7.68-.12,1.42-.01,2.2.32Z"/>
        <path id="path716" class="cls-48" d="m454.24,696.46l-10.72-22.39,17.05-4.49.96,29.42s-7.3-2.53-7.3-2.53Z"/>
        <path id="path718" class="cls-43" d="m460.54,669.57l.07,6.74c-2.36.14-4.45.74-6.25,1.8-2.24,1.29-3.64,3.03-4.18,5.23l-.65,2.95-6.04-12.23s17.05-4.49,17.05-4.49Z"/>
        <path id="path720" class="cls-79" d="m468.19,672.97c-.06,5.07-.26,9.16-.56,12.29-.31,3.46-.49,7.39-.56,11.77l-5.57,1.97-2.17-31.32,8.97-1.29s-.1,6.58-.1,6.58Z"/>
        <path id="path722" class="cls-48" d="m376.3,694.97l23.98-6.29.05,4.66c.03,3.11.61,14.82,1.7,35.12l-9.17-3.02c-3.33-5.51-5.61-9.58-6.88-12.24,0,0-9.67-18.24-9.67-18.24Z"/>
        <path id="path724" class="cls-43" d="m400.28,688.69l.09,9.16c-3.16.15-6.07.99-8.77,2.52-3.03,1.75-4.92,4.14-5.68,7.15l-.81,4.15-8.81-16.69,23.98-6.29Z"/>
        <path id="path726" class="cls-79" d="m398.57,686.1l12.35-2.03-.62,24.58c.18,6.12.11,11.66-.17,16.64l-8.11,3.19c-1.89-21.21-3.04-35.34-3.45-42.37Z"/>
        <path id="path728" class="cls-48" d="m218.75,582.09l14.8-10.69,2.2-.19c1.69.2,3,.83,3.9,1.85,1.6,1.72,1.34,3.74-.78,6.07l-13.61,10.51c-2.83.25-4.7-.53-5.61-2.36-.57-1.16-.87-2.36-.88-3.63l-.02-1.57Z"/>
        <path id="path730" class="cls-76" d="m230.15,588.22l-13.77-4.53c.23-.59.78-1.29,1.68-2.09,1.55-1.64,3.74-3.04,6.56-4.22,4.61-1.89,14.92-4.83,30.9-8.79l.77,9s-26.14,10.64-26.14,10.64Z"/>
        <path id="path732" class="cls-48" d="m246.93,572.13l7.7,26.06c-21.68-1.75-33.74-3.88-36.13-6.39-2.17-2.29-2.92-4.65-2.27-7.07.65-2.9,3.28-4.88,7.9-5.96,6.76-1.57,14.37-3.77,22.8-6.63Z"/>
        <path id="path734" class="cls-60" d="m265.96,527.81c23.86-8.1,55.66-12.14,95.39-12.19,44.7-.08,75.44,2.73,92.19,8.45,9.74,3.37,14.64,7.89,14.7,13.53.05,5.55-6.14,13.16-18.58,22.87-15.9,12.49-35.42,20.81-58.51,24.96-22.2,4.04-48.73,10.7-79.56,20l-39.68,12.68-29.89-78.29c1.01-1.04,2.74-2.27,5.22-3.68,4.93-3.06,11.17-5.83,18.71-8.31Z"/>
        <path id="path736" class="cls-78" d="m260.3,537.72l8.59-4.06c6.52-2.84,11.41-4.68,14.68-5.52.23,0,3.77-1.07,10.63-3.21,4.06-1.31,7.95-2.04,11.67-2.19,1.24-.01,8.46-.71,21.66-2.11,11.38-1.16,20.24-1.7,26.56-1.64,8.93.03,24.84.33,47.77.92,6.88.15,14.63,1.01,23.22,2.53,8.37,1.42,14.02,2.82,16.97,4.16,1.01.46,4.65,1.58,10.87,3.36,4.41,1.34,6.8,2.66,7.15,3.92.48,1.83-9.88,5.69-31.04,11.54-21.72,5.99-37.33,9.02-46.81,9.11-11.74.24-20.04.38-24.9.43-8-.04-16.03-.44-24.06-1.15-5.64-.52-13.32-.92-23.03-1.16-7.34-.29-12.99-.74-16.95-1.39-2.6-.57-6-.99-10.18-1.29-2.37-.21-5.09-.93-8.14-2.17-3.4-1.35-6.36-2.95-8.86-4.76l-2.74-2.22,20.37,4.99c5.09,1.34,9.28,2.28,12.56,2.82,3.61.42,8.19.61,13.71.56,3.95-.04,10.5.35,19.66,1.19,9.6.94,16.27,1.39,20,1.36,17.83.4,30.36.23,37.58-.54,6.76-.76,15.32-2.4,25.68-4.93,10.36-2.4,17.57-4.55,21.62-6.43,5.4-2.37,9.78-4.83,13.14-7.4l-11.38-4.05c-8.05-3.27-18.46-5.36-31.22-6.27-9.94-.83-22.25-1.17-36.93-1.03-15.34.15-28.6.74-39.77,1.78-20.54,1.59-33.67,3.73-39.39,6.43-2.02.95-4.96,2.08-8.78,3.38-3.59,1.3-5.83,2.13-6.74,2.48-1.91.95-4.38,1.77-7.43,2.49-2.04-.56-3.96-.54-5.76.06Z"/>
        <path id="path738" class="cls-78" d="m275.87,537.4c13.39-4.29,24.88-7.34,34.45-9.16,9.13-1.82,16.11-2.98,20.97-3.5,8.34-.87,17.65-1.09,27.94-.61,15.47.78,26.86.95,34.2.53-15,1.65-26.62,2.29-34.86,1.9-12.65-.45-25.23.25-37.75,2.11-11.61,1.72-22.41,4.77-32.42,9.14-1.68.71-2.07,1.17-1.18,1.4.91.21,4.35.53,10.34.93,2.93.21,6.84.79,11.69,1.79,4.19.89,9.78,1.41,16.78,1.56l42.01.47c13.54.08,24.16-.24,31.82-1.01,6.31-.75,11.66-1.91,16.06-3.45,5.39-1.9,8.72-2.86,9.96-2.87-1.9,1.4-4.6,2.82-8.1,4.24-6.85,2.84-14.01,4.3-21.45,4.37-4.63.05-13.09.53-25.39,1.45-10.38.79-19.02,1.06-25.9.78-5.31-.29-12.03-.51-20.15-.66-6.22-.06-12.09-.34-17.62-.88-6.45-.63-13.74-1.99-21.88-4.11l-10.2-3.01c-.33-.11-.57-.22-.68-.33-.22-.35.22-.69,1.34-1.06Z"/>
        <path id="path740" class="cls-78" d="m405.64,526.1c5.08-.05,9.03.48,11.87,1.62.23.1,1.65,1.01,4.26,2.73l2.05,1.01-2.52,2.8c.11-.46-.06-.98-.51-1.55-.8-1.28-2.45-2.17-4.94-2.72-1.15-.23-2.77-.79-4.93-1.7-1.48-.44-4.03-.87-7.64-1.31-1.82-.19-3.66-.28-5.51-.28l7.87-.6Z"/>
        <path id="path742" class="cls-78" d="m407.04,530.07c3.41,2.26,3.87,4.05,1.41,5.34-.79.46-1.51,1.11-2.18,1.93-1.12.59-3.71.9-7.78.94-3.61.04-9.54.5-17.76,1.39-9.25.88-14.89,1.41-16.92,1.55-1.8.02-3.9.26-6.26.75-1.35.23-4.29.21-8.81-.1l-16.94-.7,10.51.25c7.9-.08,14.16-.61,18.79-1.57,4.5-.97,9.53-1.6,15.05-1.89,3.06-.13,7.1-.35,12.19-.63,4.63-.4,7.39-.76,8.27-1.13,5.53-1.54,8.39-2.79,8.61-3.72.09-.93-2.45-1.7-7.64-2.34-1.59-.22-3.79-.37-6.62-.46-3.72.04-6.08.01-7.11-.1l-14.06-.39,29.13-.45c3.04-.03,4.96,0,5.75.11.68.23,1.48.63,2.38,1.2Z"/>
        <path id="path744" class="cls-78" d="m358.84,535.73c4.06-.04,5.08.07,3.04.31-.33.12-4.27.57-11.84,1.33-4.51.5-8.67.78-12.51.81-3.27-.19-5.14-.29-5.59-.28l-10.17.1c-3.72.04-7.96-.11-12.7-.4-4.96-.31-7.85-.67-8.64-1.13-.68-.33-.06-.63,1.86-.88,1.35-.25,4.16-.62,8.46-1.12,1.12-.13,4.11-.68,8.95-1.66,4.18-.84,9.31-1.53,15.39-2.04,9.7-.91,17.16-.98,22.35-.22-.68,0-5.86.39-15.56,1.18-3.06.26-7.94,1.01-14.71,2.22l-9.29,1.65,3.05.16c1.92.2,14.57.2,37.93-.03Z"/>
        <path id="path746" class="cls-78" d="m383.03,534.11l-39.29-.48,2.71-.38c2.38-.36,4.79-.55,7.28-.58,3.95-.04,12.3-.36,25.04-.94,10.27-.22,15.07.07,14.41.89-.79.7-4.18,1.19-10.16,1.48Z"/>
        <path id="path748" class="cls-78" d="m315.5,555.19c4.64.43,7.63.57,8.98.44,1.01-.13,2.31-.07,3.89.13,1.82.46,4.43,1.01,7.81,1.67,2.15.43,2.27.6.35.5l-14.9.15c-3.5.03-9.5-.77-17.99-2.41l-11.7-2.49s23.55,2.02,23.55,2.02Z"/>
        <path id="path750" class="cls-70" d="m257.08,641.27c-5.81,5.82-9.6,15.85-11.38,30.05l-4.78-3.4c2.36-24.83,3.46-44.12,3.32-57.84-.08-8.55-.43-22.85-1.1-42.92l-1.11-27.34,3.94,3.95c3.87,3.19,8.97,6.08,15.31,8.67,20.29,8.34,48.96,12.34,85.98,11.97,40.74-.4,73.16-4.99,97.23-13.76,12.03-4.39,19.96-8.73,23.75-13.04l.64,13.14c.32,10.62.53,20.55.62,29.78.15,14.88,1.77,42.45,4.87,82.67-7.05,6.76-17.93,13.34-32.67,19.71-29.33,12.86-63.03,18.28-101.08,16.21-11.98-.68-20.29-1.41-24.93-2.17-.3-8.89-1.58-17.7-3.81-26.45-2.7-10.71-6.43-18.92-11.23-24.64-6.63-8.13-14.18-12.51-22.65-13.12-7.79-.5-14.76,2.34-20.92,8.52h-.01Z"/>
        <path id="path752" class="cls-83" d="m348.81,600.74c-.23,12.12,1.28,28.32,4.53,48.58,1.93,11.53,4.91,28.23,8.96,50.12-6.99.3-14.22.2-21.67-.32l-3.06-.14c2.76-18.72,3.37-30.78,1.87-36.19-.24-.81-3.47-8.1-9.71-21.9-5.31-11.83-8.32-20.96-9.06-27.43-.74-6.81-1.06-15.1-.92-24.91-.01-1.38.12-9.64.44-24.77,9.25.5,18.3.7,27.1.61h1.35c.34,11.39.39,23.51.19,36.33Z"/>
        <path id="path754" class="cls-83" d="m263.56,629.78l-5.21,3.35c3.46-4.77,6.86-13.81,10.23-27.11,1.74-6.71,2-15.65.75-26.83-1.92-12.1-3.24-20.46-3.97-25.06,10.65,3.72,22.75,6.35,36.31,7.96-5.76,9.98-9.85,19.2-12.25,27.64-2.08,7.41-2.73,15.71-1.96,24.93.38,4.51.97,8.31,1.8,11.41l-11.69.11c-4.84.05-9.53,1.26-14.02,3.6Z"/>
        <path id="path756" class="cls-83" d="m243.24,541.36c1.14,1.26,2.62,2.51,4.44,3.78,3.67,28.22,5.22,49.1,4.68,62.59.01,1.17-.99,9.19-2.99,24.1-1.27,8.88-.92,15.57,1.06,20.07-2.33,5.45-3.91,11.92-4.73,19.42l-4.78-3.4c2.36-24.83,3.46-44.12,3.32-57.84-.08-8.55-.43-22.85-1.1-42.92l-1.11-27.34s1.2,1.55,1.2,1.55Z"/>
        <path id="path758" class="cls-83" d="m311.88,670.5c-2.7-10.71-6.43-18.92-11.23-24.64-5.14-6.19-10.77-10.17-16.88-11.96,3.61-.73,9.32.84,17.14,4.68,8.18,4.08,14.6,8.8,19.27,14.18,3.31,3.89,7.95,9.84,13.9,17.87,5.37,6.4,10.54,10.27,15.53,11.61,9.17,2.45,14.98,3.77,17.47,3.99,5.77.28,8.91-1.88,9.43-6.5.21-2.2,3.03-12.73,8.49-31.59,5.36-18.51,8.22-31.88,8.59-40.06.79-22.51-6.35-37.33-21.44-44.45,32.04-1.94,57.68-6.85,76.9-14.78,9.69-3.9,16.08-7.64,19.2-11.26l.64,13.14c.32,10.62.53,20.55.62,29.78.15,14.88,1.77,42.45,4.87,82.67-7.05,6.76-17.93,13.34-32.67,19.71-29.33,12.86-63.03,18.28-101.08,16.21-11.98-.68-20.29-1.41-24.93-2.17-.3-8.89-1.58-17.7-3.81-26.45h-.01Z"/>
        <path id="path760" class="cls-48" d="m311.88,670.5c-2.7-10.71-6.43-18.92-11.23-24.64-3.89-4.81-8.1-8.24-12.63-10.25h.68c7.68,1.4,14.87,8.55,21.54,21.42,8.51,16.3,13.46,25.14,14.83,26.49,8.79,8.81,26.02,11.29,51.72,7.47,7.45-1.12,13.33-4.81,17.67-11.09l4.33-9.03,12.57,4.9,13.07,2.65c5.42,1.22,9.86-.91,13.32-6.37l3.47-8.52,1.53,1.37c2.36-.6,6.95-4.45,13.78-11.56,8.27-8.61,13.24-19.16,14.92-31.63l2.95,41.5c-7.05,6.76-17.93,13.34-32.67,19.71-29.37,12.86-63.07,18.28-101.12,16.21-11.98-.68-20.29-1.41-24.93-2.17-.3-8.89-1.58-17.7-3.81-26.45h.03Z"/>
        <path id="path762" class="cls-48" d="m396.87,667.95c.07-4.73,1.83-14.5,5.31-29.31,3.25-14.33,4.83-24.96,4.76-31.89-.08-8.08-1.56-16.25-4.47-24.53-2.91-7.93-6.58-14.64-11.03-20.14,8.56-1.01,17.47-2.37,26.72-4.06,1.74,5.29,3.22,12.71,4.45,22.28,1.44,10.48,2,19.99,1.62,28.53-.17,5.19-1.15,14.38-2.94,27.55-1.37,10.53-1.84,19.69-1.42,27.55.53,8.65,2.58,17,6.16,25.02-8.67,2.86-17.33,5.09-26.01,6.66-2.37-11.28-3.43-20.5-3.15-27.66Z"/>
        <path id="path764" class="cls-48" d="m463.03,560.51c-.16-4.62-1.85-9.9-5.07-15.87.91-.36,2.3-1.12,4.21-2.29,1.32,8.41,1.82,18.16,1.47,29.23,0,0-.62-11.06-.62-11.06Z"/>
        <path id="path766" class="cls-48" d="m454.43,546.56c.63,6.69,1.73,14.13,3.26,22.3,1.42,7.15,2.18,19.6,2.23,37.36.09,9.47.16,21.23.18,35.31.4,6.93,1.96,16.55,4.68,28.86-4.6,3.27-10.27,6.51-17,9.68l-2-13.13c-1.09-8.41-.49-20.77,1.84-37.05,2.87-19.42,4.33-31.31,4.4-35.71.25-10.14-1.93-24.78-6.53-43.9,3.16-1.06,6.15-2.31,8.94-3.72Z"/>
        <path id="path768" class="cls-48" d="m440.81,551.9c-.09,2.06.47,7.48,1.68,16.24,1.33,9.57,2.04,17.36,2.1,23.34.07,7.39-1.72,15.48-5.36,24.29-1.89,4.51-3.76,8.24-5.66,11.13l2.06-15.42c.94-7.51.99-14.43.13-20.77-.74-5.99-2.39-12.6-4.94-19.85-1.62-4.95-4.33-9.59-8.09-13.95,7.54-1.8,13.57-3.48,18.07-5.01Z"/>
        <path id="path770" class="cls-43" d="m464.69,670.06l.08-.09c.02.14.02.29,0,.42-.04-.12-.07-.22-.08-.34l-6.98,4.9c-14.93,8.58-31.92,14.97-50.95,19.19-1.47-11.63-.19-24.22,3.86-37.76,1.53-5.09,2.91-13.99,4.14-26.7l1.35-17.49.73,5.35c.27,5.19.12,12.07-.48,20.61-.69,10.74-.83,18.41-.45,23.02.38,5.42,1.74,11.29,4.07,17.61,2.66,6.91,6.74,9.16,12.25,6.81,5.5-2.49,7.87-8.5,7.1-18.07-.75-7.5.39-18.17,3.41-32.06,3.67-17.34,5.71-28.49,6.13-33.46.81-8.88.46-20.19-1.01-33.92l-2.39-17.81,2.78,6.74c2.2,5.74,4.13,11.89,5.77,18.45,1.41,5.77,1.95,14.75,1.62,26.99-.31,14.08-.1,24,.64,29.76,1.47,13.02,4.27,25.64,8.41,37.83h0Zm.08-.09c.84-19.11,1.18-35.74,1.04-49.96-.02-1.96-.42-9.56-1.23-22.82-.42-7.62-.17-17.42.72-29.44.91-12.12.54-21.07-1.11-26.81l4.04-3.34.64,13.14c.32,10.62.53,20.55.62,29.78.15,14.88,1.77,42.45,4.87,82.67,0,0-9.59,6.77-9.59,6.77Z"/>
        <path id="path772" class="cls-76" d="m347.49,587.6c.4-4.85.55-12.58.45-23.2,8.58-.08,16.58-.35,24.04-.76,1.15,14.64,1.54,26.29,1.18,34.94-.34,11.19-2.42,23.23-6.25,36.07l-.05-5.36c-.1-10.15-.64-20.36-1.65-30.63-.5-4.83-1.9-9.78-4.21-14.83l-3.1-6.21-.85,18.18c-.18,3.46-.8,9.81-1.83,19.07-.83,7.85-1.33,13.79-1.53,17.83-.37,7.27,1.83,24.75,6.62,52.39-5.42-22.68-9.13-38.73-11.14-48.18-2.49-11.28-3.05-27.72-1.67-49.3h0Z"/>
        <path id="path774" class="cls-76" d="m319.14,563.8c-.77,1.87-2.2,5.23-4.3,10.08-2.1,4.75-3.74,9.45-4.94,14.08-1.74,6.83-1.65,16.23.28,28.21.95,5.99,2.08,11.29,3.36,15.89-1.59-1.94-3.32-4.53-5.16-7.74-3.78-6.54-6.28-12.97-7.46-19.31-1.3-6.45-1.21-13.71.28-21.81l2.61-10.41-3.17,3.83c-2.45,3.25-4.85,6.69-7.19,10.28-2.33,3.61-4.13,10.83-5.36,21.69-.63,5.43-1.04,10.46-1.21,15.07l-.92-6.23c-.61-4.49-.5-10.44.34-17.82,1.03-9.59,3.22-17.29,6.56-23.08,4.21-7.54,6.64-12.42,7.3-14.61,5.88.86,12.21,1.49,18.98,1.87Z"/>
        <path id="path776" class="cls-76" d="m253.07,638.53c.63-1.75,1.65-3.6,3.09-5.57,3.67-4.87,8.78-8.22,15.32-10,5.18-1.44,10.49-1.2,15.91.71,2.72.9,4.88,1.96,6.47,3.23-2.93-.33-6.37-.46-10.32-.42-7.79.19-14.05,1.23-18.77,3.12-4.73,2.01-8.14,4.29-10.25,6.85-.67.75-1.15,1.45-1.44,2.09Z"/>
        <path id="path778" class="cls-76" d="m249.09,551.34l4.43,20.04c2.74,14.97,3.7,26.86,2.89,35.62-.71,8.78-2.43,16.7-5.19,23.76-1.32,3.48-2.59,6.1-3.83,7.83,3.14-13.87,4.64-27.68,4.51-41.4-.08-8.54-.58-18.76-1.47-30.63,0,0-1.34-15.22-1.34-15.22Z"/>
        <g id="g780">
          <g id="g782">
            <g id="g788">
              <path id="path796" class="cls-18" d="m355.99,522.09c17.04-.29,32.8.71,47.27,3,16.17,2.62,23.43,5.94,21.78,10-1.55,4.05-8.97,7.42-22.26,10.09-12.05,2.3-26.55,3.66-43.48,4.06-37.35.82-60.7-2.47-70.03-9.88-4.88-3.87,1-7.68,17.66-11.43,15.22-3.38,31.57-5.31,49.06-5.84Z"/>
            </g>
          </g>
        </g>
        <path id="path798" class="cls-54" d="m355.99,522.09c17.04-.29,32.8.71,47.27,3,16.17,2.62,23.43,5.94,21.78,10-.34,1.03-1.24,2.14-2.68,3.32-3.99-3.42-12.04-6.12-24.12-8.08-11.88-1.85-24.3-2.48-37.28-1.89-16.71.74-29.4,1.79-38.07,3.15-14.32,1.98-24.67,5.19-31.06,9.65l-2.57-1.89c-4.88-3.87,1-7.68,17.66-11.43,15.22-3.38,31.57-5.31,49.06-5.84Z"/>
        <path id="path800" class="cls-73" d="m383.88,516.27c6.65.17,9.72.96,9.17,2.35-.67,1.39-4.21,2.22-10.66,2.52-4.05.28-8,.08-11.85-.58-4.07-.54-6.06-1.26-5.96-2.19.54-1.97,6.98-2.67,19.29-2.1Z"/>
        <path id="path802" class="cls-71" d="m426.33,62.03c30.37,1.55,57.85,5.44,82.41,11.65,25.68,6.33,35.23,12.13,28.61,17.38-6.61,5.37-22.84,13.61-48.69,24.7-25.19,10.98-47.56,19.63-67.15,25.93-17.79,5.72-63.13,14-136.07,24.87-68.2,10.13-117.37,16.38-147.47,18.75-45.46,3.67-67.41,3.6-65.88-.22.77-1.85,13.94-11.97,39.51-30.34,27.69-19.99,49.67-34.7,65.95-44.08,31.75-8.61,65.93-17.14,102.52-25.58,73.34-16.76,122.08-24.45,146.26-23.06Z"/>
        <path id="path804" class="cls-51" d="m505.58,96.22c-17.27,10.77-35.59,19.5-54.94,26.14-19.46,6.77-49.65,14.9-90.53,24.43-33.46,7.83-84,15.93-151.65,24.31-50.64,6.28-88.52,10.33-113.69,12.2-16.57,1.19-11.49-4.98,15.23-18.51,16.17-8.22,49.28-23.79,99.29-46.65,16.74-7.89,73.78-15.66,171.14-23.31,97.57-7.76,139.28-7.31,125.14,1.38Z"/>
        <path id="path806" class="cls-77" d="m414.96,126.53l21.92-8.87c16.07-6.61,27.83-11.86,35.23-15.74,7.42-3.76,14.84-6.6,22.28-8.53,3.83-.95,6.86-1.5,9.13-1.65-7.85,5.29-18.18,11.03-30.99,17.27-25.51,12.59-50.31,21.27-74.42,26l-35.49,6.92c-6.98,3.18-16.87,6.11-29.73,8.78l-17.07,3.1,29.86-12.58c-29.61,9.06-49.25,14.49-58.94,16.33l-34.65,6.05,17.38-4.85c13.41-3.81,24.27-7.33,32.59-10.53,7.82-2.98,16.12-5.65,24.89-8.04-46.64,11.19-79.95,19.09-99.93,23.66-22.52,5.17-38.93,8.34-49.18,9.48l36.16-8.65c26.58-6.62,45.71-11.71,57.42-15.29,11.99-3.65,21.78-6.37,29.39-8.16-50.72,9.99-90.66,18.19-119.82,24.63-19.49,4.33-38.37,7.47-56.64,9.38l-21.65,1.43c37.18-8.1,68.88-14.75,95.14-19.98,26.36-5.21,58.64-11.88,96.82-19.98-54.32,8.83-87.13,13.6-98.4,14.28l-21.84.91,75.88-13.89c9.8-1.72,18.26-3,25.36-3.88l4.41-.57c-8.59-.95-14.24-1.42-16.95-1.39l-4.07.04,19.96-1.92c15.91-.97,30.25-.82,43.02.44,5.43.52,8.14.5,8.14-.08l-25.96-4.77,42.85.44-5.66-6.52,5.09.81c3.72.77,6.61,1.84,8.66,3.21l4.78,3.23c6.94-5.02,10.7-8.93,11.23-11.7l.81-4.15,4.2,13.11,42.67-17.72-19.3,18.36,15.51-6.56c11.69-5.06,20.75-9.38,27.14-12.89l18.52-10.05-45.75,31.07h0Z"/>
        <g id="g808">
          <g id="g810">
            <g id="g816">
              <path id="path824" class="cls-4" d="m597.12,72.48c4.18,1.92,4.79,4.57,1.76,7.94-5.92,6.87-26.62,14.1-62.09,21.72-31.21,6.66-71.07,10.45-119.62,11.37-56.08,1.02-102.24,4.13-138.42,9.31-51.27,7.42-101.11,20.03-149.47,37.81-24.19,8.89-43.24,17.03-57.17,24.44,22.02-22.26,46.35-45.57,72.99-69.95,53.37-48.64,91.79-78.14,115.29-88.53,32.95-14.64,64.26-20.3,94-17.03,11.97,1.27,26.52,4.25,43.59,8.92,10.2,2.79,26.95,7.6,50.26,14.4,75.52,21.42,125.14,34.61,148.9,39.57h-.02Z"/>
            </g>
          </g>
        </g>
        <path id="path826" class="cls-71" d="m270.68,22.36c-37.81,24.37-59.77,47.03-65.88,67.96-5.58,19.11,6.24,32.14,35.42,39.13-42.35,8.49-83.05,20.31-122.07,35.47-19.57,7.56-34.92,14.3-46.04,20.18,22.02-22.26,46.35-45.57,72.99-69.95,53.37-48.64,91.79-78.14,115.29-88.53l10.3-4.26Z"/>
        <path id="path828" class="cls-71" d="m435.82,109.71c21.45.6,42.45.23,62.98-1.12-19.51,2.49-52.63,4.25-99.35,5.3-44.83.78-85.05,3.77-120.66,8.97-51.29,7.42-101.13,20.03-149.49,37.81-24.19,8.89-43.24,17.03-57.17,24.44l7.38-7.34c15.02-11.81,42.55-24.2,82.6-37.16,33.2-10.7,76.25-18.91,129.14-24.62,50.18-5.44,98.36-7.54,144.55-6.27h.02Z"/>
        <path id="path830" class="cls-57" d="m419.29,33.54c5.57,3.19,8.76,6.03,9.57,8.56.82,2.76-1.14,4.62-5.88,5.6-9.45,2.05-24.78-.28-45.96-6.99-15.96-5.15-27.98-9.88-36.02-14.18-4.77-2.39-4.74-4.75.1-7.1,4.93-2.48,12.55-3.06,22.83-1.78,23.63,3,42.08,8.3,55.35,15.89h0Z"/>
        <path id="path832" class="cls-71" d="m265.27,40.58c-.53,3.23-2.09,6.43-4.66,9.56-5.01,6.41-12.42,9.65-22.24,9.75-5.77.06-7.89-3.34-6.36-10.16,1.62-6.69,5.52-11.94,11.7-15.68,7.74-4.69,13.66-4.99,17.77-.87,2.05,1.94,3.32,4.42,3.79,7.4Z"/>
        <path id="path834" class="cls-71" d="m301.91,63.59c.59,2.65.22,5.36-1.11,8.14-2.66,5.34-8.84,8.05-18.54,8.14-6.1.06-9.45-2.8-10.09-8.56-.5-5.88,2.21-10.64,8.16-14.28,7.74-4.69,13.68-4.98,17.77-.87,2.06,1.94,3.32,4.41,3.81,7.41h0Z"/>
        <path id="path836" class="cls-71" d="m235.08,105.44c.03,2.99-.95,6.06-2.95,9.19-4.01,6.04-10.86,9.12-20.56,9.21-6.22.06-9.97-3.01-11.27-9.24-1.42-6.33.85-11.32,6.8-14.96,7.74-4.57,14.73-4.98,20.99-1.24,3.06,1.93,5.4,4.27,6.99,7.03h0Z"/>
        <path id="path838" class="cls-71" d="m330.68,11.04c-.89,1.85-2.72,3.78-5.53,5.77-5.72,3.76-13.42,5.67-23.15,5.77-6.2.06-9.54-1.17-10.02-3.72-.59-2.53,2.14-5.62,8.21-9.24,7.74-4.59,15.12-5.74,22.14-3.51,3.64,1.23,6.41,2.88,8.35,4.94h0Z"/>
        <path id="path840" class="cls-71" d="m380.37,69.4c-6.43.06-11.49-2.95-15.17-9.03-3.78-6.2-2.75-11.05,3.08-14.57,4.37-2.58,8.72-2.98,13.02-1.18,3.85,1.71,6.78,4.62,8.73,8.76,2.07,4.02,2.39,7.58.95,10.71-1.67,3.48-5.21,5.26-10.61,5.31h0Z"/>
        <path id="path842" class="cls-71" d="m447.1,51.44c-6.66.06-12.67-2.36-18.03-7.28-5.57-5.13-5.57-9.39.04-12.8,4.39-2.6,9.07-3.15,14.04-1.71,4.31,1.34,7.89,3.84,10.74,7.52,2.75,3.44,3.69,6.61,2.81,9.49-.98,3.14-4.19,4.72-9.6,4.78h0Z"/>
        <path id="path844" class="cls-71" d="m529.53,86.99c-6.96,2.96-14.38,1.07-22.23-5.66-7.87-6.73-8.7-11.97-2.54-15.73,8.98-5.39,17.52-4.09,25.6,3.91,3.31,3.08,4.97,6.29,5,9.64.15,3.58-1.79,6.18-5.84,7.85Z"/>
        <path id="path846" class="cls-71" d="m458.45,91.14c-9.21,4.59-17.02,2.99-23.41-4.79-2.51-3.09-3.85-6.25-3.98-9.48-.03-3.58,1.39-6.25,4.32-8,8.98-5.4,17.17-4.09,24.59,3.9,2.96,3.22,4.4,6.48,4.33,9.83.04,3.8-1.92,6.66-5.85,8.54Z"/>
        <path id="path848" class="cls-71" d="m175.79,103.42l.45,10.04c-1.73,6.59-7.46,9.94-17.18,10.04-6.08.06-9.38-2.51-9.9-7.7-.5-5.18,2.17-9.82,8-13.92,4.26-2.93,8.66-3.55,13.19-1.87,2.26.9,4.07,2.04,5.44,3.41h0Z"/>
        <g id="g850">
          <g id="g852">
            <g id="g858">
              <path id="path866" class="cls-19" d="m267.76,34.5c-.55,3.23-2.09,6.42-4.65,9.56-5.01,6.39-12.44,9.64-22.26,9.73-5.76.06-7.87-3.32-6.37-10.15,1.64-6.71,5.54-11.94,11.7-15.7,7.74-4.69,13.68-4.97,17.77-.87,2.06,1.96,3.32,4.41,3.81,7.42h0Z"/>
            </g>
          </g>
        </g>
        <g id="g868">
          <g id="g870">
            <g id="g876">
              <path id="path884" class="cls-20" d="m304.38,57.51c.59,2.65.22,5.37-1.1,8.14-2.66,5.34-8.85,8.05-18.56,8.14-6.08.06-9.45-2.78-10.07-8.56-.51-5.88,2.21-10.64,8.16-14.26,7.74-4.69,13.66-4.99,17.77-.87,2.05,1.94,3.32,4.42,3.79,7.4Z"/>
            </g>
          </g>
        </g>
        <g id="g886">
          <g id="g888">
            <g id="g894">
              <path id="path902" class="cls-24" d="m237.57,99.36c.03,3.01-.95,6.08-2.95,9.21-4.01,6.04-10.86,9.1-20.58,9.19-6.2.06-9.95-3.01-11.25-9.22-1.42-6.34.83-11.34,6.78-14.96,7.74-4.57,14.75-4.99,20.99-1.25,3.06,1.95,5.4,4.27,7.02,7.03Z"/>
            </g>
          </g>
        </g>
        <g id="g904">
          <g id="g906">
            <g id="g912">
              <path id="path920" class="cls-21" d="m330.68,11.04c-.44.93-1.9,1.81-4.37,2.65-4.84,1.77-12.11,2.71-21.82,2.8-6.2.06-9.55-1.17-10.02-3.71-.59-2.53,2.14-5.62,8.21-9.26,7.74-4.57,14.74-4.69,20.98-.37,3.08,2.16,5.42,4.8,7.02,7.89h0Z"/>
            </g>
          </g>
        </g>
        <g id="g922">
          <g id="g924">
            <g id="g930">
              <path id="path938" class="cls-25" d="m382.84,63.32c-6.43.06-11.47-2.95-15.15-9.02-3.78-6.2-2.77-11.06,3.08-14.58,4.38-2.58,8.72-2.96,13.02-1.16,3.85,1.68,6.76,4.6,8.72,8.74,2.07,4.02,2.39,7.6.95,10.72-1.66,3.48-5.19,5.24-10.62,5.3h0Z"/>
            </g>
          </g>
        </g>
        <g id="g940">
          <g id="g942">
            <g id="g948">
              <path id="path956" class="cls-26" d="m449.54,45.36c-6.66.06-12.66-2.36-18.01-7.26-5.59-5.13-5.57-9.41.04-12.81,4.37-2.58,9.06-3.15,14.04-1.69,4.3,1.34,7.88,3.84,10.74,7.52,2.74,3.42,3.67,6.59,2.8,9.49-.99,3.12-4.19,4.71-9.61,4.76h0Z"/>
            </g>
          </g>
        </g>
        <g id="g958">
          <g id="g960">
            <g id="g966">
              <path id="path974" class="cls-23" d="m532.06,80.91c-6.98,2.94-14.39,1.05-22.25-5.66-7.86-6.74-8.7-11.98-2.52-15.73,8.98-5.4,17.5-4.09,25.6,3.89,3.3,3.1,4.97,6.31,5,9.65.15,3.56-1.81,6.19-5.85,7.85Z"/>
            </g>
          </g>
        </g>
        <g id="g976">
          <g id="g978">
            <g id="g984">
              <path id="path992" class="cls-22" d="m460.98,85.06c-9.22,4.6-17.02,3-23.41-4.77-2.51-3.1-3.85-6.25-4-9.5-.03-3.57,1.41-6.23,4.32-8,8.99-5.4,17.18-4.09,24.6,3.92,2.97,3.2,4.41,6.48,4.33,9.83.04,3.8-1.9,6.64-5.84,8.53Z"/>
            </g>
          </g>
        </g>
        <g id="g994">
          <g id="g996">
            <g id="g1002">
              <path id="path1010" class="cls-27" d="m178.28,97.34l.43,10.03c-1.74,6.59-7.46,9.93-17.17,10.02-6.1.06-9.4-2.5-9.9-7.7-.5-5.18,2.17-9.83,8-13.92,4.26-2.91,8.65-3.55,13.18-1.86,2.27.91,4.09,2.04,5.46,3.41Z"/>
            </g>
          </g>
        </g>
        <path id="path1012" class="cls-51" d="m368.49,136.85l-.4,45.18c.69,36.91,3.12,72.65,7.31,107.23,3.8,31.82,7.98,77.64,12.52,137.49,1.65,20.64,3.26,50.91,4.77,90.82-.78,1.51-3.31,2.11-7.61,1.81-2.04-.22-3.73-.66-5.09-1.34l-1.37-.85c-2.18-60.91-4.93-107.33-8.3-139.27-3.48-33.3-9.3-68.04-17.44-104.19-8.98-40.07-18.54-71.25-28.68-93.53-2.54-5.64-6.62-12.51-12.22-20.65l-7.56-10.49,7.56-5.79c7.3-4.23,16.75-7.08,28.36-8.58,9.81-1.26,17.43-1.27,22.87-.05,2.7.67,4.46,1.39,5.27,2.2h0Z"/>
        <path id="path1014" class="cls-77" d="m311.99,159.56l-7.56-10.49,7.56-5.79c7.3-4.23,16.75-7.08,28.36-8.58,9.81-1.26,17.43-1.27,22.87-.05,2.7.67,4.46,1.39,5.27,2.2l-.51,33.76c-4.76-1.46-9.51-1.12-14.21,1l.04,4.33,2.69,16.06c1.69,10.72,4.05,31.76,7.05,63.12l-3.11-23.86c-1.22-10.03-2.97-20.79-5.23-32.32l-5.65-24.88-4.2,3.51,3.37,16.94c3.68,18.19,8.3,45.84,13.86,82.94-1.99-6.91-4.26-19.8-6.81-38.71-2.68-18.79-7.3-36.79-13.9-54.04-1.09,5.08-.97,10.98.34,17.66.47,2.53,5.08,23.59,13.83,63.2,7.79,35.83,12.42,59.07,13.88,69.79,2.58,20.52,6.09,68.55,10.55,144.08.41,6.47.59,14.65.59,24.57.28,7.05,1.8,11.36,4.52,12.94l-.18-18c-.05-5.19-.86-18.57-2.43-40.12-1.82-25.85-2.96-42.55-3.36-50.17-.56-11.54-1.65-24.56-3.26-39.08l-3.21-33.55,5.28,37.86c.62,6.57,1.56,21.17,2.79,43.77l1.33-2.97c.6-1.41.76-7.48.5-18.17.54,9.7,1.26,25.85,2.16,48.44,1.18,27.57,1.74,44.19,1.68,49.85-.15,7.96.27,15.68,1.25,23.18,1.13.11,2.65-.03,4.56-.4-.78,1.51-3.31,2.11-7.61,1.81-2.04-.22-3.73-.66-5.09-1.34l-1.37-.85c-2.18-60.91-4.93-107.33-8.3-139.27-3.48-33.3-9.3-68.04-17.44-104.19-8.98-40.07-18.54-71.25-28.68-93.53-2.54-5.64-6.62-12.51-12.22-20.65h0Z"/>
        <path id="path1016" class="cls-59" d="m356.7,177.64c-.5-3.22.17-5.02,1.98-5.38,1.57-.47,3.21.61,4.94,3.24.69,1.03,1.22,9.91,1.6,26.64.32,9.11.67,21.51,1.04,37.19.29,9.11,1.76,27.75,4.45,55.96-.66-4.59-1.62-11.14-2.9-19.61-2.4-15.23-3.86-26.16-4.39-32.85-.64-8.19-1.83-20.52-3.57-37-1.5-14.64-2.55-24.04-3.15-28.2Z"/>
        <path id="path1018" class="cls-59" d="m351.52,218.89l1.09,7.95c1.08,5.87,2.13,10.53,3.19,13.98,1.63,5.41,4.62,22.69,8.97,51.84l-3.88-14.86c-3.28-12.3-5.81-21.99-7.56-29-3.4-12.88-5.35-21.35-5.84-25.38-.61-4.73-.41-7.45.6-8.14.9-.6,2.04.6,3.43,3.6Z"/>
        <path id="path1020" class="cls-59" d="m381.22,417.65c-.08-8.55-.37-15.58-.88-21.12l-5.8-56.89,3.75,20.05c2.62,14.87,4.37,25.8,5.23,32.84,1.34,9.91,1.96,16.19,1.87,18.84-.19,4.16-1.58,6.25-4.17,6.28Z"/>
      </g>
    </g>
  </g>
</svg>