<?xml version="1.0" encoding="UTF-8"?>
<svg id="Layer_2" data-name="Layer 2" xmlns="http://www.w3.org/2000/svg" xmlns:xlink="http://www.w3.org/1999/xlink" viewBox="0 0 233.85 269.3">
  <defs>
    <style>
      .cls-1 {
        clip-path: url(#clippath);
      }

      .cls-2 {
        fill: none;
      }

      .cls-2, .cls-3, .cls-4, .cls-5, .cls-6, .cls-7, .cls-8, .cls-9, .cls-10, .cls-11, .cls-12, .cls-13, .cls-14, .cls-15, .cls-16, .cls-17, .cls-18, .cls-19, .cls-20, .cls-21, .cls-22, .cls-23, .cls-24, .cls-25, .cls-26, .cls-27, .cls-28, .cls-29, .cls-30, .cls-31, .cls-32, .cls-33, .cls-34, .cls-35, .cls-36, .cls-37, .cls-38, .cls-39, .cls-40, .cls-41, .cls-42, .cls-43, .cls-44, .cls-45, .cls-46, .cls-47, .cls-48, .cls-49, .cls-50, .cls-51, .cls-52, .cls-53, .cls-54, .cls-55, .cls-56, .cls-57, .cls-58, .cls-59, .cls-60, .cls-61, .cls-62, .cls-63, .cls-64, .cls-65, .cls-66, .cls-67, .cls-68, .cls-69, .cls-70, .cls-71, .cls-72, .cls-73, .cls-74, .cls-75, .cls-76, .cls-77, .cls-78, .cls-79, .cls-80, .cls-81, .cls-82, .cls-83, .cls-84, .cls-85, .cls-86, .cls-87, .cls-88 {
        stroke-width: 0px;
      }

      .cls-89 {
        mask: url(#mask);
      }

      .cls-3 {
        fill: url(#linear-gradient);
      }

      .cls-3, .cls-4, .cls-5, .cls-6, .cls-7, .cls-8, .cls-9, .cls-10, .cls-11, .cls-12, .cls-13, .cls-14, .cls-15, .cls-16, .cls-17, .cls-18, .cls-19, .cls-20, .cls-21, .cls-22, .cls-23, .cls-24, .cls-25, .cls-26, .cls-27, .cls-28, .cls-29, .cls-30, .cls-31, .cls-32, .cls-33, .cls-34, .cls-35, .cls-36, .cls-37, .cls-38, .cls-39, .cls-40, .cls-41, .cls-42, .cls-43, .cls-44, .cls-45, .cls-46, .cls-47, .cls-48, .cls-49, .cls-50, .cls-51, .cls-52, .cls-53, .cls-54, .cls-55, .cls-56, .cls-57, .cls-58, .cls-59, .cls-60, .cls-61, .cls-62, .cls-63, .cls-64, .cls-65, .cls-66, .cls-67, .cls-68, .cls-69, .cls-70, .cls-71, .cls-72, .cls-73, .cls-74, .cls-75, .cls-76, .cls-77, .cls-78, .cls-79, .cls-80, .cls-81, .cls-82, .cls-83, .cls-84, .cls-85, .cls-86, .cls-88 {
        fill-rule: evenodd;
      }

      .cls-90 {
        clip-path: url(#clippath-1);
      }

      .cls-91 {
        clip-path: url(#clippath-4);
      }

      .cls-92 {
        clip-path: url(#clippath-3);
      }

      .cls-93 {
        clip-path: url(#clippath-2);
      }

      .cls-94 {
        clip-path: url(#clippath-7);
      }

      .cls-95 {
        clip-path: url(#clippath-8);
      }

      .cls-96 {
        clip-path: url(#clippath-6);
      }

      .cls-97 {
        clip-path: url(#clippath-5);
      }

      .cls-98 {
        clip-path: url(#clippath-9);
      }

      .cls-99 {
        clip-path: url(#clippath-14);
      }

      .cls-100 {
        clip-path: url(#clippath-13);
      }

      .cls-101 {
        clip-path: url(#clippath-12);
      }

      .cls-102 {
        clip-path: url(#clippath-10);
      }

      .cls-103 {
        clip-path: url(#clippath-15);
      }

      .cls-104 {
        clip-path: url(#clippath-17);
      }

      .cls-105 {
        clip-path: url(#clippath-16);
      }

      .cls-106 {
        clip-path: url(#clippath-11);
      }

      .cls-4 {
        fill: url(#radial-gradient);
      }

      .cls-5 {
        fill: url(#linear-gradient-9);
      }

      .cls-6 {
        fill: url(#linear-gradient-8);
      }

      .cls-7 {
        fill: url(#linear-gradient-3);
      }

      .cls-8 {
        fill: url(#linear-gradient-2);
      }

      .cls-9 {
        fill: url(#linear-gradient-4);
      }

      .cls-10 {
        fill: url(#linear-gradient-5);
      }

      .cls-11 {
        fill: url(#linear-gradient-7);
      }

      .cls-12 {
        fill: url(#linear-gradient-6);
      }

      .cls-13 {
        fill: url(#linear-gradient-14);
      }

      .cls-14 {
        fill: url(#linear-gradient-11);
      }

      .cls-15 {
        fill: url(#linear-gradient-13);
      }

      .cls-16 {
        fill: url(#linear-gradient-10);
      }

      .cls-17 {
        fill: url(#linear-gradient-12);
      }

      .cls-18 {
        fill: url(#linear-gradient-15);
      }

      .cls-19 {
        fill: url(#linear-gradient-16);
      }

      .cls-20 {
        fill: url(#linear-gradient-17);
      }

      .cls-21 {
        fill: url(#linear-gradient-19);
      }

      .cls-22 {
        fill: url(#linear-gradient-23);
      }

      .cls-23 {
        fill: url(#linear-gradient-22);
      }

      .cls-24 {
        fill: url(#linear-gradient-18);
      }

      .cls-25 {
        fill: url(#linear-gradient-20);
      }

      .cls-26 {
        fill: url(#linear-gradient-21);
      }

      .cls-27 {
        fill: url(#linear-gradient-24);
      }

      .cls-28 {
        fill: #362815;
      }

      .cls-29 {
        fill: #422919;
      }

      .cls-30 {
        fill: #40555e;
      }

      .cls-31 {
        fill: #402615;
      }

      .cls-32 {
        fill: #301d10;
      }

      .cls-33 {
        fill: #635035;
      }

      .cls-34 {
        fill: #292727;
      }

      .cls-35 {
        fill: #594730;
      }

      .cls-36 {
        fill: #2b1f10;
      }

      .cls-37 {
        fill: #573e25;
      }

      .cls-38 {
        fill: #3b301e;
      }

      .cls-39 {
        fill: #7d1f0a;
      }

      .cls-40 {
        fill: #523623;
      }

      .cls-41 {
        fill: #4f311e;
      }

      .cls-42 {
        fill: #4f990a;
      }

      .cls-43 {
        fill: #5e2d11;
      }

      .cls-44 {
        fill: #53280f;
      }

      .cls-45 {
        fill: #63a12a;
      }

      .cls-46 {
        fill: #4d391e;
      }

      .cls-47 {
        fill: #7a6342;
      }

      .cls-48 {
        fill: #763a15;
      }

      .cls-49 {
        fill: #458709;
      }

      .cls-50 {
        fill: #54442d;
      }

      .cls-51 {
        fill: #d9983c;
      }

      .cls-52 {
        fill: #d9c72e;
      }

      .cls-53 {
        fill: #c7a46b;
      }

      .cls-54 {
        fill: #ad7e37;
      }

      .cls-55 {
        fill: #d4b724;
      }

      .cls-56 {
        fill: #d43b1a;
      }

      .cls-57 {
        fill: #cc6d00;
      }

      .cls-58 {
        fill: #deb37c;
      }

      .cls-59 {
        fill: #ffc26b;
      }

      .cls-60 {
        fill: #e3ac4b;
      }

      .cls-61 {
        fill: #e6d43d;
      }

      .cls-62 {
        fill: #e6be82;
      }

      .cls-63 {
        fill: #e8c190;
      }

      .cls-64 {
        fill: #fff0d6;
      }

      .cls-65 {
        fill: #ffe2b8;
      }

      .cls-66 {
        fill: #ebc592;
      }

      .cls-67 {
        fill: #fff5f5;
      }

      .cls-68 {
        fill: #fff5e6;
      }

      .cls-69 {
        fill: #ffef69;
      }

      .cls-70 {
        fill: #9a5210;
      }

      .cls-71 {
        fill: #940;
      }

      .cls-72 {
        fill: #6b4b34;
      }

      .cls-73 {
        fill: #996b2f;
      }

      .cls-74 {
        fill: #c43717;
      }

      .cls-75 {
        fill: #b89e1f;
      }

      .cls-76 {
        fill: #b56d17;
      }

      .cls-77 {
        fill: #8c5418;
      }

      .cls-78 {
        fill: #b67f38;
      }

      .cls-79 {
        fill: #9e6a1b;
      }

      .cls-80 {
        fill: #a3280d;
      }

      .cls-81 {
        fill: #b58b57;
      }

      .cls-82 {
        fill: #855d40;
      }

      .cls-83 {
        fill: #87470e;
      }

      .cls-84 {
        fill: #ba9e76;
      }

      .cls-85 {
        fill: #8f5b59;
      }

      .cls-86 {
        fill: #f2e0c7;
      }

      .cls-107 {
        mask: url(#mask-3);
      }

      .cls-108 {
        mask: url(#mask-2);
      }

      .cls-109 {
        mask: url(#mask-5);
      }

      .cls-110 {
        mask: url(#mask-4);
      }

      .cls-111 {
        mask: url(#mask-1);
      }
    </style>
    <clipPath id="clippath">
      <rect class="cls-2" x="159.63" y="14.78" width="10.45" height="21.68" transform="translate(-.24 1.61) rotate(-.56)"/>
    </clipPath>
    <mask id="mask" x="143.27" y="14.73" width="26.92" height="235.26" maskUnits="userSpaceOnUse">
      <g id="mask24">
        <g id="g26">
          <g class="cls-1">
            <g id="g28">
              <path id="path30" class="cls-87" d="m169.98,14.73l-10.45.1.21,21.68,10.45-.1s-.21-21.68-.21-21.68Z"/>
            </g>
          </g>
        </g>
      </g>
    </mask>
    <clipPath id="clippath-1">
      <rect class="cls-2" x="143.4" y="222.82" width="13.06" height="27.1" transform="translate(-2.3 1.47) rotate(-.56)"/>
    </clipPath>
    <clipPath id="clippath-2">
      <rect class="cls-2" x="143.4" y="222.82" width="13.06" height="27.1" transform="translate(-2.3 1.47) rotate(-.56)"/>
    </clipPath>
    <linearGradient id="linear-gradient" x1="6925.21" y1="19255.66" x2="7111.65" y2="19255.66" gradientTransform="translate(-10408.69 4285.63) rotate(47.42) scale(.55 -.55) skewX(1.35)" gradientUnits="userSpaceOnUse">
      <stop offset="0" stop-color="#ed421c"/>
      <stop offset="1" stop-color="#9e2c13"/>
    </linearGradient>
    <clipPath id="clippath-3">
      <rect class="cls-2" x="155.42" y="107.62" width="74.44" height="43.37" transform="translate(-1.25 1.89) rotate(-.56)"/>
    </clipPath>
    <mask id="mask-1" x="135.34" y="78.56" width="94.73" height="72.8" maskUnits="userSpaceOnUse">
      <g id="mask156">
        <g id="g158">
          <g class="cls-92">
            <g id="g160">
              <path id="path162" class="cls-87" d="m229.65,107.26l-74.44.73.42,43.36,74.44-.73-.42-43.36Z"/>
            </g>
          </g>
        </g>
      </g>
    </mask>
    <clipPath id="clippath-4">
      <rect class="cls-2" x="135.61" y="79.01" width="93.06" height="54.21" transform="translate(-1.03 1.78) rotate(-.56)"/>
    </clipPath>
    <clipPath id="clippath-5">
      <rect class="cls-2" x="135.61" y="79.01" width="93.06" height="54.21" transform="translate(-1.03 1.78) rotate(-.56)"/>
    </clipPath>
    <linearGradient id="linear-gradient-2" x1="6974.85" y1="19326.78" x2="6986.34" y2="19326.78" gradientTransform="translate(-10408.98 4282.44) rotate(47.44) scale(.55 -.55) skewX(1.35)" gradientUnits="userSpaceOnUse">
      <stop offset="0" stop-color="#ede7dc"/>
      <stop offset="1" stop-color="#b8aa91"/>
    </linearGradient>
    <linearGradient id="linear-gradient-3" x1="6983.79" y1="19324.15" x2="6996.92" y2="19324.15" gradientTransform="translate(-10409.87 4273.14) rotate(47.53) scale(.55 -.55) skewX(1.35)" xlink:href="#linear-gradient-2"/>
    <linearGradient id="linear-gradient-4" x1="6993.77" y1="19306.62" x2="7008.31" y2="19306.62" gradientTransform="translate(-10409.3 4286.69) rotate(47.41) scale(.55 -.55) skewX(1.35)" xlink:href="#linear-gradient-2"/>
    <linearGradient id="linear-gradient-5" x1="6094.08" y1="19263.54" x2="6106.51" y2="19263.54" gradientTransform="translate(-10399.39 3763.26) rotate(52.41) scale(.55 -.55) skewX(1.3)" xlink:href="#linear-gradient-2"/>
    <linearGradient id="linear-gradient-6" x1="6080.23" y1="19247.96" x2="6095.48" y2="19247.96" gradientTransform="translate(-10399.17 3758.36) rotate(52.45) scale(.55 -.55) skewX(1.3)" xlink:href="#linear-gradient-2"/>
    <linearGradient id="linear-gradient-7" x1="6158.1" y1="19263.85" x2="6170.06" y2="19263.85" gradientTransform="translate(-10400.76 3784.62) rotate(52.2) scale(.55 -.55) skewX(1.31)" xlink:href="#linear-gradient-2"/>
    <linearGradient id="linear-gradient-8" x1="6082.37" y1="19230.57" x2="6098.09" y2="19230.57" gradientTransform="translate(-10399.75 3773.79) rotate(52.31) scale(.55 -.55) skewX(1.31)" xlink:href="#linear-gradient-2"/>
    <linearGradient id="linear-gradient-9" x1="6030.98" y1="19261.04" x2="6040.12" y2="19261.04" gradientTransform="translate(-10400.32 3774.94) rotate(52.29) scale(.55 -.55) skewX(1.31)" xlink:href="#linear-gradient-2"/>
    <linearGradient id="linear-gradient-10" x1="6026.35" y1="19253.05" x2="6036.67" y2="19253.05" gradientTransform="translate(-10399.79 3766.18) rotate(52.38) scale(.55 -.55) skewX(1.3)" xlink:href="#linear-gradient-2"/>
    <linearGradient id="linear-gradient-11" x1="5969.09" y1="19229.96" x2="5975.66" y2="19229.96" gradientTransform="translate(-10398.6 3749.62) rotate(52.54) scale(.55 -.55) skewX(1.3)" xlink:href="#linear-gradient-2"/>
    <linearGradient id="linear-gradient-12" x1="6027.08" y1="19235.84" x2="6040.45" y2="19235.84" gradientTransform="translate(-10399.77 3766.68) rotate(52.38) scale(.55 -.55) skewX(1.3)" xlink:href="#linear-gradient-2"/>
    <linearGradient id="linear-gradient-13" x1="5998.44" y1="19209.32" x2="6007.58" y2="19209.32" gradientTransform="translate(-10399.58 3768.18) rotate(52.36) scale(.55 -.55) skewX(1.3)" xlink:href="#linear-gradient-2"/>
    <linearGradient id="linear-gradient-14" x1="5929.06" y1="19177.4" x2="5935.4" y2="19177.4" gradientTransform="translate(-10397.67 3737.87) rotate(52.65) scale(.55 -.55) skewX(1.3)" xlink:href="#linear-gradient-2"/>
    <clipPath id="clippath-6">
      <rect class="cls-2" x="149.28" y="18.52" width="49.63" height="33.16" transform="translate(-.33 1.7) rotate(-.56)"/>
    </clipPath>
    <mask id="mask-2" x="130.03" y="18.28" width="69.04" height="227.06" maskUnits="userSpaceOnUse">
      <g id="mask462">
        <g id="g464">
          <g class="cls-96">
            <g id="g466">
              <path id="path468" class="cls-87" d="m198.75,18.28l-49.63.48.32,33.16,49.63-.48s-.32-33.16-.32-33.16Z"/>
            </g>
          </g>
        </g>
      </g>
    </mask>
    <clipPath id="clippath-7">
      <rect class="cls-2" x="130.23" y="203.58" width="62.04" height="41.45" transform="translate(-2.18 1.58) rotate(-.56)"/>
    </clipPath>
    <clipPath id="clippath-8">
      <rect class="cls-2" x="130.23" y="203.58" width="62.04" height="41.45" transform="translate(-2.18 1.58) rotate(-.56)"/>
    </clipPath>
    <clipPath id="clippath-9">
      <rect class="cls-2" x="158.63" y="38.96" width="24.81" height="34.44" transform="translate(-.54 1.67) rotate(-.56)"/>
    </clipPath>
    <mask id="mask-3" x="141.19" y="38.84" width="42.42" height="180.88" maskUnits="userSpaceOnUse">
      <g id="mask518">
        <g id="g520">
          <g class="cls-98">
            <g id="g522">
              <path id="path524" class="cls-87" d="m183.27,38.84l-24.81.24.34,34.44,24.81-.24-.34-34.44Z"/>
            </g>
          </g>
        </g>
      </g>
    </mask>
    <clipPath id="clippath-10">
      <rect class="cls-2" x="141.4" y="176.52" width="31.02" height="43.05" transform="translate(-1.92 1.54) rotate(-.56)"/>
    </clipPath>
    <clipPath id="clippath-11">
      <rect class="cls-2" x="141.4" y="176.52" width="31.02" height="43.05" transform="translate(-1.92 1.54) rotate(-.56)"/>
    </clipPath>
    <clipPath id="clippath-12">
      <rect class="cls-2" x="153.23" y="26.23" width="28.73" height="24.23" transform="translate(-.37 1.64) rotate(-.56)"/>
    </clipPath>
    <mask id="mask-4" x="134.94" y="26.09" width="47.14" height="209.63" maskUnits="userSpaceOnUse">
      <g id="mask570">
        <g id="g572">
          <g class="cls-101">
            <g id="g574">
              <path id="path576" class="cls-87" d="m181.84,26.09l-28.73.28.24,24.23,28.73-.28-.24-24.23Z"/>
            </g>
          </g>
        </g>
      </g>
    </mask>
    <clipPath id="clippath-13">
      <rect class="cls-2" x="135.09" y="205.25" width="35.92" height="30.29" transform="translate(-2.14 1.5) rotate(-.56)"/>
    </clipPath>
    <clipPath id="clippath-14">
      <rect class="cls-2" x="135.09" y="205.25" width="35.92" height="30.29" transform="translate(-2.14 1.5) rotate(-.56)"/>
    </clipPath>
    <clipPath id="clippath-15">
      <rect class="cls-2" x="184.42" y="10.71" width="10.45" height="24.23" transform="translate(-.21 1.85) rotate(-.56)"/>
    </clipPath>
    <mask id="mask-5" x="174.31" y="10.66" width="20.68" height="243.81" maskUnits="userSpaceOnUse">
      <g id="mask620">
        <g id="g622">
          <g class="cls-103">
            <g id="g624">
              <path id="path626" class="cls-87" d="m194.75,10.66l-10.45.1.24,24.23,10.45-.1s-.24-24.23-.24-24.23Z"/>
            </g>
          </g>
        </g>
      </g>
    </mask>
    <clipPath id="clippath-16">
      <rect class="cls-2" x="174.45" y="224.11" width="13.06" height="30.29" transform="translate(-2.33 1.78) rotate(-.56)"/>
    </clipPath>
    <clipPath id="clippath-17">
      <rect class="cls-2" x="174.45" y="224.11" width="13.06" height="30.29" transform="translate(-2.33 1.78) rotate(-.56)"/>
    </clipPath>
    <linearGradient id="linear-gradient-15" x1="21.98" y1="16338.15" x2="53.81" y2="16338.15" gradientTransform="translate(-9001.27 280.53) rotate(89.45) scale(.54 -.56) skewX(-.06)" gradientUnits="userSpaceOnUse">
      <stop offset="0" stop-color="#6b4119"/>
      <stop offset="1" stop-color="#a85e1b"/>
    </linearGradient>
    <radialGradient id="radial-gradient" cx="1696.02" cy="-2413.75" fx="1696.02" fy="-2413.75" r="160.68" gradientTransform="translate(1372.99 -945.54) rotate(-164.52) scale(.56 .54) skewX(-.72)" gradientUnits="userSpaceOnUse">
      <stop offset="0" stop-color="#802f00"/>
      <stop offset="1" stop-color="#cc6d00"/>
    </radialGradient>
    <linearGradient id="linear-gradient-16" x1="1954.12" y1="18061.09" x2="1977.1" y2="18061.09" gradientTransform="translate(-9855.72 1583.74) rotate(74.32) scale(.54 -.56) skewX(.68)" gradientUnits="userSpaceOnUse">
      <stop offset="0" stop-color="#ffda96"/>
      <stop offset="1" stop-color="#b88834"/>
    </linearGradient>
    <linearGradient id="linear-gradient-17" x1="1956.04" y1="18027.17" x2="1975.74" y2="18027.17" gradientTransform="translate(-9853.42 1579.32) rotate(74.37) scale(.54 -.56) skewX(.68)" xlink:href="#linear-gradient-16"/>
    <linearGradient id="linear-gradient-18" x1="2003.43" y1="18070.95" x2="2024.07" y2="18070.95" gradientTransform="translate(-9855.67 1584.17) rotate(74.32) scale(.54 -.56) skewX(.68)" xlink:href="#linear-gradient-16"/>
    <linearGradient id="linear-gradient-19" x1="1915.01" y1="18016.52" x2="1928.61" y2="18016.52" gradientTransform="translate(-9851.77 1575.46) rotate(74.41) scale(.54 -.56) skewX(.68)" xlink:href="#linear-gradient-16"/>
    <linearGradient id="linear-gradient-20" x1="1929.89" y1="17964.94" x2="1946.77" y2="17964.94" gradientTransform="translate(-9852.35 1576.39) rotate(74.4) scale(.54 -.56) skewX(.68)" xlink:href="#linear-gradient-16"/>
    <linearGradient id="linear-gradient-21" x1="1911.8" y1="17926.34" x2="1926.11" y2="17926.34" gradientTransform="translate(-9852.86 1577.97) rotate(74.38) scale(.54 -.56) skewX(.68)" xlink:href="#linear-gradient-16"/>
    <linearGradient id="linear-gradient-22" x1="1924.8" y1="17870.99" x2="1940.98" y2="17870.99" gradientTransform="translate(-9854.01 1580.18) rotate(74.36) scale(.54 -.56) skewX(.68)" xlink:href="#linear-gradient-16"/>
    <linearGradient id="linear-gradient-23" x1="1923.72" y1="17910.64" x2="1942.01" y2="17910.64" gradientTransform="translate(-9849.98 1572.14) rotate(74.44) scale(.54 -.56) skewX(.68)" xlink:href="#linear-gradient-16"/>
    <linearGradient id="linear-gradient-24" x1="2003.26" y1="18101.7" x2="2021.32" y2="18101.7" gradientTransform="translate(-9852.92 1577.47) rotate(74.39) scale(.54 -.56) skewX(.68)" xlink:href="#linear-gradient-16"/>
  </defs>
  <g id="svg2">
    <g id="g10">
      <g id="g12">
        <path id="path14" class="cls-65" d="m144.77,180.64c-.44.43-1.16,1.97-2.18,4.61-1.27,3.29-2.25,5.59-2.94,6.92-1.2,2.3-2.18,3.72-2.96,4.24-1.04.65-2.97.96-5.8.95-1.43-.03-4.14-.47-8.11-1.32-2.61-.57-4.33-.47-5.16.31-1.12,1.16-1.17,3.01-.14,5.55,1.11,2.62,2.82,4.11,5.13,4.48,1.88.28,3.22-.03,4.04-.94,1.42-1.5,2.57-2.45,3.44-2.84,1.69-.74,3.71-1.04,6.06-.89l2.94.48c1.38-1.2,2.74-2.77,4.07-4.69,2.71-3.85,4.02-7.56,3.94-11.14-.12-3.36-.25-5.31-.38-5.86-.27-.93-.93-.88-1.96.15Z"/>
        <g id="g16">
          <g class="cls-89">
            <g id="g32">
              <g id="g44">
                <g class="cls-90">
                  <g id="g46">
                    <g id="g48">
                      <g id="g52">
                        <g class="cls-93">
                          <g id="g54">
                            <g id="g56">
                              <path id="path58" class="cls-88" d="m152.69,236.24c.63-2.17,1.26-4.66,1.88-7.48.21-1.07.07-2.11-.43-3.12-.49-1.05-1.19-1.73-2.11-2.02,1.14,1.26,1.4,2.68.76,4.26-.59,1.36-1.05,3.22-1.38,5.56-.36,2.64-.37,4.87,0,6.7,0,.26-1.03-.12-3.08-1.12-2.24-1.04-3.63-1.34-4.19-.91-.43.35-.36,1,.22,1.97,1.15,1.91,1.75,2.92,1.79,3.05.45.84,1.31,1.94,2.58,3.29.83.93,1.52,1.83,2.05,2.73,1.34.47,2.65.1,3.94-1.09,1.3-1.2,1.52-2.13.69-2.78-.84-.65-1.51-1.87-2.03-3.68-.67-2.37-.91-4.16-.7-5.35Z"/>
                            </g>
                          </g>
                        </g>
                      </g>
                    </g>
                  </g>
                </g>
              </g>
            </g>
          </g>
        </g>
        <path id="path60" class="cls-30" d="m154.57,228.76c.54-2.6-.26-4.3-2.4-5.08-2.27-.83-4.47.89-6.61,5.17-2.26,4.57-2.09,9.29.53,14.15.44.81,1.19,1.77,2.25,2.88,1.06,1.11,1.79,2.06,2.18,2.85.4.8,1.49.68,3.29-.35,1.8-1.04,2.43-1.98,1.9-2.83-1.03-.8-1.81-2.12-2.33-3.96-.67-2.37-.91-4.16-.7-5.35.63-2.17,1.26-4.66,1.88-7.48Z"/>
        <path id="path62" class="cls-28" d="m156.3,251.58c1.77-1.93,2.43-3.32,1.99-4.17-.18-.33-.51-.66-.99-.94-.61-.25-1.1-.5-1.44-.75l-.25.77c-.35.55-.99.99-1.94,1.29-1.3.44-2.63.42-3.99-.03.05.21-.02.41-.19.58-.34.26-1.82.87-4.42,1.83-2.34.96-3.4,1.78-3.18,2.45.31.98,1.24,1.78,2.77,2.4,1.75.79,3.64.92,5.69.39,2.13-.53,4.12-1.8,5.97-3.82Z"/>
        <path id="path64" class="cls-46" d="m149.41,249.03l-5.01,1.9c-.82.4-1.24.74-1.23,1.03,0,.34.49.72,1.45,1.13,1.57.71,3.27.5,5.09-.62.74-.43,1.45-.97,2.14-1.62.73-.68.99-1.11.77-1.28-.53-.38-1.59-.56-3.21-.54Z"/>
        <path id="path66" class="cls-80" d="m174.06,171.37c-.43.68-.28,1.7.42,3.05.75,1.52,1.94,2.55,3.56,3.09l6.82,2.49c-.4-.51-.74-1.4-1.01-2.67-.18-.81-.49-1.46-.93-1.97l-.53-.57c1.13.46,2.51.85,4.13,1.17,3.18.73,5.93.89,8.23.49,2.26-.36,4.36-1.87,6.29-4.53l2.19-3.91-1.57.4c-1.52.18-3.4.1-5.62-.27-3.22-.55-6.34-.54-9.37.03.15-.03.31-.07.49-.13.43-.13.95-.69,1.55-1.67l.77-1.48-.78.32c-.78.22-1.78.33-3,.35-1,0-2.44,0-4.31-.02-1.65.1-3.02.5-4.1,1.19-1.73,1.17-2.8,2.71-3.22,4.63Z"/>
        <path id="path68" class="cls-56" d="m199.25,169.27l-4.31-.47c-3.18-.35-5.47-.5-6.86-.44-2.26.1-4.83.71-7.69,1.79.17.04.82.04,1.96-.02,1.57.16,2.98.29,4.25.41,2.4.19,4.56.19,6.47,0,2-.23,3.63-.5,4.89-.81l1.3-.45Z"/>
        <path id="path70" class="cls-56" d="m177.76,168.91l-.58.96,4.37-.68c.96-.14,1.78-.36,2.47-.67l.72-.45-2.36-.3c2.39-.11,3.96-.27,4.7-.49.48-.14.89-.46,1.23-.97l.45-.7-2.41.28c-1.83.19-3.31.41-4.44.68-1.82.4-3.21,1.18-4.16,2.34Z"/>
        <path id="path72" class="cls-56" d="m176.44,168.09c-.34.43-.56.81-.64,1.15-.21.51-.31,1.11-.31,1.79.3,0,.67-.39,1.1-1.16.47-1.19,1.18-2.07,2.13-2.64.6-.34,1.32-.67,2.15-.97l1.04-.33h-1.11c-.87.06-1.56.21-2.08.47-.78.39-1.3.91-1.55,1.55l-.27-.45s-.45.58-.45.58Z"/>
        <path id="path74" class="cls-56" d="m180.72,170.85c-1.22.01-2.22.26-3,.73.95-.18,2-.13,3.13.16.53.13,1.53.54,3.02,1.25,1.58.75,2.78,1.23,3.61,1.43.96.25,2.22.34,3.79.28l2.09-.15-1.51-.75c-.79-.38-1.71-.99-2.76-1.82.65.29,1.61.62,2.88.99.74.25,1.62.48,2.62.68l1.31.24c.34,0,1.02-.28,2.01-.85.61-.39,1.38-1.16,2.33-2.32l1.29-1.61-1.63.59c-1.3.49-2.49.86-3.58,1.12-2.04.49-5.07.58-9.07.28,0,0-6.53-.26-6.53-.26Z"/>
        <path id="path76" class="cls-56" d="m177.87,173.36l-.71.14c.08.17.5.29,1.24.37l2.3.62-1.37-.18,1.57,1.13c1.1.76,1.94,1.66,2.51,2.72-.27-1.36-.92-2.56-1.93-3.62-.61-.67-1.4-1.07-2.36-1.19-.48-.03-.89-.03-1.24.01Z"/>
        <path id="path78" class="cls-56" d="m176.63,173.76c-.79-.2-1.14.01-1.04.65.13.6.47,1.15.99,1.65.66.63,1.8,1.1,3.41,1.43.65.12,1.42.37,2.29.74l1.12.5c-.83-1.06-1.58-1.9-2.25-2.53-.39-.38-.98-.76-1.77-1.13l-.99-.44-.26.51c-.17.39-.29.9-.38,1.54l-.2-.45c-.09-.21-.11-.62-.08-1.21l.05-.9s-.91-.37-.91-.37Z"/>
        <path id="path80" class="cls-74" d="m112.03,112.08c5.85,5.64,12.97,8.57,21.37,8.79,7.49.23,16.32,1.46,26.48,3.7,9.43,2.33,14.99,3.66,16.69,3.99,2.27.45,6.49.32,12.67-.38,5.83-.61,9.17-1.17,10.04-1.69.74-.43.38-3.39-1.07-8.86-1.4-5.47-2.58-8.46-3.54-8.95l-39.7-18.62c-9.48,1.2-17.83,2.51-25.04,3.94-7.47,1.43-12.21,2.71-14.2,3.84-1.26.69-2.5,1.08-3.71,1.18-1,.05-2.17.58-3.51,1.57-1.43.99-1.78,2.59-1.06,4.79.68,2.2,2.2,4.44,4.57,6.71Z"/>
        <path id="path82" class="cls-62" d="m113.68,101.03c-4.28,2.84-3.92,6.31,1.08,10.39,4.16,3.36,9.02,5.69,14.56,7,3.23.74,7.45.99,12.68.77,7.09-.32,11.51-.45,13.25-.38,3.75.17,9.42,1.14,17.01,2.9,6.89,1.72,10.56,2.57,10.99,2.57,4.4-.34,8.83-.94,13.3-1.79,8.95-1.71,13.68-3.8,14.17-6.26.54-2.65-4.99-5.71-16.61-9.22-9.74-2.92-19.78-5.14-30.11-6.66-11.29-1.63-21.01-2.52-29.15-2.65-10.54-.2-17.6.92-21.19,3.33h0Z"/>
        <path id="path84" class="cls-53" d="m115.91,102.03c.53.59,1.32,1.28,2.37,2.08,2.15,1.59,4.54,2.95,7.16,4.07,2.62,1.13,5.4,2.01,8.32,2.66l1.6.27-.63-.09c-2.13-.32-4.16-.53-6.08-.64-3.14-.14-7.96-1.22-14.46-3.24,3.06,1.54,6.36,2.81,9.9,3.8,2.23.66,4.97,1.2,8.24,1.64l4.19.47-9.6.22c-3.44.03-6.69-.33-9.74-1.11.65.34,1.59.71,2.82,1.12,2.49.79,5.13,1.29,7.92,1.52,2.79.27,5.47.18,8.03-.27l3-.73-3.05,2.01c-1.69,1.12-4.11,1.87-7.29,2.24.78.12,2.16.07,4.12-.16,1.22-.1,2.8-.56,4.75-1.39l2.53-1.24-2.58,3.41c1.73-.91,3.14-1.71,4.22-2.4.39-.26,8.98,1.13,25.77,4.15,17.14,3.06,26.95,4.28,29.42,3.67,2.69-.71-.83-2.69-10.57-5.96-4.89-1.65-10.04-3.24-15.46-4.76.08-.51.74-1.47,1.99-2.88.77-.9,2.03-2.15,3.75-3.74l2.33-2.2-1.89.53c-1.21.35-4.07,2.66-8.55,6.91-.01-1.23-.15-2.38-.42-3.44-.19-.63-.85-2.18-2.01-4.63l-1.6-3.5.03,3.51c.09,1.19.66,3.35,1.7,6.49l-7.73-8.66.46,1.15c.44.93,1.02,1.94,1.73,3.04,1.19,1.69,2.05,3.02,2.58,3.99l-8.64-8.14.27.7c.31.72.87,1.74,1.66,3.04,1.24,2.08,2.41,3.6,3.51,4.56l-12.37-9.77c.45,1.1,1.66,2.6,3.63,4.49,1.98,1.9,3.96,3.71,5.93,5.43l-4.14-2.57c-2.81-1.72-6.54-4.46-11.18-8.24.18,1.31,1.18,2.84,2.98,4.56,1.8,1.73,4.54,3.61,8.22,5.66l-4.99-2.19c-3.28-1.46-7.53-4.28-12.75-8.48.27,1.06,1.44,2.5,3.5,4.3,2.06,1.77,5.15,3.9,9.27,6.42l-1.44-.69c-1.31-.59-2.93-1.2-4.85-1.86-3.01-1.12-7.94-3.81-14.77-8.08,1.72,1.73,4.02,3.62,6.92,5.68,2.84,2.05,6.63,3.97,11.35,5.76l-1.38-.37c-1.4-.45-3.38-1.18-5.97-2.17-4.1-1.62-10.36-4.3-18.75-8.04,1.31,1.39,4.54,3.44,9.66,6.15,4.1,2.23,7.51,3.77,10.23,4.62l-9.82-2.64c-3.84-1.12-7.23-2.44-10.16-3.99-1.44-.79-2.51-1.46-3.22-2h0Z"/>
        <path id="path86" class="cls-62" d="m159.81,109.51c-.04-.12-.17-.14-.39-.06l.59.64-.73-.57c-1.03.35-1.77.55-2.21.6l.14.12-.2-.12c-.26.04-1.53-.13-3.79-.54-1.22-.11-2.94,0-5.16.31-1.22.19-2.86.43-4.95.75-2.48.32-3.75,1.12-3.83,2.4-.08.77-.1,1.19-.05,1.28.27.46,1.16.82,2.68,1.06,2.31.4,14.21,1.47,35.69,3.22l-1.71-1.64c-.66-.63-3.52-2.01-8.59-4.13-4.9-2.08-7.39-3.18-7.48-3.31Z"/>
        <path id="path88" class="cls-65" d="m137.12,133.2c-.07,1.12,1.55,2.92,4.85,5.4,3.3,2.49,5.07,5.18,5.3,8.08.23,2.89-.9,4.52-3.38,4.88-2.49.37-3.99.83-4.49,1.38,1,3.26,1.83,6.59,2.51,9.99.87,4.37,1.38,7.13,1.52,8.27,10.07,9.89,20.34,9.86,30.82-.11.66-3.2,1.67-7.12,3.02-11.76,1.55-5.29,4.35-10.82,8.39-16.6l5.55-7.01c-.73-2.67-2.3-5.59-4.72-8.75-4.85-6.33-11.51-10.71-19.98-13.13-8.86-2.55-15.83-3.18-20.92-1.9-2.56.67-4.23,1.57-5.01,2.73l-1.39,4.22c-.87,3.25-1.5,6.92-1.88,10.98-.05.63-.1,1.27-.15,1.92,0,0-.05,1.4-.05,1.4Z"/>
        <path id="path90" class="cls-58" d="m140.59,114.61l-.12.32c1.99-1.17,4.38-1.74,7.16-1.73,2.53.06,6.19.64,10.99,1.74,5.06,1.18,9.15,3.31,12.27,6.38,2.38,2.32,3.99,4.92,4.85,7.8,1.03,3.3-1.18,10.35-6.65,21.11-2.05,4.11-3.31,9.56-3.76,16.37-.24,3.6-.25,7.15-.02,10.65.04.85,3.01-1.12,8.92-5.92.64-3.25,1.66-7.25,3.05-11.99,1.55-5.29,4.35-10.82,8.39-16.6l5.55-7.01c-.73-2.67-2.3-5.59-4.72-8.75-4.85-6.33-11.51-10.71-19.98-13.13-8.43-2.43-15.18-3.1-20.27-2.03-2.69.58-4.58,1.51-5.65,2.8Z"/>
        <path id="path92" class="cls-81" d="m166.51,113.85c-11.09-3.25-19.13-3.49-24.11-.72,2.65-.75,5.76-.91,9.33-.48,2.09.28,5.63,1.01,10.6,2.19,4.67,1.1,8.5,3.34,11.49,6.71,1.98,2.24,4.04,5.7,6.18,10.4,1.91,4.06,4.61,6.59,8.1,7.58,1.16-1.59,2.02-2.7,2.58-3.34l.52-.45c-.73-2.67-2.3-5.59-4.72-8.75-4.85-6.33-11.51-10.71-19.98-13.13h0Z"/>
        <path id="path94" class="cls-65" d="m132.06,137.53c1.79.75,3.85,1.41,6.16,1.98.06.98.15,2.14.3,3.5l3.39-.03,24.59-3.88c-17.74-4.64-27.52-6.58-29.32-5.84-.81,1.63-1.91,2.83-3.29,3.61-.69.39-1.3.6-1.82.65Z"/>
        <path id="path96" class="cls-84" d="m132.07,137.59c.62.34,2.64.95,6.09,1.85v.19s14.52,2.28,14.52,2.28c3.03.38,6.48.5,10.35.35,1.49-.05,3.21-.2,5.19-.44,1.6-.82,2.21-.39,1.84,1.26.52-.71.56-1.38.14-1.98-.41-.6-1.1-.97-2.06-1.13,1.21.67,1.21,1.03.01,1.08-3.43-.21-5.89-.41-7.39-.6-2.29-.3-4.15-.54-5.59-.71-1.44-.16-3.39-.37-5.85-.61-2.46-.25-5.29-.63-8.47-1.13-3.17-.49-6.1-.63-8.79-.43Z"/>
        <path id="path98" class="cls-65" d="m133.07,146.45c3.45,6.09,5.65,10.42,6.59,13.01,2.06,5.5,3.29,9.19,3.7,11.06,2.13-.15,4.5-.54,7.11-1.16,5.21-1.32,8.98-3.25,11.31-5.78,2.32-2.53,4.33-6.69,6.01-12.5l1.6-9.61c-.78.05-2.95.03-6.5-.06-3.55-.1-7.19-.47-10.92-1.11-3.73-.64-8.1-1.28-13.11-1.92-5.01-.64-8.39-.86-10.13-.7l-2.48-.1c1.83,1.81,4.1,4.77,6.81,8.87Z"/>
        <path id="path100" class="cls-68" d="m139.81,138.37c-5.29-.55-8.96-.82-11.02-.81l-2.55-.11,2.78,3.35-1.07-2.22c1.25-.03,4.12.15,8.6.55,4.47.4,9.07.92,13.79,1.56,4.73.63,8.7.98,11.9,1.06,3.2.08,5.63,0,7.28-.26-2.84.08-5.66-.01-8.46-.3-2.8-.3-5.72-.7-8.76-1.22-3.05-.52-7.21-1.05-12.49-1.6Z"/>
        <path id="path102" class="cls-66" d="m133.52,143.06c.76-.29,3.73.32,8.93,1.82,3.27.99,7.61,1.56,13.01,1.72h7.18s-3.98-.16-3.98-.16c-3.23-.4-6.35-1.2-9.37-2.4-3.23-1.33-6.2-2.11-8.9-2.34-2.09-.15-3.74.04-4.96.56,0,0-1.93.79-1.93.79Z"/>
        <path id="path104" class="cls-64" d="m140.35,150.06c-.52,0-.71.66-.57,1.96.15,1.39.72,2.66,1.73,3.8,1.46,1.63,3.24,6,5.36,13.13-.06-5.79-.39-10.28-.99-13.47-.73-3.64-2.57-5.44-5.54-5.41Z"/>
        <path id="path106" class="cls-67" d="m143.08,122.5c-1.13-.03-2.19.53-3.18,1.69-1.03,1.16-1.72,2.59-2.05,4.29-.38,1.7-.29,3.22.24,4.52.49,1.27,1.28,1.92,2.37,1.96,1.09.07,2.15-.47,3.19-1.63,1.03-1.12,1.72-2.55,2.05-4.29.37-1.7.29-3.22-.24-4.53-.49-1.27-1.28-1.94-2.37-2.01Z"/>
        <path id="path108" class="cls-34" d="m138.68,132.99c.44.89,1.08,1.37,1.91,1.45.82.08,1.6-.25,2.34-.97.69-.77,1.14-1.76,1.34-2.95.17-1.19.02-2.24-.42-3.12-.44-.89-1.08-1.37-1.91-1.45-.83-.08-1.61.27-2.34,1.04-.73.74-1.18,1.69-1.34,2.88-.2,1.19-.07,2.24.43,3.12Z"/>
        <path id="path110" class="cls-67" d="m142.53,126.01c-.52-.04-1,.1-1.43.39-.47.35-.73.8-.77,1.35-.08.56.03,1.05.34,1.47.31.42.73.65,1.25.69.52.08,1-.05,1.43-.4.43-.35.69-.79.77-1.35.04-.55-.07-1.04-.34-1.47-.31-.38-.73-.6-1.25-.69Z"/>
        <path id="path112" class="cls-85" d="m139.6,133.37c.79.8,1.58.78,2.35-.09-.61.14-1.22-.08-1.84-.62-.53-.46-.9-1.04-1.13-1.71l-.14-.95-.12,1.15c0,.89.3,1.64.87,2.22Z"/>
        <path id="path114" class="cls-67" d="m168.24,123.02c-2.18.23-3.95,1.17-5.33,2.79-1.42,1.63-2.03,3.48-1.84,5.57.19,2.12,1.15,3.86,2.86,5.2,1.72,1.34,3.65,1.9,5.83,1.66,2.17-.19,3.97-1.1,5.39-2.73,1.37-1.67,1.97-3.55,1.77-5.63-.24-2.13-1.19-3.84-2.86-5.14-1.71-1.34-3.65-1.92-5.83-1.72Z"/>
        <path id="path116" class="cls-34" d="m163.26,135.69c1.14,1.05,2.5,1.57,4.06,1.55s2.89-.56,3.97-1.63c1.12-1.03,1.67-2.29,1.66-3.78s-.6-2.76-1.73-3.81c-1.1-1.05-2.43-1.57-4-1.56s-2.91.56-4.03,1.63c-1.08,1.08-1.61,2.36-1.6,3.85s.57,2.74,1.67,3.74Z"/>
        <path id="path118" class="cls-67" d="m166.62,131.76c.62.59,1.36.88,2.23.87.82,0,1.54-.31,2.15-.92.6-.64.9-1.38.89-2.24s-.32-1.57-.93-2.16c-.62-.59-1.34-.88-2.16-.87-.87,0-1.61.31-2.22.92-.6.6-.9,1.32-.89,2.18s.32,1.59.93,2.22Z"/>
        <path id="path120" class="cls-85" d="m168.23,136.15l1.24-.72c-1.04.27-2.24.09-3.6-.54-1.79-.79-2.83-1.87-3.11-3.22l.09,1.53c.27,1.14,1.02,2.03,2.25,2.66,1.05.58,2.09.68,3.13.29Z"/>
        <path id="path122" class="cls-65" d="m171.03,122.15v-.29c-.69-.14-1.41-.21-2.16-.2-2.57.03-4.72.9-6.44,2.62-1.81,1.76-2.7,3.92-2.68,6.47s.96,4.56,2.8,6.29c.67.67,1.4,1.22,2.17,1.64-.53-.34-1.03-.76-1.51-1.26-1.85-1.72-2.78-3.82-2.8-6.28s.87-4.71,2.68-6.47c1.72-1.72,3.87-2.58,6.44-2.61.51,0,1.01.03,1.5.11Zm-25.12,2.03c.49,1.65.45,3.59-.14,5.81-.55,2.13-1.47,3.88-2.76,5.26-.97.91-1.92,1.41-2.83,1.52,1.11.11,2.27-.4,3.48-1.53,1.29-1.38,2.21-3.13,2.75-5.26.59-2.22.64-4.15.14-5.81-.58-1.74-1.51-2.77-2.77-3.1-.4-.09-.79-.12-1.17-.08.17.02.35.05.52.09,1.27.33,2.19,1.36,2.77,3.1Z"/>
        <path id="path124" class="cls-37" d="m150.93,136l-1.04.78,1.95-.47-.39.2c-.21.08-.48.26-.77.52l1.17-.33,1.17-.14-.58.2-.84.45c.69-.17,1.68-.33,2.94-.47,1.39-.1,3-.09,4.83.02,2.52.14,4.46.47,5.82.97.74.29,2.23,1.08,4.46,2.38,1.79,1.05,3.33,1.67,4.59,1.87,4.01.56,6.16-.59,6.43-3.44.12-1.19-.35-2.09-1.4-2.73-1.01-.58-1.96-.62-2.88-.1-1.04.57-1.33,1.25-.89,2.05-.05-.12.06-.44.32-.96s.8-.67,1.63-.46c.88.16,1.33.6,1.38,1.33.1.76-.14,1.43-.7,1.99-.6.55-1.52.88-2.73.98-1,.05-2.2-.32-3.6-1.11-2.98-1.72-4.51-2.59-4.6-2.63-3.63-1.8-7.53-2.5-11.71-2.12-1.08.05-2.15.32-3.19.8l.58-.64-1.24.21c-.91.18-1.56.41-1.95.72l.65-.07-.26.13c-.17.09-.37.3-.58.65l1.44-.53h0Z"/>
        <path id="path126" class="cls-37" d="m128.43,133.09c-.65.18-1.08.63-1.29,1.35-.25.86-.18,1.6.22,2.23.36.67.95.93,1.77.74.52-.09,1.72-.46,3.59-1.12,1.77-.61,2.99-.96,3.64-1.05,2.04-.32,3.57-.23,4.58.27l2.1,1.19-.27-.63-.19-.19.59.19.73.5-.6-.76.66.31.79.57-.53-.63-.2-.13,1.25.44.13.13-.33-.38-.2-.12.53.18.2.13-.33-.57c-.31-.3-.66-.55-1.05-.76l-.59-.31.53.69.19.19-1.44-.95c-1.36-.58-2.93-.82-4.71-.71-1.61.14-3.46.61-5.54,1.39-1.91.78-3.08,1.18-3.51,1.18-.82.05-1.24-.41-1.25-1.39s.33-1.43,1.03-1.48c.56-.05.87.14.92.56.05.25.02.49-.06.71.65-.43.73-.9.25-1.4-.4-.38-.92-.5-1.57-.37h0Z"/>
        <g id="g128">
          <g id="g130">
            <g id="g136">
              <path id="path144" class="cls-3" d="m109.27,103.5c1.29-1.41,3.85-2.67,7.67-3.78,7.64-2.24,17.76-2.62,30.36-1.12,6.63.79,13.78,4.99,21.47,12.61,6.11,6.02,11.49,12.99,16.14,20.89,3.49,5.96,8.11,10.04,13.83,12.24,4.68,1.74,9.95,2.22,15.82,1.44,7.87-1.1,13.47-3.09,16.79-5.97,2.94-2.58,3.28-4.65,1.05-6.2-5.83-4.07-9.81-8.15-11.94-12.26-2.24-5.8-4.84-11.3-7.8-16.5-4.74-8.33-9.22-14.54-13.44-18.62-4.84-4.67-9.87-7.21-15.09-7.63-7.75-.6-21.14,1.86-40.16,7.4-18.84,5.46-30.6,10.21-35.26,14.25-1.34,1.2-1.66,2.1-.96,2.69,0,0,1.51.56,1.51.56Z"/>
            </g>
          </g>
        </g>
        <path id="path146" class="cls-74" d="m109.27,103.5c1.29-1.41,3.85-2.67,7.67-3.78,7.64-2.24,17.76-2.62,30.36-1.12,5.45.67,11.31,3.67,17.59,9.02-6.43-7-15.15-10.78-26.17-11.36-6.57-.36-12.45-.22-17.62.43-5.7.69-9.87,1.92-12.51,3.69-1.25,1.12-1.5,1.97-.75,2.56,0,0,1.44.56,1.44.56Z"/>
        <g id="g148">
          <g class="cls-111">
            <g id="g164">
              <g id="g176">
                <g class="cls-91">
                  <g id="g178">
                    <g id="g180">
                      <g id="g184">
                        <g class="cls-97">
                          <g id="g186">
                            <g id="g188">
                              <path id="path190" class="cls-88" d="m199.04,88.22l-.5,1.85c.01,1.44.98,2.63,2.9,3.54,1.14.54,1.79.26,1.95-.85.21-1.02-.04-2.12-.75-3.31-.84-1.4-1.7-2.03-2.57-1.89-.43.09-.78.31-1.04.65Z"/>
                              <path id="path192" class="cls-88" d="m207.52,100.13c-.68,1.54-.56,3.03.37,4.46.8,1.18,1.83,1.96,3.1,2.33.79.25,1.12-.35,1.03-1.8-.06-1.45-.53-2.61-1.41-3.49-1.01-.97-1.69-1.56-2.04-1.77-.48-.25-.83-.16-1.04.27Z"/>
                              <path id="path194" class="cls-88" d="m195.87,97.93c-1.61.1-2.35,1.28-2.25,3.53.11,2.17.87,3.69,2.26,4.57,1.27.83,2.42.7,3.46-.42,1.08-1.11,1.39-2.41.94-3.9-.41-1.19-1.05-2.14-1.92-2.85-.79-.67-1.62-.98-2.5-.94Z"/>
                              <path id="path196" class="cls-88" d="m217.18,112.59c-1,.05-1.25,1.14-.75,3.26.51,2.08,1.17,3.33,2,3.75.61.29.87.18.78-.33-.31-1.44-.47-2.23-.48-2.35-.06-1.49-.18-2.55-.36-3.19-.23-.76-.62-1.15-1.19-1.14Z"/>
                              <path id="path198" class="cls-88" d="m208.92,115.67c-1.22.05-2.04.7-2.46,1.94-.25.77-.35,1.66-.31,2.68.16,2.42,1.17,3.88,3.05,4.37,1.18.33,2.22-.06,3.13-1.18.82-1.03,1.13-2.2.95-3.52-.19-1.23-.72-2.27-1.6-3.11-.88-.84-1.8-1.23-2.75-1.18Z"/>
                              <path id="path200" class="cls-88" d="m223.53,127.26c-.82.52-.71,1.47.35,2.86,1.06,1.44,2.27,2.23,3.61,2.39.61.03.89-.2.85-.71-.05-.26-.3-1.02-.74-2.29-.41-1.1-.93-1.88-1.59-2.34-.79-.5-1.61-.47-2.48.09Z"/>
                              <path id="path202" class="cls-88" d="m193.78,111.03c-2.14-.74-3.66-.41-4.56,1-.82,1.29-.8,2.73.04,4.33.79,1.48,1.87,2.43,3.22,2.84,1.4.45,2.48.17,3.26-.86.77-1.03.93-2.41.48-4.15-.45-1.7-1.26-2.75-2.45-3.16Z"/>
                              <path id="path204" class="cls-88" d="m189.23,79.43c-1.53-.32-2.9-.37-4.12-.15-1.13.18-1.44.44-.91.78.66.46,1.6.89,2.82,1.31,1.49.53,2.64.7,3.46.48.78-.18.98-.59.57-1.22-.39-.63-1.01-1.03-1.84-1.2Z"/>
                              <path id="path206" class="cls-88" d="m188.36,84.48c-1.35-.24-2.39.02-3.12.8-.69.77-.75,1.57-.17,2.36.75.97,1.91,1.53,3.48,1.69,1.48.15,2.5-.02,3.06-.54.52-.47.42-1.26-.28-2.36-.75-1.1-1.74-1.75-2.96-1.95Z"/>
                              <path id="path208" class="cls-88" d="m173.77,80.86c.56-.68.19-1.15-1.12-1.39-1.18-.2-2.25-.13-3.2.22-1.86.79-2.86,1.22-2.99,1.31-.95.56-.69,1,.8,1.33.91.2,2.2.08,3.85-.36,1.48-.35,2.37-.72,2.67-1.11Z"/>
                              <path id="path210" class="cls-88" d="m182.22,90.6c-2.01-.57-3.66-.32-4.96.75-1.29.99-1.63,2.12-1.01,3.39.58,1.14,1.63,1.9,3.16,2.26,1.44.37,2.73.27,3.85-.29,1-.56,1.34-1.64,1.01-3.26-.28-1.53-.96-2.47-2.05-2.85Z"/>
                              <path id="path212" class="cls-88" d="m159.96,84.84c-2-.03-3.65.48-4.95,1.51-1.21.95-1.55,1.63-1.03,2.05.62.5,1.62.81,3.01.92,1.39.07,2.72-.09,3.98-.48,1.39-.44,2.01-1.21,1.87-2.32-.14-1.1-1.11-1.67-2.89-1.69Z"/>
                              <path id="path214" class="cls-88" d="m142.67,86.14c-1.52-.07-3.04.39-4.55,1.38-1.51.99-1.77,1.61-.77,1.86,1.27.37,2.75.32,4.44-.17,1.21-.31,2.27-.77,3.19-1.38.56-.34.53-.73-.07-1.14-.57-.34-1.31-.52-2.23-.55Z"/>
                            </g>
                          </g>
                        </g>
                      </g>
                    </g>
                  </g>
                </g>
              </g>
            </g>
          </g>
        </g>
        <g id="g216">
          <g id="g218">
            <g id="g224">
              <path id="path232" class="cls-8" d="m197.91,86.18l-.5,1.86c.06,1.4,1.05,2.56,2.97,3.48,1.14.54,2.05.26,2.73-.86.68-1.15.7-2.28.03-3.38-.84-1.44-1.95-2.04-3.35-1.82-.74.09-1.37.34-1.89.72Z"/>
            </g>
          </g>
        </g>
        <g id="g234">
          <g id="g236">
            <g id="g242">
              <path id="path250" class="cls-7" d="m206.45,98.02c-.68,1.54-.56,3.03.37,4.46.8,1.18,1.83,1.98,3.1,2.39.79.25,1.41-.4,1.88-1.93.42-1.58.21-2.79-.62-3.63-.84-.88-1.8-1.45-2.89-1.69-1-.25-1.61-.11-1.83.4Z"/>
            </g>
          </g>
        </g>
        <g id="g252">
          <g id="g254">
            <g id="g260">
              <path id="path268" class="cls-9" d="m195.21,96.28c-1.61.1-2.34,1.27-2.18,3.53.11,2.17.84,3.69,2.2,4.57,1.27.84,2.44.7,3.52-.41,1.07-1.11,1.37-2.42.87-3.9-.4-1.19-1.05-2.13-1.92-2.85-.79-.68-1.62-.99-2.49-.93Z"/>
            </g>
          </g>
        </g>
        <g id="g270">
          <g id="g272">
            <g id="g278">
              <path id="path286" class="cls-10" d="m216.11,110.49c-1.04.05-1.31,1.14-.82,3.26.5,2.08,1.19,3.33,2.06,3.75.74.37,1.28.28,1.63-.27.34-.51.48-1.31.43-2.36-.05-1.28-.48-2.36-1.27-3.24-.66-.76-1.34-1.14-2.04-1.13Z"/>
            </g>
          </g>
        </g>
        <g id="g288">
          <g id="g290">
            <g id="g296">
              <path id="path304" class="cls-12" d="m208.37,113.76c-1.22.05-2.04.7-2.46,1.94-.34.81-.44,1.7-.31,2.69.16,2.42,1.17,3.87,3.05,4.37,1.18.33,2.22-.06,3.12-1.18.82-1.03,1.13-2.2.95-3.52-.19-1.23-.72-2.27-1.6-3.11-.88-.85-1.8-1.24-2.75-1.19Z"/>
            </g>
          </g>
        </g>
        <g id="g306">
          <g id="g308">
            <g id="g314">
              <path id="path322" class="cls-11" d="m222.46,125.17c-.87.52-.77,1.47.29,2.86,1.06,1.44,2.29,2.23,3.68,2.39,1.4.2,1.74-.68,1.02-2.62-.35-1.06-1.04-1.88-2.05-2.47-1.05-.67-2.03-.72-2.94-.16Z"/>
            </g>
          </g>
        </g>
        <g id="g324">
          <g id="g326">
            <g id="g332">
              <path id="path340" class="cls-6" d="m192.98,109.25c-2.14-.7-3.66-.35-4.56,1.06-.82,1.32-.8,2.77.04,4.33.79,1.44,1.87,2.39,3.22,2.84,1.36.45,2.42.16,3.19-.86.82-1.03,1-2.41.55-4.15-.45-1.7-1.26-2.77-2.45-3.23Z"/>
            </g>
          </g>
        </g>
        <g id="g342">
          <g id="g344">
            <g id="g350">
              <path id="path358" class="cls-5" d="m188.1,77.35c-1.44-.28-2.64-.01-3.59.8-.86.78-.99,1.37-.37,1.79.53.38,1.35.67,2.49.87,1.22.24,2.27.26,3.14.04.78-.23.9-.82.37-1.79-.49-.93-1.17-1.5-2.04-1.71Z"/>
            </g>
          </g>
        </g>
        <g id="g360">
          <g id="g362">
            <g id="g368">
              <path id="path376" class="cls-16" d="m188.09,83.6c-1.31-.24-2.35.04-3.12.86-.69.73-.75,1.5-.18,2.3.58.76,1.6,1.22,3.08,1.37,1.44.15,2.42,0,2.94-.48.52-.47.51-1.19-.02-2.17-.62-1.02-1.51-1.64-2.7-1.89Z"/>
            </g>
          </g>
        </g>
        <g id="g378">
          <g id="g380">
            <g id="g386">
              <path id="path394" class="cls-14" d="m173.17,80.17c.56-.48.18-.88-1.13-1.2-1.26-.29-2.3-.28-3.13.03-3.04,1.22-3.77,2.1-2.19,2.64.87.29,2.11.22,3.72-.23,1.44-.44,2.35-.85,2.74-1.24Z"/>
            </g>
          </g>
        </g>
        <g id="g396">
          <g id="g398">
            <g id="g404">
              <path id="path412" class="cls-17" d="m182.53,95.52c1-.56,1.34-1.65,1.01-3.27-.28-1.52-.96-2.47-2.05-2.85-2.01-.58-3.66-.32-4.95.75-1.3.99-1.64,2.12-1.01,3.39.58,1.14,1.63,1.9,3.15,2.27,1.45.37,2.73.27,3.85-.29Z"/>
            </g>
          </g>
        </g>
        <g id="g414">
          <g id="g416">
            <g id="g422">
              <path id="path430" class="cls-15" d="m159.17,84.01c-1.96-.02-3.46.51-4.49,1.58-.9.99-1.11,1.71-.63,2.17.39.38,1.18.61,2.36.68,1.3.07,2.56-.09,3.78-.49,1.39-.44,2.01-1.18,1.87-2.25-.14-1.11-1.11-1.67-2.89-1.7Z"/>
            </g>
          </g>
        </g>
        <g id="g432">
          <g id="g434">
            <g id="g440">
              <path id="path448" class="cls-13" d="m141.88,85.52c-1.53-.03-2.89.58-4.1,1.82-1.21,1.21-1.26,1.84-.17,1.91.91.03,2.11-.19,3.58-.67,1.3-.44,2.3-.88,2.99-1.31.56-.38.53-.77-.07-1.15-.53-.34-1.27-.54-2.23-.61h0Z"/>
            </g>
          </g>
        </g>
        <path id="path450" class="cls-65" d="m173.52,175.9c.04-.42.33-1.81.88-4.16-7.69,4.45-17.97,4.38-30.82-.21.5,5.58.61,9.72.31,12.43-.35,3.49-2.12,8.46-5.27,14.91-3.63,7.39-5.61,11.68-5.95,12.88-1.85,6.4-1.9,12.14-.16,17.22,2.06,6.06,6.54,10.23,13.44,12.5,6.9,2.31,13.28,2.95,19.15,1.92,5.47-.95,10.68-3.36,15.61-7.23,3.11-2.41,5.73-6.01,7.86-10.79,1.32-2.99,2.17-5.51,2.54-7.56.08-.38-2.04-4.06-6.38-11.03-4.86-7.78-7.92-13.28-9.18-16.5-1.83-4.57-2.5-9.37-2.03-14.39Z"/>
        <path id="path452" class="cls-30" d="m132.41,212.59c-1.63,6.31-1.56,11.9.23,16.77,2.15,5.85,6.59,9.89,13.31,12.12,6.9,2.31,13.29,2.95,19.15,1.91,5.47-.94,10.68-3.36,15.61-7.23,3.11-2.42,5.73-6.01,7.86-10.79,1.32-2.99,2.17-5.51,2.54-7.56.08-.34-.74-1.9-2.46-4.7-2.39-3.8-4.27-6.84-5.64-9.13-3.46,2.67-7.11,4.98-10.96,6.93-5.98,2.99-11.75,4.68-17.32,5.08-8.22.63-15.66-.51-22.3-3.42Z"/>
        <g id="g454">
          <g class="cls-108">
            <g id="g470">
              <g id="g482">
                <g class="cls-94">
                  <g id="g484">
                    <g id="g486">
                      <g id="g490">
                        <g class="cls-95">
                          <g id="g492">
                            <g id="g494">
                              <path id="path496" class="cls-88" d="m132.66,211.75c-1.85,6.4-1.9,12.14-.16,17.22,2.06,6.06,6.54,10.23,13.44,12.5,6.9,2.31,13.29,2.95,19.15,1.92,5.47-.95,10.68-3.36,15.61-7.23,3.11-2.41,5.73-6.01,7.86-10.79,1.32-2.99,2.17-5.51,2.54-7.56.08-.34-.76-1.97-2.53-4.88-2.53-4.02-4.49-7.19-5.91-9.51l-10.05,7.17c.83,4.97.79,9.24-.14,12.83-1.09,4.3-3.56,7.92-7.41,10.85-3.97,3.1-8.14,4.57-12.5,4.39-3.92-.13-7.59-1.52-11.01-4.17-3.25-2.47-5.71-5.64-7.41-9.49-1.73-3.89-2.29-7.71-1.68-11.46l.31-2.11-.13.32Z"/>
                            </g>
                          </g>
                        </g>
                      </g>
                    </g>
                  </g>
                </g>
              </g>
            </g>
          </g>
        </g>
        <path id="path498" class="cls-35" d="m173.52,176.09c-2.07,1.42-5.2,2.47-9.37,3.15-4.39.72-8.72.82-12.99.32-1.79-.19-3.24-.57-4.39-1.11-.83-.37-1.75-.96-2.76-1.75.15,2.51.11,4.93-.13,7.27-.36,3.19-1.79,7.5-4.31,12.93-1.41,2.95-3.37,6.98-5.89,12.11.98,1.99,2.54,3.8,4.69,5.44,2.54,1.93,5.45,3.15,8.72,3.68,6.54,1.04,13.22.06,20.02-2.94,6.2-2.74,11.21-6.51,15.04-11.31l-.55-2.16c-2.96-4.82-4.98-8.62-6.05-11.42-1.79-4.45-2.46-9.18-2.03-14.2Z"/>
        <path id="path500" class="cls-86" d="m150.78,208.07c6.88.27,12.77-.47,17.67-2.22,3.78-1.35,7.62-3.62,11.55-6.81l-1.46-2.53c-3.33,2.2-6.97,3.97-10.92,5.33-5.3,1.75-10.6,2.51-15.92,2.26-6.35-.36-10.99-1.57-13.88-3.63l-1.92,3.78c3.33,2.27,8.29,3.53,14.87,3.81Z"/>
        <path id="path502" class="cls-86" d="m182.15,203.87l-.27-1.14c-3.5,2.55-7.75,4.63-12.74,6.25-6.51,2.11-13.28,2.98-20.29,2.62-6.35-.32-11.31-1.42-14.85-3.3l-.32.71c.88,1.78,2.3,3.47,4.23,5.06,3.32,1.03,7.22,1.59,11.71,1.67,10.8.19,20.48-2.52,29.05-8.13,1.38-1.28,2.55-2.53,3.49-3.73Z"/>
        <path id="path504" class="cls-86" d="m154.13,182.78c-4.14-.38-7.48-1.37-10.02-2.97.01,1.2-.04,2.39-.16,3.58,2.58,1.38,5.99,2.15,10.21,2.32,7.62.27,14.05-1.22,19.29-4.46-.1-.68-.1-1.38-.02-2.1-2.3,1.21-5.14,2.17-8.53,2.89-3.82.8-7.41,1.05-10.76.74Z"/>
        <path id="path506" class="cls-86" d="m152.49,196.13c-4.7-.42-8.44-1.45-11.2-3.08l-1.53,3.4c3.54,1.83,7.34,2.97,11.39,3.4,3.88.39,8.1.03,12.66-1.08,4.99-1.2,9.31-3.11,12.94-5.74l-1.13-2.41c-2.64,1.64-6,3.02-10.09,4.11-4.81,1.32-9.17,1.79-13.05,1.4Z"/>
        <path id="path508" class="cls-86" d="m174.28,186.54l-.48-2.16c-2.03,1.33-4.98,2.49-8.85,3.46-4.78,1.24-9.1,1.62-12.98,1.15-3.62-.48-6.48-1.19-8.58-2.15-.21.98-.52,2.05-.94,3.2,2.71,1.42,5.96,2.22,9.75,2.39,9.06.34,16.42-1.62,22.08-5.89Z"/>
        <g id="g510">
          <g class="cls-107">
            <g id="g526">
              <g id="g538">
                <g class="cls-102">
                  <g id="g540">
                    <g id="g542">
                      <g id="g546">
                        <g class="cls-106">
                          <g id="g548">
                            <g id="g550">
                              <path id="path552" class="cls-88" d="m158.01,179.81c.4,4.76.57,9.26.53,13.52-.07,6.5-.72,11.38-1.95,14.62-.47,1.24-1.83,1.82-4.1,1.76-1.31-.03-3.38-.24-6.21-.64-2.27-.19-3.59.25-3.97,1.31-.5,1.41.37,4.04,2.63,7.88,4.09.13,8.84-.34,14.22-1.42,5.78-1.16,10.14-2.63,13.08-4.4l-1.64-34.93c-3.48,1.35-7.66,2.11-12.59,2.29Z"/>
                            </g>
                          </g>
                        </g>
                      </g>
                    </g>
                  </g>
                </g>
              </g>
            </g>
          </g>
        </g>
        <path id="path554" class="cls-50" d="m173.95,173.02c-1.77,1.72-4.15,2.96-7.14,3.71-2.74.71-4.81.79-6.2.25l1.06,28.25c.22,4.97.03,9.33-.59,13.08-.33,1.87-.69,3.26-1.07,4.16,2.65-.41,5.67-1.36,9.05-2.84,6.72-3.04,11.82-7.32,15.29-12.84l.19-.32c-4.69-7.48-7.68-12.87-8.98-16.17-2.1-5.21-2.63-10.97-1.6-17.27Z"/>
        <path id="path556" class="cls-38" d="m173.95,173.02c-1.77,1.72-4.15,2.96-7.14,3.71l-.85.19c-.17,5.45.38,10.58,1.65,15.42.64,2.63,1.81,6.91,3.52,12.85,1.31,5.26,1.96,9.35,1.94,12.29,4.76-2.77,8.52-6.33,11.26-10.7l.19-.32c-4.69-7.48-7.68-12.87-8.98-16.17-2.1-5.21-2.63-10.97-1.6-17.27Z"/>
        <path id="path558" class="cls-33" d="m145.57,182.8v-7.14c-.79-.25-1.49-.73-2.11-1.45.39,3.62.42,6.82.09,9.63-.35,3.45-2.12,8.4-5.28,14.84-3.63,7.39-5.61,11.68-5.95,12.88-.55,1.87-.94,3.88-1.19,6,1.97.92,3.8,1.33,5.5,1.22.24-2.26.65-4.88,1.23-7.86,1.2-6,2.68-10.83,4.43-14.46,1.8-3.63,2.88-8.19,3.26-13.68Z"/>
        <path id="path560" class="cls-47" d="m163.49,205.72c.13,4.46-.41,9.08-1.62,13.86l3.58-.74c1.13-.27,2.47-.79,4.04-1.57l2.02-1.1c-4.13.94-6.41,1-6.86.2-.22-.42-.25-1.49-.09-3.19.24-2.64.35-4.87.33-6.7-.02-2.39-.39-6.42-1.1-12.11l-.99-7.77s.7,19.13.7,19.13Z"/>
        <g id="g562">
          <g class="cls-110">
            <g id="g578">
              <g id="g590">
                <g class="cls-100">
                  <g id="g592">
                    <g id="g594">
                      <g id="g598">
                        <g class="cls-99">
                          <g id="g600">
                            <g id="g602">
                              <path id="path604" class="cls-36" d="m140.52,207.47c-1.6.62-3.05,1.33-4.35,2.15-.13.22-.41,2.56-.84,7.03-.23,2.81.76,6.75,2.99,11.83,1.12,2.59,2.25,4.87,3.4,6.85.04-.85.33-1.89.89-3.13,1.06-2.48,2.8-4.69,5.22-6.62,1.9-1.55,4.53-2.62,7.87-3.2,4.3-.81,6.82-1.36,7.56-1.67,2.47-1,4.28-3.31,5.42-6.94.76-2.34,1.14-4.58,1.11-6.71-3.75,3.95-6.8,6.4-9.14,7.36-1.52.66-3.66.06-6.42-1.79-.61-.37-2.78-2.08-6.52-5.1-1.54-1.22-3.93-1.24-7.18-.06Z"/>
                            </g>
                          </g>
                        </g>
                      </g>
                    </g>
                  </g>
                </g>
              </g>
            </g>
          </g>
        </g>
        <path id="path606" class="cls-38" d="m165.97,178.52l-22.6-6.54.34,1.59c.92.93,3.68,2.45,8.27,4.57,2.89,1.38,6.07,2.3,9.56,2.78l4.45.27s-.03-2.68-.03-2.68Z"/>
        <path id="path608" class="cls-80" d="m171.72,172.34c-2.69,1.26-6.03,1.87-10.04,1.82-4.05,0-8.26-.53-12.62-1.6-2.19-.49-3.98-1-5.37-1.54-.91,0-1.2.29-.84.84.17.3.44.57.79.83l3.15,2.01c2.76,1.51,5.77,2.69,9.05,3.55,3.93.98,7.68,1.31,11.25.97,3.56-.29,6.17-1.17,7.81-2.63,1.34-1.2,1.68-2.59,1-4.15l-1.39-2.03-2.79,1.94Z"/>
        <path id="path610" class="cls-39" d="m174.89,176.59c1.17-.99,1.59-2.15,1.27-3.46-.18-.85-.62-1.66-1.33-2.41-.82.72-1.59,1.52-2.32,2.38l.53.51c.3.47.31.89.01,1.28-.77.98-3.1,1.5-6.97,1.54l-5.62.05c2.4.57,4.64.84,6.74.82,1.31-.01,2.52-.15,3.66-.42l1.37-.4-1.3.97c-1.87.61-5.24.75-10.12.42-4.31-.3-8.27-1.26-11.85-2.89-2.85-1.29-4.46-2.4-4.87-3.33l-.27-.64h-.13c-.91.01-1.2.29-.84.84.17.3.44.57.79.83l3.15,2.01c2.76,1.51,5.77,2.69,9.05,3.55,3.93.98,7.68,1.31,11.25.97,3.56-.29,6.17-1.16,7.81-2.62Z"/>
        <g id="g612">
          <g class="cls-109">
            <g id="g628">
              <g id="g640">
                <g class="cls-105">
                  <g id="g642">
                    <g id="g644">
                      <g id="g648">
                        <g class="cls-104">
                          <g id="g650">
                            <g id="g652">
                              <path id="path654" class="cls-88" d="m182.76,239.71c.76-2.43,1.49-5.22,2.21-8.37.29-1.24.15-2.43-.43-3.57-.62-1.14-1.48-1.87-2.57-2.2.57.55.95,1.22,1.13,2.03.23.93.15,1.85-.23,2.74-.68,1.58-1.21,3.65-1.57,6.2-.45,2.98-.47,5.49-.06,7.53-.07,1.27-.78,2.39-2.12,3.33-1.42,1.08-2.77,1.07-4.04-.02.53.93,1.55,2.15,3.04,3.67.97,1.01,1.43,1.66,1.39,1.96,4.44,1.62,6.72.73,6.83-2.68-1.29-1.28-2.22-2.85-2.79-4.69-.77-2.63-1.03-4.61-.78-5.93Z"/>
                            </g>
                          </g>
                        </g>
                      </g>
                    </g>
                  </g>
                </g>
              </g>
            </g>
          </g>
        </g>
        <path id="path656" class="cls-30" d="m172.59,240.71c.28,2.08,1.09,4.26,2.41,6.54.53.89,1.59,2.18,3.18,3.86.87.91,1.35,1.65,1.46,2.21,4.26,1.43,6.52.52,6.76-2.74-1.26-1.19-2.21-2.85-2.85-4.94-.77-2.63-1.03-4.6-.78-5.93.76-2.43,1.49-5.22,2.21-8.37.25-1.15.1-2.3-.43-3.44s-1.33-1.9-2.37-2.27c-2.66-.95-5.26.99-7.77,5.82-1.63,3.07-2.23,6.16-1.8,9.27Z"/>
        <path id="path658" class="cls-28" d="m188.29,251.14c-1.1-.54-1.67-.83-1.7-.87l-.33-.12-.64.77c-.65.55-1.62.97-2.93,1.24-2.13.44-3.28.5-3.46.16h-.06c.22.33.18.61-.12.83l-5.2,2.02c-2.78,1.14-4.05,2.06-3.83,2.78.41,1.06,1.5,1.97,3.29,2.72,2.1.83,4.35.95,6.73.38,2.48-.57,4.83-2,7.08-4.27,2.07-2.11,2.86-3.65,2.37-4.62-.22-.42-.62-.76-1.18-1.01Z"/>
        <path id="path660" class="cls-46" d="m177.68,254.3c-1.48.39-2.93.96-4.36,1.7-1.69.87-2.14,1.47-1.35,1.8,2.23.91,4.14,1.09,5.75.52,1.08-.39,2.16-1.06,3.25-2.01,1.21-1.08,1.33-1.74.37-1.98-1.18-.37-2.4-.38-3.65-.03Z"/>
        <path id="path662" class="cls-65" d="m170.46,183.13c-1.05-.76-1.94-.32-2.67,1.3-.56,1.28-.88,2.88-1,4.79-.15,2.59-.53,5.42-1.15,8.49-.88,4.47-2.02,7.82-3.43,10.04-1.38,2.14-2.89,2.86-4.55,2.15-1.01-.46-2.69-1.57-5.06-3.33-2.28-1.43-4-2.43-5.19-3.01-1.88-.96-4.1-1.6-6.68-1.91-2.92-.36-5.11.16-6.58,1.53-1.38,1.37-2.01,3.47-1.9,6.27.06,2.29.6,3.86,1.61,4.7.7.5,2.21,1.34,4.53,2.51,1.62,1.09,3.03,1.04,4.24-.17l1.35-2.11-.65-.38c-.44-.29-.66-.95-.67-1.97.03-1.15.59-1.92,1.67-2.31,1.04-.35,2.17-.38,3.39-.1l1.57.49,4.87,3.27c3.67,1.96,6.57,2.51,8.7,1.64,2.3-.92,4.34-3.53,6.13-7.85,1.36-3.28,2.31-6.72,2.83-10.29.45-3.07.6-5.84.44-8.3-.16-2.93-.76-4.76-1.81-5.47Z"/>
        <path id="path664" class="cls-63" d="m142.7,203.75l.52-.13-1.43.14c-1.18.19-2.24.6-3.19,1.25-.65.43-1.3,1.16-1.94,2.19-.79-.93-1.41-1.54-1.85-1.83-.79-.54-1.44-.62-1.96-.24-.51,1.16-.72,2.6-.61,4.35.06,2.29.6,3.86,1.61,4.7.7.5,2.21,1.34,4.53,2.51,1.62,1.09,3.03,1.04,4.24-.17l1.35-2.11-.65-.38c-.44-.29-.66-.95-.67-1.97.03-1.15.59-1.92,1.67-2.31,1.04-.35,2.17-.38,3.39-.1l1.57.49,4.87,3.27c3.67,1.96,6.57,2.51,8.7,1.64,2.3-.92,4.34-3.53,6.13-7.85,1.36-3.28,2.31-6.72,2.83-10.29.37-2.47.55-4.81.52-7.03-.07-2.55-.41-4.44-1.04-5.66.28,2.29.18,5.46-.3,9.51-.45,4.04-1.07,7.05-1.88,9.01-1.53,3.75-2.57,6.12-3.13,7.11-1.38,2.27-2.95,3.41-4.74,3.43-1.35.01-3.82-1.11-7.41-3.37-3.68-2.26-6.26-3.45-7.74-3.56-1.44-.07-3.03.42-4.76,1.45-1.47.82-2.6,1.02-3.39.61.8-1.92,1.82-3.21,3.03-3.86.69-.39,1.26-.65,1.69-.78Z"/>
        <path id="path666" class="cls-44" d="m139.17,223.05l-8.16.46c-6,.4-10.34.91-12.98,1.53-2.87.66-5.74,2.92-8.62,6.78-2.28,3.08-3.93,6.16-4.94,9.23-.84,2.39-.44,5.45,1.21,9.18,1.69,3.77,3.4,5.16,5.13,4.16,1.86-1.08,5.07-2.58,9.62-4.5,4.68-2,7.76-3.12,9.24-3.34,1.26-.18,3.57-.25,6.92-.19l4.71.08.89-2.43s-3.01-20.95-3.01-20.95Z"/>
        <path id="path668" class="cls-40" d="m130.99,234.67l1.51.18c-1.31-.41-3.08-.65-5.3-.71-3.79-.13-7.09,1.39-9.88,4.56-2.93,3.34-4.52,7.64-4.77,12.86-.25,5.7.9,10.07,3.46,13.11,2.56,3.08,6.33,4.61,11.34,4.6h.2c-3.53-.09-6.22-1.62-8.07-4.58-1.86-2.96-2.67-7.09-2.41-12.41.21-5.27,1.67-9.58,4.38-12.92,2.67-3.26,5.85-4.82,9.55-4.69Z"/>
        <path id="path670" class="cls-40" d="m129.64,236.98c-.57.05-1.06.12-1.5.21,2.32.78,4.1,2.47,5.34,5.05,1.15,2.29,1.74,4.96,1.77,8.02.03,3.49-.46,6.44-1.48,8.88-1.23,3.07-3.22,4.92-5.95,5.54-1.78.4-3.42.31-4.9-.27-.74-.29-1.31-.62-1.71-1.01l1.32,1.64c1.18,1.05,2.45,1.51,3.8,1.37,2.39-.02,4.22-.15,5.48-.38,2.17-.4,3.64-1.41,4.41-3.04.94-2.05,1.72-5.07,2.33-9.08.62-4.22.67-7.21.17-8.99-.49-1.61-1.6-3.3-3.31-5.07-1.4-1.43-2.53-2.34-3.36-2.71-.48-.21-1.28-.27-2.42-.17Z"/>
        <path id="path672" class="cls-72" d="m133,240.39l-1.79,4.23c-1.45,3.2-2.9,5.85-4.36,7.95-2.36,3.34-4.9,6.38-7.62,9.13l3.03,2.26c4.04-5.18,6.79-8.97,8.25-11.37.9-1.5,1.72-3.88,2.47-7.17l.87-4.54c-.04-.09-.11-.17-.19-.25-.18-.21-.4-.3-.66-.25Z"/>
        <path id="path674" class="cls-29" d="m133.79,240.64l-1.79,4.23c-1.49,3.2-2.97,5.85-4.43,7.95-2.32,3.34-4.86,6.38-7.62,9.13l3.1,2.2c4.04-5.14,6.77-8.91,8.18-11.3.9-1.5,1.82-3.38,2.76-5.64l1.14-3.01c-.37-1.7-.81-2.88-1.34-3.56Z"/>
        <path id="path676" class="cls-32" d="m121.65,240.76l-.84.64c-.48.6-.54,1.34-.18,2.24.58,1.48,4.66,7.35,12.25,17.61l1.51.69.5-2.11-13.25-19.07Z"/>
        <path id="path678" class="cls-82" d="m122.75,239.66l-.84,1.15c-.47.98-.41,1.98.16,3,1.33,2.37,5.46,8.28,12.39,17.74.17.04.52-.35,1.04-1.16.29-.51.49-1.05.57-1.6l.06-.7c-2.07-2.53-3.94-4.96-5.62-7.28l-7.75-11.15Z"/>
        <path id="path680" class="cls-41" d="m122.62,240.04l-.84,1.22c-.42.98-.35,1.98.23,2.99,1.28,2.33,5.41,8.22,12.38,17.67.13.04.45-.35.97-1.15.35-.52.56-1.05.64-1.6l.06-.64c-2.07-2.53-3.95-4.97-5.62-7.34,0,0-7.82-11.15-7.82-11.15Z"/>
        <path id="path682" class="cls-31" d="m130.64,238.88c2.18.11,3.9,1.34,5.2,3.71,1.15,2.29,1.79,5.36,1.91,9.23.08,3.7-.69,6.89-2.32,9.59-1.63,2.69-3.66,4.14-6.09,4.33-2.78.24-4.91-.8-6.36-3.13-1.51-2.32-2.17-5.68-1.99-10.06.13-4.12,1.15-7.47,3.03-10.04,1.85-2.53,4.06-3.74,6.63-3.64Zm10.5,12.4c-.14-4.93-1.04-8.88-2.73-11.83-1.82-3.05-4.29-4.63-7.43-4.78-3.7-.13-6.89,1.43-9.55,4.69-2.71,3.34-4.17,7.65-4.38,12.92-.3,5.66.62,9.98,2.74,12.98,2.12,3,5.18,4.33,9.18,3.99,3.52-.29,6.45-2.14,8.77-5.57,2.36-3.47,3.49-7.6,3.41-12.41Z"/>
        <path id="path684" class="cls-55" d="m47.98,179.29c-1.18-.29-1.83.1-1.95,1.17-.17,1.07.34,1.53,1.51,1.39,1-.1,1.46-.52,1.36-1.29-.09-.72-.4-1.15-.92-1.27Z"/>
        <path id="path686" class="cls-75" d="m47.41,181.53c-.82.35-1.29-.02-1.38-1.13-.09.42,0,.78.27,1.08.26.3.68.42,1.24.37,1-.1,1.46-.52,1.36-1.29-.09-.72-.4-1.15-.92-1.27l-.4-.06c.31.38.45.82.41,1.34-.04.47-.24.79-.58.96Z"/>
        <path id="path688" class="cls-61" d="m50.98,173.01c.34-1.24.22-2.32-.36-3.25-.44-.8-1.06-1.35-1.85-1.64-2.4-.83-4.27-.15-5.59,2.03-.95,1.5-1.43,3.12-1.46,4.87-.03.93-.35,1.66-.96,2.18-.3.26-.6.41-.91.45.18.51.62,1,1.32,1.46,1.32.96,3.19,1.46,5.63,1.48,1.35.03,2.45-.19,3.32-.67l.91-.64c-.39-.46-.66-.87-.8-1.21-.22-.63.02-2.32.74-5.05h0Z"/>
        <path id="path690" class="cls-69" d="m45.51,168.86c-1.56.95-2.48,2.42-2.76,4.42-.16.98-.15,1.88.03,2.68l.82-2.49c.38-1.02.83-1.8,1.35-2.31.69-.47,1.24-.86,1.62-1.16.56-.47.69-.88.38-1.22-.31-.38-.79-.35-1.44.08h0Z"/>
        <path id="path692" class="cls-52" d="m49.9,170.28l-.68,3.45c-.59,2.43-1.22,4.06-1.92,4.86-.77.94-1.87,1.46-3.31,1.56.79.25,1.7.37,2.75.36,1.35-.06,2.46-.32,3.33-.8-.76-1.19-.8-3.03-.12-5.55.25-.94.38-1.79.37-2.56l-.07-.89c-.05-.3-.11-.47-.2-.51-.04,0-.09.02-.13.06Z"/>
        <path id="path694" class="cls-49" d="m52.64,170.31c-.56-.16-1.09-.56-1.57-1.19-.49-.67-1.3-1.07-2.43-1.19-.84-.8-1.89-1.11-3.15-.92-.81.16-1.26.2-1.37.11l.53.79c.17.25.44.48.79.7l.53.31-.39.96c-.25.6-.42,1.17-.5,1.73l1.69-.15c.48-.05.91-.33,1.3-.84l.44-.83c.05.21.62.53,1.71.94.7.25,1.3.26,1.82.04,0,0,.58-.46.58-.46Z"/>
        <path id="path696" class="cls-45" d="m49.5,168.75c.62-3.27,1.93-5.09,3.93-5.46,4.39-.72,6.8,1.63,7.25,7.07.35,4.08.21,12.92-.39,26.54.39.21.81.31,1.24.31.91.04,1.55-.44,1.88-1.42.27-11.87.24-20.09-.11-24.68-.26-3.65-1.4-6.45-3.42-8.39-1.98-1.85-4.35-2.49-7.14-1.91-3.09.62-5.04,3.02-5.87,7.2.31.59.75.93,1.32,1.01.44.08.87,0,1.31-.27h0Z"/>
        <path id="path698" class="cls-49" d="m52.55,160.82c-2.95.75-4.84,3.15-5.68,7.19.49.98,1.28,1.26,2.36.87-.7-.46-.86-1.52-.49-3.18.5-2.05,1.77-3.67,3.81-4.88Z"/>
        <path id="path700" class="cls-49" d="m55.31,162.7c-1.34.06-2.36.43-3.06,1.11.35-.3.74-.47,1.18-.52,4.39-.72,6.8,1.63,7.25,7.07.35,4.08.21,12.92-.39,26.54.39.21.81.31,1.24.31.91.04,1.55-.44,1.88-1.42v-.07c-1.38,1.04-1.95.34-1.72-2.09.19-3.06.32-6.57.42-10.52.16-6.12.09-10.46-.2-13.01-.33-2.72-1.22-4.71-2.67-5.97-1.1-1.01-2.41-1.48-3.94-1.42Z"/>
        <path id="path702" class="cls-42" d="m48.99,169.58c-.21.09-.09.28.4.57.52.25,1.07.39,1.64.43.52.04.87,0,1.04-.13l.13-.13-.92-.18c-.3-.13-.76-.38-1.38-.75-.3-.04-.61.02-.91.2Z"/>
        <path id="path704" class="cls-42" d="m50.36,169.13c-.13.04-.13.09,0,.12.09.09.22.15.39.19.18.04.24.02.2-.06,0-.09-.07-.15-.2-.19-.17-.09-.3-.1-.39-.06Z"/>
        <path id="path706" class="cls-42" d="m51.15,169.63c-.35,0-.26.08.26.25.13,0,.15-.04.06-.13-.13-.09-.24-.12-.33-.12Z"/>
        <path id="path708" class="cls-42" d="m47.4,169.09l-.7,1.15-.97.96s.26-.02.91-.2c.83-.35,1.28-.66,1.36-.91.09-.26.07-.49-.07-.7-.13-.25-.31-.36-.53-.31Z"/>
        <path id="path710" class="cls-42" d="m46.76,168.78c-.48-.03-.8.61-.96,1.93.26.04.63-.35,1.1-1.16.21-.51.17-.77-.13-.77Z"/>
        <path id="path712" class="cls-42" d="m45.05,167.39c.09.34.29.57.59.7.53.21.79.1.78-.32,0-.26-.46-.38-1.38-.37Z"/>
        <path id="path714" class="cls-42" d="m45.64,167.19l1.05.12c.22-.13.15-.21-.2-.25-.26-.04-.55,0-.85.13Z"/>
        <path id="path716" class="cls-48" d="m61.07,257.61l3.97-8.33-6.61-1.53-.16,10.85s2.8-.99,2.8-.99Z"/>
        <path id="path718" class="cls-43" d="m58.44,247.75l.02,2.48c.91.04,1.72.24,2.42.62.87.46,1.43,1.09,1.65,1.9l.27,1.08,2.24-4.55s-6.61-1.53-6.61-1.53Z"/>
        <path id="path720" class="cls-79" d="m55.51,249.06c.06,1.87.17,3.37.31,4.53.15,1.27.24,2.72.3,4.33l2.16.68.61-11.55-3.47-.41s.09,2.42.09,2.42Z"/>
        <path id="path722" class="cls-48" d="m91.11,256.49l-9.29-2.14.02,1.72c.01,1.15-.12,5.46-.4,12.95l3.51-1.18c1.24-2.06,2.09-3.57,2.56-4.56,0,0,3.6-6.79,3.6-6.79Z"/>
        <path id="path724" class="cls-43" d="m81.81,254.35l.03,3.38c1.22.03,2.35.32,3.4.86,1.18.62,1.93,1.49,2.24,2.59l.34,1.52,3.27-6.22-9.29-2.14Z"/>
        <path id="path726" class="cls-79" d="m82.45,253.38l-4.78-.66.42,9.05c-.02,2.25.04,4.3.19,6.13l3.15,1.11c.57-7.83.91-13.04,1.02-15.64Z"/>
        <path id="path728" class="cls-48" d="m151.03,213.74l-5.78-3.83-.85-.05c-.65.09-1.15.33-1.49.71-.61.65-.49,1.39.35,2.23l5.32,3.77c1.09.07,1.81-.23,2.15-.91.21-.43.32-.88.31-1.34v-.58Z"/>
        <path id="path730" class="cls-76" d="m146.68,216.08l5.28-1.77c-.09-.22-.31-.47-.66-.76-.61-.59-1.47-1.09-2.56-1.51-1.79-.66-5.79-1.67-11.98-3.01l-.23,3.32s10.16,3.73,10.16,3.73Z"/>
        <path id="path732" class="cls-48" d="m140.09,210.28l-2.78,9.66c8.35-.8,12.98-1.68,13.88-2.62.82-.86,1.09-1.74.82-2.62-.27-1.06-1.3-1.77-3.09-2.14-2.62-.53-5.57-1.28-8.84-2.27Z"/>
        <path id="path734" class="cls-60" d="m132.42,194.09c-9.26-2.81-21.55-4.06-36.87-3.79-17.24.3-29.07,1.56-35.49,3.79-3.73,1.31-5.59,3.01-5.57,5.09.02,2.04,2.46,4.8,7.33,8.29,6.22,4.49,13.81,7.41,22.74,8.76,8.59,1.32,18.87,3.59,30.82,6.78l15.39,4.38,10.95-29.06c-.4-.38-1.07-.82-2.04-1.32-1.92-1.09-4.35-2.06-7.27-2.92Z"/>
        <path id="path736" class="cls-78" d="m134.68,197.7l-3.34-1.43c-2.54-1-4.44-1.64-5.7-1.92-.09,0-1.46-.37-4.12-1.11-1.57-.45-3.08-.69-4.52-.72-.48,0-3.27-.2-8.37-.62-4.4-.34-7.82-.48-10.25-.41-3.44.08-9.58.31-18.41.69-2.65.11-5.63.48-8.94,1.1-3.22.59-5.38,1.14-6.51,1.66-.39.18-1.78.62-4.17,1.32-1.69.53-2.6,1.03-2.73,1.5-.17.68,3.85,2.02,12.05,4.02,8.42,2.05,14.46,3.05,18.12,3.01,4.53,0,7.73,0,9.6-.03,3.08-.07,6.18-.28,9.27-.6,2.17-.23,5.13-.44,8.87-.6,2.83-.16,5-.37,6.52-.64,1-.23,2.3-.41,3.92-.55.91-.1,1.96-.38,3.12-.86,1.3-.52,2.43-1.13,3.38-1.82l1.04-.84-7.82,1.99c-1.95.53-3.56.91-4.82,1.13-1.39.18-3.15.29-5.28.31-1.52.01-4.05.21-7.57.58-3.69.42-6.26.63-7.7.65-6.87.28-11.71.31-14.5.08-2.61-.23-5.93-.77-9.94-1.63-4.01-.81-6.81-1.55-8.38-2.21-2.1-.83-3.81-1.71-5.12-2.63l4.36-1.57c3.08-1.26,7.08-2.11,11.99-2.54,3.83-.38,8.57-.6,14.23-.65,5.92-.06,11.03.06,15.35.36,7.93.43,13.01,1.12,15.24,2.08.79.34,1.93.73,3.41,1.18,1.4.45,2.27.74,2.62.86.74.34,1.7.62,2.88.86.78-.22,1.52-.23,2.22-.02Z"/>
        <path id="path738" class="cls-78" d="m128.67,197.7c-5.19-1.48-9.65-2.52-13.35-3.12-3.53-.6-6.23-.98-8.11-1.14-3.22-.26-6.81-.27-10.78-.02-5.96.4-10.35.55-13.18.45,5.8.5,10.28.65,13.46.44,4.88-.26,9.73-.09,14.57.5,4.49.55,8.68,1.59,12.57,3.13.65.25.81.42.46.51-.35.08-1.67.23-3.98.42-1.13.1-2.63.34-4.5.75-1.61.36-3.76.59-6.46.7l-16.19.48c-5.22.13-9.32.09-12.28-.14-2.44-.23-4.51-.62-6.22-1.15-2.09-.66-3.38-.99-3.86-.98.74.5,1.79,1,3.15,1.5,2.66,1,5.43,1.48,8.3,1.45,1.78-.02,5.05.1,9.8.35,4.01.22,7.34.25,9.99.1,2.05-.14,4.63-.27,7.76-.39,2.4-.07,4.66-.21,6.79-.45,2.48-.28,5.28-.84,8.41-1.68l3.91-1.18c.13-.04.22-.08.26-.13.08-.13-.09-.25-.53-.38Z"/>
        <path id="path740" class="cls-78" d="m78.55,194.49c-1.96.02-3.48.24-4.56.69-.09.04-.63.39-1.62,1.04l-.78.39.99,1.01c-.05-.17.01-.36.19-.58.3-.48.93-.82,1.88-1.04.44-.09,1.06-.31,1.89-.66.57-.17,1.55-.35,2.94-.54.7-.08,1.41-.13,2.12-.15l-3.04-.16Z"/>
        <path id="path742" class="cls-78" d="m78.04,195.96c-1.3.86-1.46,1.52-.5,1.98.31.16.59.4.85.69.44.21,1.44.3,3.01.29,1.39-.01,3.68.11,6.86.38,3.57.26,5.75.41,6.53.45.7,0,1.51.07,2.42.23.52.08,1.66.05,3.4-.1l6.53-.38-4.05.17c-3.05.03-5.47-.12-7.25-.44-1.74-.33-3.69-.52-5.82-.59-1.18-.03-2.74-.08-4.71-.14-1.79-.11-2.85-.23-3.2-.35-2.14-.53-3.26-.96-3.35-1.31-.04-.34.93-.64,2.93-.92.61-.09,1.46-.16,2.55-.22,1.43-.01,2.35-.04,2.74-.09l5.42-.25-11.24.05c-1.17.01-1.91.04-2.22.08-.26.09-.57.24-.91.46Z"/>
        <path id="path744" class="cls-78" d="m96.67,197.69c-1.57.02-1.96.06-1.17.14.13.04,1.65.18,4.58.4,1.74.15,3.35.22,4.83.21,1.26-.09,1.98-.14,2.15-.15l3.92-.04c1.43-.01,3.07-.1,4.9-.24,1.91-.15,3.02-.3,3.32-.48.26-.13.02-.23-.72-.31-.52-.08-1.61-.2-3.27-.35-.43-.04-1.59-.22-3.46-.55-1.62-.28-3.6-.49-5.95-.64-3.75-.26-6.62-.24-8.62.08.26,0,2.26.1,6.01.32,1.18.07,3.07.31,5.69.71l3.6.54-1.17.08c-.74.09-5.62.18-14.63.27Z"/>
        <path id="path746" class="cls-78" d="m87.33,197.27l15.15-.47-1.05-.12c-.92-.12-1.85-.17-2.81-.16-1.52.01-4.75-.04-9.66-.16-3.96,0-5.81.14-5.55.43.31.25,1.62.41,3.93.47Z"/>
        <path id="path748" class="cls-78" d="m113.52,204.54c-1.78.19-2.94.27-3.46.23-.39-.04-.89,0-1.5.08-.7.18-1.7.4-3,.67-.83.18-.87.24-.13.19l5.74-.06c1.35-.01,3.66-.35,6.92-1.02l4.49-1s-9.07.92-9.07.92Z"/>
        <path id="path750" class="cls-70" d="m136.68,235.83c2.28,2.1,3.82,5.77,4.61,10.99l1.82-1.29c-1.09-9.13-1.66-16.23-1.71-21.28-.03-3.15,0-8.42.11-15.82l.23-10.08-1.49,1.48c-1.47,1.2-3.41,2.31-5.84,3.31-7.76,3.22-18.79,4.9-33.06,5.04-15.71.15-28.25-1.3-37.59-4.35-4.67-1.53-7.76-3.07-9.25-4.63l-.15,4.85c-.05,3.91-.06,7.57-.02,10.97.05,5.48-.37,15.65-1.27,30.49,2.77,2.44,7.01,4.78,12.74,7.02,11.4,4.52,24.44,6.27,39.1,5.23,4.61-.34,7.81-.67,9.6-.98.05-3.28.48-6.53,1.28-9.77.96-3.97,2.34-7.02,4.15-9.16,2.5-3.04,5.38-4.71,8.64-5,3-.24,5.71.75,8.13,2.99h0Z"/>
        <path id="path752" class="cls-83" d="m101.02,221.57c.18,4.46-.29,10.44-1.39,17.93-.66,4.26-1.68,10.44-3.08,18.53,2.7.06,5.48-.03,8.35-.28l1.18-.07c-1.2-6.88-1.53-11.31-.99-13.32.09-.3,1.28-3.01,3.58-8.14,1.96-4.4,3.06-7.78,3.29-10.17.24-2.51.3-5.57.17-9.18,0-.51-.12-3.55-.35-9.12-3.56.25-7.05.39-10.44.43h-.52c-.05,4.21.02,8.68.19,13.39Z"/>
        <path id="path754" class="cls-83" d="m134.1,231.64l2.03,1.2c-1.37-1.73-2.75-5.04-4.15-9.91-.72-2.46-.89-5.75-.48-9.88.65-4.47,1.1-7.56,1.34-9.26-4.08,1.45-8.73,2.51-13.94,3.2,2.29,3.63,3.94,7,4.93,10.09.86,2.71,1.17,5.77.94,9.17-.11,1.66-.31,3.07-.61,4.22l4.51-.04c1.87-.02,3.68.39,5.43,1.22Z"/>
        <path id="path756" class="cls-83" d="m141.29,198.92c-.43.47-.99.94-1.68,1.42-1.21,10.43-1.65,18.13-1.34,23.09,0,.43.45,3.38,1.33,8.86.55,3.26.47,5.73-.26,7.4.94,1.99,1.59,4.36,1.96,7.12l1.82-1.29c-1.09-9.13-1.66-16.23-1.71-21.28-.03-3.15,0-8.42.11-15.82l.23-10.08s-.45.58-.45.58Z"/>
        <path id="path758" class="cls-83" d="m115.77,247c.96-3.97,2.34-7.02,4.15-9.16,1.94-2.32,4.08-3.83,6.42-4.53-1.4-.24-3.59.38-6.58,1.85-3.12,1.56-5.57,3.35-7.33,5.37-1.25,1.46-2.99,3.69-5.23,6.68-2.02,2.4-3.99,3.86-5.9,4.39-3.52.97-5.75,1.5-6.71,1.6-2.22.15-3.45-.63-3.68-2.33-.1-.81-1.26-4.67-3.51-11.57-2.2-6.78-3.41-11.68-3.61-14.69-.47-8.29,2.17-13.8,7.94-16.53-12.37-.48-22.29-2.1-29.76-4.88-3.76-1.36-6.26-2.7-7.49-4.01l-.15,4.85c-.05,3.91-.06,7.57-.02,10.97.05,5.48-.37,15.65-1.27,30.49,2.77,2.44,7.01,4.78,12.74,7.02,11.4,4.52,24.44,6.27,39.1,5.23,4.61-.34,7.81-.67,9.6-.98.05-3.28.48-6.53,1.28-9.77h0Z"/>
        <path id="path760" class="cls-48" d="m115.77,247c.96-3.97,2.34-7.02,4.15-9.16,1.46-1.8,3.06-3.09,4.8-3.87h-.26c-2.95.58-5.67,3.26-8.15,8.05-3.16,6.07-5,9.36-5.52,9.87-3.32,3.31-9.95,4.35-19.89,3.13-2.88-.36-5.18-1.67-6.9-3.96l-1.73-3.3-4.81,1.9-5.02,1.07c-2.08.49-3.81-.26-5.18-2.25l-1.4-3.11-.58.52c-.91-.2-2.71-1.59-5.4-4.16-3.25-3.11-5.25-6.96-5.99-11.54l-.83,15.31c2.77,2.44,7.01,4.78,12.74,7.02,11.42,4.52,24.45,6.27,39.11,5.23,4.61-.34,7.81-.67,9.6-.98.05-3.28.48-6.53,1.28-9.77h-.01Z"/>
        <path id="path762" class="cls-48" d="m82.98,246.68c-.06-1.74-.81-5.33-2.26-10.76-1.36-5.26-2.05-9.16-2.07-11.71-.03-2.98.48-6,1.54-9.07,1.06-2.94,2.43-5.44,4.1-7.5-3.31-.31-6.75-.74-10.33-1.3-.63,1.96-1.15,4.71-1.55,8.24-.48,3.87-.62,7.38-.41,10.52.1,1.91.55,5.29,1.34,10.13.61,3.87.85,7.24.75,10.14-.14,3.19-.87,6.28-2.19,9.26,3.36.99,6.72,1.75,10.08,2.26.83-4.17,1.17-7.58,1.01-10.21Z"/>
        <path id="path764" class="cls-48" d="m56.68,207.59c.03-1.7.64-3.66,1.84-5.89-.35-.13-.9-.4-1.64-.81-.45,3.11-.57,6.7-.35,10.78,0,0,.16-4.08.16-4.08Z"/>
        <path id="path766" class="cls-48" d="m59.89,202.39c-.19,2.47-.56,5.22-1.09,8.24-.5,2.65-.7,7.24-.59,13.78.03,3.49.09,7.82.19,13.01-.1,2.56-.64,6.11-1.59,10.67,1.8,1.17,4.01,2.32,6.63,3.44l.67-4.85c.36-3.1.03-7.66-.98-13.64-1.25-7.13-1.9-11.5-1.96-13.12-.17-3.73.56-9.14,2.19-16.22-1.23-.37-2.39-.8-3.48-1.31Z"/>
        <path id="path768" class="cls-48" d="m65.18,204.25c.05.76-.13,2.76-.53,6-.44,3.54-.66,6.41-.64,8.61.03,2.72.78,5.69,2.24,8.91.76,1.65,1.51,3.01,2.26,4.06l-.91-5.67c-.42-2.76-.49-5.31-.2-7.65.24-2.21.83-4.66,1.76-7.35.59-1.84,1.6-3.57,3.02-5.2-2.92-.61-5.26-1.18-7.01-1.71Z"/>
        <path id="path770" class="cls-43" d="m56.84,247.96l-.03-.03c0,.05,0,.11,0,.16.01-.04.02-.08.03-.12l2.73,1.75c5.82,3.05,12.42,5.28,19.79,6.69.48-4.3-.11-8.92-1.77-13.88-.63-1.86-1.22-5.13-1.79-9.8l-.65-6.43-.24,1.98c-.06,1.91.04,4.45.34,7.59.35,3.95.45,6.78.34,8.48-.11,2-.59,4.17-1.44,6.52-.98,2.56-2.53,3.43-4.67,2.6-2.14-.88-3.1-3.07-2.87-6.61.23-2.77-.28-6.69-1.55-11.79-1.54-6.36-2.41-10.45-2.61-12.28-.38-3.27-.33-7.43.14-12.5l.79-6.58-1.02,2.5c-.81,2.13-1.51,4.41-2.09,6.84-.5,2.14-.64,5.45-.43,9.96.22,5.19.21,8.84-.03,10.97-.47,4.81-1.46,9.48-2.96,14h0Zm-.03-.03c-.46-7.03-.72-13.16-.77-18.4,0-.72.09-3.52.31-8.42.11-2.81-.06-6.42-.5-10.84-.44-4.46-.36-7.76.23-9.89l-1.58-1.2-.15,4.85c-.05,3.91-.06,7.57-.02,10.97.05,5.48-.37,15.65-1.27,30.49,0,0,3.75,2.42,3.75,2.42Z"/>
        <path id="path772" class="cls-76" d="m101.43,216.72c-.19-1.79-.31-4.63-.34-8.54-3.31.03-6.4,0-9.27-.1-.34,5.4-.4,9.69-.2,12.88.21,4.12,1.1,8.54,2.67,13.24l-.02-1.98c-.04-3.74.1-7.51.41-11.3.16-1.78.66-3.62,1.52-5.49l1.15-2.31.46,6.69c.1,1.27.38,3.61.85,7.01.38,2.89.62,5.07.72,6.56.2,2.68-.52,9.13-2.17,19.35,1.92-8.4,3.23-14.34,3.94-17.83.88-4.17.97-10.24.28-18.18h0Z"/>
        <path id="path774" class="cls-76" d="m112.18,207.74c.31.68.89,1.91,1.73,3.68.85,1.74,1.51,3.45,2.01,5.15.72,2.5.75,5.97.1,10.39-.32,2.21-.72,4.17-1.18,5.88.6-.73,1.25-1.69,1.93-2.89,1.41-2.44,2.33-4.83,2.73-7.17.46-2.38.37-5.06-.27-8.03l-1.08-3.81,1.25,1.39c.97,1.18,1.92,2.43,2.85,3.73.93,1.31,1.67,3.96,2.23,7.95.28,2,.48,3.84.58,5.54l.31-2.3c.2-1.66.12-3.85-.26-6.56-.47-3.53-1.37-6.35-2.7-8.46-1.68-2.75-2.65-4.53-2.92-5.33-2.26.36-4.7.64-7.31.83Z"/>
        <path id="path776" class="cls-76" d="m138.21,234.79c-.25-.64-.66-1.31-1.23-2.03-1.45-1.77-3.45-2.96-5.98-3.57-2.01-.49-4.05-.37-6.13.38-1.04.35-1.87.76-2.47,1.24,1.13-.14,2.45-.22,3.98-.23,3,.01,5.43.35,7.26,1.01,1.84.7,3.17,1.52,4,2.45.27.27.45.52.57.76Z"/>
        <path id="path778" class="cls-76" d="m139.1,202.64l-1.56,7.41c-.95,5.53-1.23,9.92-.85,13.14.34,3.23,1.06,6.14,2.18,8.72.53,1.27,1.04,2.23,1.53,2.86-1.31-5.09-1.99-10.16-2.04-15.22-.03-3.15.09-6.91.34-11.3,0,0,.4-5.62.4-5.62Z"/>
        <g id="g780">
          <g id="g782">
            <g id="g788">
              <path id="path796" class="cls-18" d="m97.67,192.65c-6.57.02-12.64.5-18.21,1.45-6.21,1.08-8.99,2.36-8.32,3.84.63,1.48,3.51,2.67,8.66,3.55,4.66.76,10.27,1.15,16.8,1.18,14.41.03,23.39-1.36,26.93-4.16,1.85-1.46-.44-2.82-6.9-4.08-5.89-1.13-12.21-1.72-18.96-1.79Z"/>
            </g>
          </g>
        </g>
        <path id="path798" class="cls-54" d="m97.67,192.65c-6.57.02-12.64.5-18.21,1.45-6.21,1.08-8.99,2.36-8.32,3.84.14.38.49.78,1.06,1.2,1.51-1.29,4.6-2.34,9.24-3.15,4.57-.77,9.35-1.09,14.36-.97,6.45.15,11.35.44,14.7.88,5.54.62,9.55,1.73,12.05,3.33l.98-.71c1.85-1.46-.44-2.82-6.9-4.08-5.89-1.13-12.21-1.72-18.96-1.79Z"/>
        <path id="path800" class="cls-73" d="m86.87,190.71c-2.56.11-3.74.42-3.52.93.27.51,1.64.79,4.13.85,1.56.07,3.09-.03,4.56-.3,1.57-.23,2.33-.51,2.28-.85-.22-.72-2.71-.93-7.45-.63Z"/>
        <path id="path802" class="cls-71" d="m67.16,23.68c-11.7.79-22.27,2.43-31.69,4.9-9.85,2.52-13.49,4.73-10.91,6.61,2.59,1.93,8.91,4.85,18.96,8.74,9.79,3.86,18.48,6.88,26.08,9.06,6.9,1.98,24.45,4.69,52.65,8.16,26.37,3.23,45.38,5.17,57,5.82,17.55,1.02,26.02.83,25.4-.57-.31-.68-5.46-4.31-15.46-10.89-10.82-7.16-19.41-12.42-25.75-15.76-12.3-2.94-25.55-5.83-39.72-8.67-28.4-5.63-47.25-8.11-56.56-7.42Z"/>
        <path id="path804" class="cls-51" d="m36.86,36.86c6.74,3.84,13.87,6.92,21.38,9.23,7.55,2.35,19.25,5.12,35.09,8.33,12.96,2.64,32.51,5.25,58.65,7.84,19.57,1.94,34.21,3.15,43.93,3.66,6.4.32,4.39-1.92-6.01-6.71-6.3-2.91-19.18-8.4-38.63-16.46-6.51-2.78-28.56-5.23-66.16-7.33-37.68-2.14-53.76-1.67-48.24,1.43Z"/>
        <path id="path806" class="cls-77" d="m72.02,47.36l-8.52-3.11c-6.25-2.32-10.82-4.17-13.7-5.54-2.89-1.33-5.77-2.32-8.65-2.98-1.48-.32-2.66-.5-3.53-.54,3.07,1.89,7.09,3.93,12.08,6.14,9.93,4.45,19.56,7.46,28.89,9.03l13.73,2.29c2.71,1.12,6.55,2.13,11.53,3.01l6.6,1.02-11.61-4.41c11.48,3.12,19.1,4.98,22.85,5.58l13.41,1.97-6.74-1.66c-5.2-1.31-9.41-2.52-12.64-3.64-3.04-1.04-6.26-1.96-9.66-2.78,18.07,3.78,30.97,6.44,38.71,7.98,8.72,1.74,15.07,2.79,19.03,3.13l-14.01-2.92c-10.3-2.24-17.71-3.98-22.25-5.21-4.65-1.26-8.45-2.18-11.39-2.79,19.63,3.31,35.09,6.04,46.38,8.19,7.55,1.45,14.85,2.47,21.91,3.04l8.36.37c-14.4-2.71-26.67-4.93-36.83-6.66-10.2-1.73-22.7-3.94-37.48-6.65,21.01,2.85,33.7,4.37,38.05,4.54l8.43.17-29.36-4.56c-3.79-.56-7.06-.97-9.81-1.24l-1.7-.18c3.31-.41,5.48-.63,6.52-.64l1.57-.02-7.71-.56c-6.14-.24-11.67-.08-16.58.48-2.09.23-3.14.24-3.14.03l9.97-1.95-16.52.48,2.13-2.44-1.96.34c-1.43.31-2.54.73-3.32,1.25l-1.82,1.22c-2.71-1.8-4.19-3.21-4.42-4.23l-.34-1.52-1.52,4.86-16.58-6.22,7.58,6.62-6.03-2.3c-4.54-1.78-8.07-3.3-10.56-4.55l-7.22-3.57,17.87,11.11h0Z"/>
        <g id="g808">
          <g id="g810">
            <g id="g816">
              <path id="path824" class="cls-4" d="m1.38,28.79c-1.6.74-1.81,1.72-.62,2.94,2.33,2.49,10.37,5,24.1,7.54,12.08,2.22,27.48,3.33,46.21,3.31,21.63-.04,39.45.77,53.44,2.41,19.83,2.36,39.13,6.63,57.91,12.83,9.39,3.1,16.8,5.96,22.23,8.58-8.66-8.04-18.21-16.45-28.66-25.23-20.94-17.53-35.97-28.11-45.1-31.77-12.81-5.15-24.93-7.01-36.37-5.58-4.61.56-10.19,1.76-16.74,3.61-3.91,1.1-10.33,3-19.28,5.68C29.54,21.56,10.5,26.78,1.37,28.78h0Z"/>
            </g>
          </g>
        </g>
        <path id="path826" class="cls-71" d="m126.88,7.92c14.76,8.7,23.39,16.89,25.9,24.55,2.29,7-2.17,11.89-13.37,14.67,16.39,2.82,32.17,6.87,47.33,12.17,7.6,2.64,13.57,5.01,17.9,7.09-8.66-8.04-18.21-16.45-28.66-25.23-20.94-17.53-35.97-28.11-45.1-31.77l-4-1.49Z"/>
        <path id="path828" class="cls-71" d="m63.85,41.31c-8.27.38-16.37.4-24.29.05,7.54.77,20.32,1.18,38.35,1.22,17.29-.04,32.82.76,46.59,2.42,19.83,2.36,39.14,6.63,57.92,12.83,9.39,3.1,16.8,5.96,22.23,8.58l-2.9-2.65c-5.88-4.24-16.58-8.6-32.12-13.08-12.88-3.7-29.54-6.41-49.98-8.12-19.39-1.64-37.98-2.05-55.78-1.24h0Z"/>
        <path id="path830" class="cls-57" d="m69.66,13.13c-2.13,1.22-3.33,2.29-3.63,3.22-.3,1.02.48,1.7,2.31,2.02,3.66.69,9.55-.29,17.67-2.91,6.12-2.01,10.72-3.85,13.79-5.49,1.82-.92,1.79-1.79-.09-2.62-1.92-.88-4.86-1.04-8.82-.49-9.09,1.28-16.17,3.37-21.23,6.26h0Z"/>
        <path id="path832" class="cls-71" d="m129.1,14.59c.23,1.19.85,2.35,1.87,3.49,1.98,2.32,4.86,3.47,8.65,3.43,2.23-.02,3.02-1.29,2.38-3.79-.67-2.45-2.22-4.36-4.63-5.69-3.02-1.67-5.31-1.74-6.86-.19-.78.73-1.25,1.65-1.41,2.75Z"/>
        <path id="path834" class="cls-71" d="m115.15,23.34c-.21.98-.04,1.98.49,2.99,1.07,1.95,3.47,2.9,7.21,2.86,2.35-.02,3.62-1.1,3.83-3.23.15-2.17-.93-3.9-3.25-5.2-3.02-1.67-5.31-1.74-6.86-.19-.78.73-1.25,1.65-1.41,2.76h0Z"/>
        <path id="path836" class="cls-71" d="m141.22,38.26c.01,1.1.41,2.23,1.21,3.36,1.59,2.2,4.25,3.28,8,3.24,2.4-.02,3.82-1.18,4.28-3.49.5-2.34-.41-4.16-2.73-5.46-3.02-1.63-5.72-1.73-8.1-.3-1.17.73-2.05,1.61-2.65,2.64h0Z"/>
        <path id="path838" class="cls-71" d="m103.67,4.19c.36.68,1.08,1.37,2.18,2.09,2.23,1.34,5.22,1.99,8.97,1.95,2.39-.02,3.67-.5,3.84-1.45.21-.94-.87-2.05-3.23-3.34-3.02-1.63-5.87-2-8.56-1.13-1.39.48-2.45,1.11-3.18,1.88h0Z"/>
        <path id="path840" class="cls-71" d="m84.94,26.06c2.48-.02,4.41-1.17,5.78-3.44,1.41-2.31.98-4.09-1.3-5.34-1.71-.92-3.38-1.03-5.03-.34-1.47.66-2.58,1.75-3.3,3.29-.77,1.5-.87,2.81-.29,3.95.67,1.27,2.05,1.9,4.13,1.88h0Z"/>
        <path id="path842" class="cls-71" d="m59.07,19.93c2.57-.03,4.87-.96,6.9-2.81,2.11-1.93,2.08-3.5-.11-4.71-1.71-.92-3.52-1.09-5.43-.53-1.65.53-3.01,1.47-4.08,2.85-1.03,1.29-1.37,2.46-1.01,3.52.4,1.15,1.65,1.71,3.74,1.69h0Z"/>
        <path id="path844" class="cls-71" d="m27.55,33.63c2.71,1.04,5.55.29,8.53-2.25,2.99-2.54,3.27-4.47.86-5.81-3.5-1.92-6.79-1.38-9.84,1.63-1.25,1.16-1.87,2.35-1.86,3.59-.03,1.32.74,2.26,2.31,2.85Z"/>
        <path id="path846" class="cls-71" d="m54.99,34.64c3.59,1.62,6.58.98,8.99-1.94.95-1.16,1.44-2.33,1.46-3.52-.01-1.32-.58-2.29-1.72-2.92-3.5-1.92-6.65-1.38-9.45,1.62-1.12,1.21-1.65,2.42-1.6,3.65.01,1.4.79,2.44,2.32,3.1Z"/>
        <path id="path848" class="cls-71" d="m164.07,37.08l-.1,3.7c.72,2.41,2.95,3.61,6.7,3.57,2.35-.02,3.6-.99,3.76-2.91.15-1.91-.91-3.6-3.19-5.07-1.66-1.05-3.37-1.24-5.1-.59-.86.35-1.55.78-2.07,1.3h0Z"/>
        <g id="g850">
          <g id="g852">
            <g id="g858">
              <path id="path866" class="cls-19" d="m128.1,12.37c.24,1.19.85,2.35,1.86,3.49,1.98,2.32,4.87,3.46,8.66,3.42,2.22-.02,3.01-1.28,2.38-3.78-.68-2.46-2.22-4.36-4.63-5.7-3.02-1.67-5.31-1.73-6.86-.19-.78.74-1.25,1.65-1.41,2.76h0Z"/>
            </g>
          </g>
        </g>
        <g id="g868">
          <g id="g870">
            <g id="g876">
              <path id="path884" class="cls-20" d="m114.15,21.12c-.21.98-.04,1.98.48,2.99,1.06,1.95,3.47,2.9,7.21,2.86,2.35-.02,3.62-1.09,3.82-3.23.15-2.17-.93-3.9-3.25-5.19-3.02-1.67-5.3-1.74-6.86-.19-.78.73-1.25,1.65-1.41,2.75Z"/>
            </g>
          </g>
        </g>
        <g id="g886">
          <g id="g888">
            <g id="g894">
              <path id="path902" class="cls-24" d="m140.22,36.04c.01,1.11.41,2.23,1.21,3.37,1.59,2.19,4.25,3.27,8,3.24,2.39-.02,3.81-1.18,4.27-3.48.5-2.35-.4-4.17-2.72-5.46-3.02-1.63-5.72-1.73-8.1-.31-1.17.74-2.05,1.61-2.65,2.64Z"/>
            </g>
          </g>
        </g>
        <g id="g904">
          <g id="g906">
            <g id="g912">
              <path id="path920" class="cls-21" d="m103.67,4.19c.17.34.75.65,1.71.94,1.88.62,4.69.91,8.43.87,2.39-.02,3.68-.5,3.84-1.44.21-.94-.87-2.05-3.23-3.35-3.02-1.63-5.72-1.62-8.09.02-1.17.82-2.06,1.81-2.65,2.96h0Z"/>
            </g>
          </g>
        </g>
        <g id="g922">
          <g id="g924">
            <g id="g930">
              <path id="path938" class="cls-25" d="m83.94,23.83c2.48-.02,4.4-1.17,5.78-3.43,1.41-2.31.99-4.09-1.29-5.35-1.71-.92-3.38-1.03-5.03-.33-1.47.65-2.57,1.74-3.3,3.28-.77,1.5-.87,2.82-.29,3.96.66,1.27,2.04,1.89,4.13,1.87h0Z"/>
            </g>
          </g>
        </g>
        <g id="g940">
          <g id="g942">
            <g id="g948">
              <path id="path956" class="cls-26" d="m58.09,17.71c2.57-.03,4.86-.96,6.89-2.81,2.12-1.93,2.08-3.51-.11-4.72-1.71-.92-3.52-1.09-5.43-.52-1.65.53-3.01,1.47-4.09,2.85-1.03,1.28-1.37,2.46-1.01,3.52.41,1.14,1.65,1.7,3.74,1.68h0Z"/>
            </g>
          </g>
        </g>
        <g id="g958">
          <g id="g960">
            <g id="g966">
              <path id="path974" class="cls-23" d="m26.53,31.41c2.71,1.03,5.56.28,8.54-2.25,2.98-2.54,3.27-4.48.85-5.81-3.5-1.92-6.78-1.38-9.84,1.62-1.25,1.16-1.87,2.36-1.86,3.59-.03,1.31.74,2.27,2.31,2.85Z"/>
            </g>
          </g>
        </g>
        <g id="g976">
          <g id="g978">
            <g id="g984">
              <path id="path992" class="cls-22" d="m53.97,32.42c3.59,1.63,6.59.98,8.99-1.93.95-1.16,1.44-2.33,1.47-3.53-.01-1.31-.59-2.29-1.72-2.92-3.51-1.92-6.65-1.38-9.46,1.62-1.12,1.2-1.65,2.42-1.6,3.65.01,1.4.78,2.43,2.31,3.1Z"/>
            </g>
          </g>
        </g>
        <g id="g994">
          <g id="g996">
            <g id="g1002">
              <path id="path1010" class="cls-27" d="m163.06,34.86l-.09,3.7c.72,2.42,2.95,3.6,6.69,3.57,2.35-.02,3.61-.99,3.76-2.91.15-1.91-.91-3.6-3.19-5.07-1.66-1.04-3.36-1.24-5.1-.59-.87.35-1.56.78-2.08,1.3Z"/>
            </g>
          </g>
        </g>
        <path id="path1012" class="cls-51" d="m90.01,50.82l.49,16.64c0,13.6-.67,26.79-2.03,39.56-1.23,11.75-2.51,28.66-3.82,50.74-.49,7.61-.88,18.78-1.17,33.49.31.55,1.29.75,2.95.61.78-.1,1.43-.27,1.95-.53l.52-.32c.39-22.46,1.11-39.58,2.18-51.37,1.1-12.29,3.08-25.14,5.96-38.51,3.17-14.83,6.62-26.39,10.37-34.67.94-2.09,2.46-4.66,4.56-7.7l2.84-3.92-2.96-2.08c-2.85-1.5-6.51-2.48-11-2.95-3.79-.39-6.73-.34-8.82.15-1.04.27-1.71.55-2.01.85h0Z"/>
        <path id="path1014" class="cls-77" d="m111.97,58.77l2.84-3.92-2.96-2.08c-2.85-1.5-6.51-2.48-11-2.95-3.79-.39-6.73-.34-8.82.15-1.04.27-1.71.55-2.01.85l.45,12.43c1.83-.57,3.66-.48,5.49.27l.02,1.59-.92,5.94c-.57,3.96-1.33,11.73-2.25,23.3l1.02-8.81c.4-3.7.99-7.68,1.78-11.94l2-9.21,1.64,1.26-1.18,6.26c-1.29,6.73-2.86,16.95-4.73,30.66.71-2.56,1.5-7.33,2.34-14.31.89-6.94,2.54-13.61,4.96-20.01.46,1.86.45,4.04,0,6.51-.16.94-1.78,8.73-4.87,23.38-2.74,13.26-4.35,21.85-4.84,25.81-.84,7.58-1.84,25.3-3.01,53.16-.11,2.39-.12,5.4-.05,9.06-.06,2.6-.61,4.2-1.65,4.8l-.06-6.63c-.02-1.91.19-6.85.64-14.8.51-9.53.83-15.7.93-18.51.13-4.26.45-9.06.97-14.42l.99-12.38-1.76,13.99c-.19,2.43-.45,7.81-.75,16.14l-.53-1.08c-.24-.51-.35-2.75-.33-6.69-.14,3.58-.3,9.53-.48,17.86-.25,10.17-.35,16.29-.28,18.38.12,2.93.01,5.78-.31,8.55-.43.05-1.02,0-1.76-.11.31.55,1.29.75,2.95.61.78-.1,1.43-.27,1.95-.53l.52-.32c.39-22.46,1.11-39.58,2.18-51.37,1.1-12.29,3.08-25.14,5.96-38.51,3.17-14.83,6.62-26.39,10.37-34.67.94-2.09,2.46-4.66,4.56-7.7h0Z"/>
        <path id="path1016" class="cls-59" d="m94.86,65.76c.17-1.19-.1-1.85-.8-1.97-.61-.16-1.24.25-1.88,1.23-.26.38-.4,3.66-.42,9.83-.06,3.36-.1,7.93-.13,13.71-.04,3.36-.47,10.24-1.3,20.65.22-1.7.54-4.12.98-7.25.81-5.63,1.3-9.67,1.45-12.14.19-3.02.56-7.57,1.1-13.66.47-5.4.81-8.88,1.01-10.41Z"/>
        <path id="path1018" class="cls-59" d="m97.16,80.91l-.36,2.94c-.37,2.17-.75,3.89-1.13,5.18-.59,2-1.62,8.39-3.08,19.16l1.39-5.5c1.17-4.56,2.08-8.14,2.7-10.74,1.22-4.77,1.91-7.9,2.06-9.39.2-1.75.1-2.75-.29-2.99-.35-.21-.78.24-1.29,1.35Z"/>
        <path id="path1020" class="cls-59" d="m87.17,154.36c-.03-3.15.03-5.74.19-7.79l1.82-21-1.3,7.41c-.9,5.5-1.49,9.54-1.78,12.14-.44,3.66-.64,5.98-.58,6.96.1,1.53.65,2.29,1.65,2.28Z"/>
      </g>
    </g>
  </g>
</svg>